M48
; DRILL file {KiCad 9.0.3} date 2025-07-08T18:12:20-0700
; FORMAT={-:-/ absolute / metric / decimal}
; #@! TF.CreationDate,2025-07-08T18:12:20-07:00
; #@! TF.GenerationSoftware,Kicad,Pcbnew,9.0.3
; #@! TF.FileFunction,Plated,1,2,PTH
FMAT,2
METRIC
; #@! TA.AperFunction,Plated,PTH,ViaDrill
T1C0.400
; #@! TA.AperFunction,Plated,PTH,ComponentDrill
T2C0.740
; #@! TA.AperFunction,Plated,PTH,ComponentDrill
T3C0.800
; #@! TA.AperFunction,Plated,PTH,ComponentDrill
T4C1.000
; #@! TA.AperFunction,Plated,PTH,ComponentDrill
T5C1.200
; #@! TA.AperFunction,Plated,PTH,ComponentDrill
T6C1.300
%
G90
G05
T1
X101.0Y-71.0
X104.0Y-114.0
X144.0Y-134.0
X150.0Y-129.0
X153.0Y-126.0
X157.0Y-81.0
X162.0Y-114.0
X165.0Y-110.0
X173.936Y-70.936
X174.0Y-74.0
X180.88Y-117.38
X183.25Y-115.13
X186.0Y-96.0
T2
X107.0Y-67.0
X107.0Y-69.54
X107.0Y-72.08
X107.0Y-74.62
X112.03Y-114.45
X112.03Y-116.99
X112.03Y-119.53
X112.03Y-122.07
X114.94Y-67.0
X114.94Y-69.54
X114.94Y-72.08
X114.94Y-74.62
X119.97Y-114.45
X119.97Y-116.99
X119.97Y-119.53
X119.97Y-122.07
T3
X97.5Y-95.0
X100.0Y-95.0
X103.0Y-79.0
X103.0Y-86.5
X105.25Y-108.0
X107.5Y-133.0
X108.0Y-79.26
X108.0Y-86.76
X109.0Y-89.26
X109.0Y-99.42
X110.0Y-133.0
X111.0Y-140.26
X112.75Y-108.0
X113.25Y-136.26
X116.5Y-82.0
X117.0Y-50.0
X117.0Y-60.16
X119.0Y-82.0
X120.75Y-136.26
X121.0Y-54.84
X121.0Y-65.0
X121.0Y-69.5
X121.0Y-77.0
X121.16Y-140.26
X123.5Y-128.26
X125.0Y-50.0
X125.0Y-60.16
X126.0Y-128.26
X129.0Y-55.0
X129.0Y-65.16
X129.0Y-69.0
X129.0Y-76.5
X137.0Y-55.0
X137.0Y-65.16
X140.0Y-47.1
X140.0Y-57.26
X144.0Y-57.5
X144.0Y-65.0
X153.0Y-51.0
X153.0Y-61.16
X156.525Y-49.0
X156.525Y-59.16
X160.0Y-57.0
X160.0Y-64.5
X162.0Y-119.0
X162.0Y-129.16
X166.0Y-51.0
X166.0Y-61.16
X168.84Y-110.0
X169.0Y-49.0
X169.0Y-59.16
X169.0Y-65.0
X169.0Y-72.5
X169.0Y-115.26
X177.0Y-49.84
X177.0Y-60.0
X179.0Y-65.5
X179.0Y-73.0
X179.0Y-110.0
X179.16Y-115.26
X182.0Y-53.0
X182.0Y-63.16
X192.0Y-72.92
X192.0Y-83.08
X193.0Y-95.84
X193.0Y-106.0
T4
X105.0Y-100.0
X113.0Y-47.0
X116.0Y-128.26
X118.0Y-90.26
X123.0Y-45.76
X123.0Y-85.26
X123.0Y-87.8
X123.0Y-90.34
X125.54Y-45.76
X126.0Y-118.26
X128.08Y-45.76
X129.0Y-51.0
X130.62Y-45.76
X132.0Y-118.26
X132.0Y-120.8
X132.0Y-123.34
X133.16Y-45.76
X139.22Y-93.42
X139.22Y-95.96
X139.22Y-98.5
X139.22Y-101.04
X139.22Y-103.58
X139.22Y-106.12
X139.22Y-108.66
X139.22Y-111.2
X139.22Y-113.74
X139.22Y-116.28
X139.22Y-118.82
X139.22Y-121.36
X139.22Y-123.9
X139.22Y-126.44
X139.22Y-128.98
X139.22Y-131.52
X139.22Y-134.06
X139.22Y-136.6
X139.22Y-139.14
X139.22Y-141.68
X146.0Y-51.0
X149.0Y-45.26
X151.54Y-45.26
X154.08Y-45.26
X156.62Y-45.26
X157.0Y-93.42
X157.0Y-95.96
X157.0Y-98.5
X157.0Y-101.04
X157.0Y-103.58
X157.0Y-106.12
X157.0Y-108.66
X157.0Y-111.2
X157.0Y-113.74
X157.0Y-116.28
X157.0Y-118.82
X157.0Y-121.36
X157.0Y-123.9
X157.0Y-126.44
X157.0Y-128.98
X157.0Y-131.52
X157.0Y-134.06
X157.0Y-136.6
X157.0Y-139.14
X157.0Y-141.68
X159.16Y-45.26
X161.0Y-54.0
X163.0Y-49.0
X165.51Y-90.1
X165.51Y-92.64
X165.51Y-95.18
X165.51Y-97.72
X165.51Y-100.26
X166.0Y-121.26
X166.34Y-45.26
X168.88Y-45.26
X170.0Y-122.0
X171.0Y-137.0
X171.42Y-45.26
X173.96Y-45.26
X176.5Y-45.26
X178.0Y-106.26
X180.75Y-90.1
X180.75Y-92.64
X180.75Y-95.18
X180.75Y-97.72
X180.75Y-100.26
X182.0Y-48.26
X184.0Y-106.26
X184.0Y-110.0
X186.0Y-71.0
X186.0Y-84.0
X186.54Y-110.0
X188.0Y-116.0
X188.0Y-124.0
X190.0Y-88.0
X190.0Y-90.54
X190.0Y-93.08
X190.0Y-95.62
X190.0Y-98.16
X193.0Y-117.0
X193.0Y-119.54
X193.0Y-122.08
X193.0Y-124.62
X193.0Y-127.16
X193.0Y-129.7
X193.0Y-132.24
T5
X182.0Y-83.26
T6
X100.0Y-59.0
X100.0Y-64.0
X100.0Y-122.0
X100.0Y-127.0
M30
