%TF.GenerationSoftware,KiCad,Pcbnew,9.0.3*%
%TF.CreationDate,2025-07-08T18:12:23-07:00*%
%TF.ProjectId,pcb_schematics,7063625f-7363-4686-956d-61746963732e,rev?*%
%TF.SameCoordinates,Original*%
%TF.FileFunction,Legend,Bot*%
%TF.FilePolarity,Positive*%
%FSLAX46Y46*%
G04 Gerber Fmt 4.6, Leading zero omitted, Abs format (unit mm)*
G04 Created by KiCad (PCBNEW 9.0.3) date 2025-07-08 18:12:23*
%MOMM*%
%LPD*%
G01*
G04 APERTURE LIST*
%ADD10C,0.150000*%
%ADD11C,0.250000*%
%ADD12C,0.120000*%
%ADD13C,0.127000*%
%ADD14C,0.200000*%
G04 APERTURE END LIST*
D10*
X183710839Y-80844104D02*
X183234649Y-80844104D01*
X183806077Y-81129819D02*
X183472744Y-80129819D01*
X183472744Y-80129819D02*
X183139411Y-81129819D01*
X182806077Y-80463152D02*
X182806077Y-81129819D01*
X182806077Y-80558390D02*
X182758458Y-80510771D01*
X182758458Y-80510771D02*
X182663220Y-80463152D01*
X182663220Y-80463152D02*
X182520363Y-80463152D01*
X182520363Y-80463152D02*
X182425125Y-80510771D01*
X182425125Y-80510771D02*
X182377506Y-80606009D01*
X182377506Y-80606009D02*
X182377506Y-81129819D01*
X182044172Y-80463152D02*
X181663220Y-80463152D01*
X181901315Y-80129819D02*
X181901315Y-80986961D01*
X181901315Y-80986961D02*
X181853696Y-81082200D01*
X181853696Y-81082200D02*
X181758458Y-81129819D01*
X181758458Y-81129819D02*
X181663220Y-81129819D01*
X180948934Y-81082200D02*
X181044172Y-81129819D01*
X181044172Y-81129819D02*
X181234648Y-81129819D01*
X181234648Y-81129819D02*
X181329886Y-81082200D01*
X181329886Y-81082200D02*
X181377505Y-80986961D01*
X181377505Y-80986961D02*
X181377505Y-80606009D01*
X181377505Y-80606009D02*
X181329886Y-80510771D01*
X181329886Y-80510771D02*
X181234648Y-80463152D01*
X181234648Y-80463152D02*
X181044172Y-80463152D01*
X181044172Y-80463152D02*
X180948934Y-80510771D01*
X180948934Y-80510771D02*
X180901315Y-80606009D01*
X180901315Y-80606009D02*
X180901315Y-80701247D01*
X180901315Y-80701247D02*
X181377505Y-80796485D01*
X180472743Y-80463152D02*
X180472743Y-81129819D01*
X180472743Y-80558390D02*
X180425124Y-80510771D01*
X180425124Y-80510771D02*
X180329886Y-80463152D01*
X180329886Y-80463152D02*
X180187029Y-80463152D01*
X180187029Y-80463152D02*
X180091791Y-80510771D01*
X180091791Y-80510771D02*
X180044172Y-80606009D01*
X180044172Y-80606009D02*
X180044172Y-81129819D01*
X179567981Y-80463152D02*
X179567981Y-81129819D01*
X179567981Y-80558390D02*
X179520362Y-80510771D01*
X179520362Y-80510771D02*
X179425124Y-80463152D01*
X179425124Y-80463152D02*
X179282267Y-80463152D01*
X179282267Y-80463152D02*
X179187029Y-80510771D01*
X179187029Y-80510771D02*
X179139410Y-80606009D01*
X179139410Y-80606009D02*
X179139410Y-81129819D01*
X178234648Y-81129819D02*
X178234648Y-80606009D01*
X178234648Y-80606009D02*
X178282267Y-80510771D01*
X178282267Y-80510771D02*
X178377505Y-80463152D01*
X178377505Y-80463152D02*
X178567981Y-80463152D01*
X178567981Y-80463152D02*
X178663219Y-80510771D01*
X178234648Y-81082200D02*
X178329886Y-81129819D01*
X178329886Y-81129819D02*
X178567981Y-81129819D01*
X178567981Y-81129819D02*
X178663219Y-81082200D01*
X178663219Y-81082200D02*
X178710838Y-80986961D01*
X178710838Y-80986961D02*
X178710838Y-80891723D01*
X178710838Y-80891723D02*
X178663219Y-80796485D01*
X178663219Y-80796485D02*
X178567981Y-80748866D01*
X178567981Y-80748866D02*
X178329886Y-80748866D01*
X178329886Y-80748866D02*
X178234648Y-80701247D01*
X184091792Y-137944748D02*
X184139411Y-137992368D01*
X184139411Y-137992368D02*
X184282268Y-138039987D01*
X184282268Y-138039987D02*
X184377506Y-138039987D01*
X184377506Y-138039987D02*
X184520363Y-137992368D01*
X184520363Y-137992368D02*
X184615601Y-137897129D01*
X184615601Y-137897129D02*
X184663220Y-137801891D01*
X184663220Y-137801891D02*
X184710839Y-137611415D01*
X184710839Y-137611415D02*
X184710839Y-137468558D01*
X184710839Y-137468558D02*
X184663220Y-137278082D01*
X184663220Y-137278082D02*
X184615601Y-137182844D01*
X184615601Y-137182844D02*
X184520363Y-137087606D01*
X184520363Y-137087606D02*
X184377506Y-137039987D01*
X184377506Y-137039987D02*
X184282268Y-137039987D01*
X184282268Y-137039987D02*
X184139411Y-137087606D01*
X184139411Y-137087606D02*
X184091792Y-137135225D01*
X183520363Y-138039987D02*
X183615601Y-137992368D01*
X183615601Y-137992368D02*
X183663220Y-137897129D01*
X183663220Y-137897129D02*
X183663220Y-137039987D01*
X182996553Y-138039987D02*
X183091791Y-137992368D01*
X183091791Y-137992368D02*
X183139410Y-137944748D01*
X183139410Y-137944748D02*
X183187029Y-137849510D01*
X183187029Y-137849510D02*
X183187029Y-137563796D01*
X183187029Y-137563796D02*
X183139410Y-137468558D01*
X183139410Y-137468558D02*
X183091791Y-137420939D01*
X183091791Y-137420939D02*
X182996553Y-137373320D01*
X182996553Y-137373320D02*
X182853696Y-137373320D01*
X182853696Y-137373320D02*
X182758458Y-137420939D01*
X182758458Y-137420939D02*
X182710839Y-137468558D01*
X182710839Y-137468558D02*
X182663220Y-137563796D01*
X182663220Y-137563796D02*
X182663220Y-137849510D01*
X182663220Y-137849510D02*
X182710839Y-137944748D01*
X182710839Y-137944748D02*
X182758458Y-137992368D01*
X182758458Y-137992368D02*
X182853696Y-138039987D01*
X182853696Y-138039987D02*
X182996553Y-138039987D01*
X181806077Y-137992368D02*
X181901315Y-138039987D01*
X181901315Y-138039987D02*
X182091791Y-138039987D01*
X182091791Y-138039987D02*
X182187029Y-137992368D01*
X182187029Y-137992368D02*
X182234648Y-137944748D01*
X182234648Y-137944748D02*
X182282267Y-137849510D01*
X182282267Y-137849510D02*
X182282267Y-137563796D01*
X182282267Y-137563796D02*
X182234648Y-137468558D01*
X182234648Y-137468558D02*
X182187029Y-137420939D01*
X182187029Y-137420939D02*
X182091791Y-137373320D01*
X182091791Y-137373320D02*
X181901315Y-137373320D01*
X181901315Y-137373320D02*
X181806077Y-137420939D01*
X181377505Y-138039987D02*
X181377505Y-137039987D01*
X181282267Y-137659034D02*
X180996553Y-138039987D01*
X180996553Y-137373320D02*
X181377505Y-137754272D01*
X180567981Y-137659034D02*
X179806077Y-137659034D01*
X178758458Y-138039987D02*
X179091791Y-137563796D01*
X179329886Y-138039987D02*
X179329886Y-137039987D01*
X179329886Y-137039987D02*
X178948934Y-137039987D01*
X178948934Y-137039987D02*
X178853696Y-137087606D01*
X178853696Y-137087606D02*
X178806077Y-137135225D01*
X178806077Y-137135225D02*
X178758458Y-137230463D01*
X178758458Y-137230463D02*
X178758458Y-137373320D01*
X178758458Y-137373320D02*
X178806077Y-137468558D01*
X178806077Y-137468558D02*
X178853696Y-137516177D01*
X178853696Y-137516177D02*
X178948934Y-137563796D01*
X178948934Y-137563796D02*
X179329886Y-137563796D01*
X177901315Y-138039987D02*
X177901315Y-137516177D01*
X177901315Y-137516177D02*
X177948934Y-137420939D01*
X177948934Y-137420939D02*
X178044172Y-137373320D01*
X178044172Y-137373320D02*
X178234648Y-137373320D01*
X178234648Y-137373320D02*
X178329886Y-137420939D01*
X177901315Y-137992368D02*
X177996553Y-138039987D01*
X177996553Y-138039987D02*
X178234648Y-138039987D01*
X178234648Y-138039987D02*
X178329886Y-137992368D01*
X178329886Y-137992368D02*
X178377505Y-137897129D01*
X178377505Y-137897129D02*
X178377505Y-137801891D01*
X178377505Y-137801891D02*
X178329886Y-137706653D01*
X178329886Y-137706653D02*
X178234648Y-137659034D01*
X178234648Y-137659034D02*
X177996553Y-137659034D01*
X177996553Y-137659034D02*
X177901315Y-137611415D01*
X176996553Y-138039987D02*
X176996553Y-137039987D01*
X176996553Y-137992368D02*
X177091791Y-138039987D01*
X177091791Y-138039987D02*
X177282267Y-138039987D01*
X177282267Y-138039987D02*
X177377505Y-137992368D01*
X177377505Y-137992368D02*
X177425124Y-137944748D01*
X177425124Y-137944748D02*
X177472743Y-137849510D01*
X177472743Y-137849510D02*
X177472743Y-137563796D01*
X177472743Y-137563796D02*
X177425124Y-137468558D01*
X177425124Y-137468558D02*
X177377505Y-137420939D01*
X177377505Y-137420939D02*
X177282267Y-137373320D01*
X177282267Y-137373320D02*
X177091791Y-137373320D01*
X177091791Y-137373320D02*
X176996553Y-137420939D01*
X176520362Y-138039987D02*
X176520362Y-137373320D01*
X176520362Y-137039987D02*
X176567981Y-137087606D01*
X176567981Y-137087606D02*
X176520362Y-137135225D01*
X176520362Y-137135225D02*
X176472743Y-137087606D01*
X176472743Y-137087606D02*
X176520362Y-137039987D01*
X176520362Y-137039987D02*
X176520362Y-137135225D01*
X175901315Y-138039987D02*
X175996553Y-137992368D01*
X175996553Y-137992368D02*
X176044172Y-137944748D01*
X176044172Y-137944748D02*
X176091791Y-137849510D01*
X176091791Y-137849510D02*
X176091791Y-137563796D01*
X176091791Y-137563796D02*
X176044172Y-137468558D01*
X176044172Y-137468558D02*
X175996553Y-137420939D01*
X175996553Y-137420939D02*
X175901315Y-137373320D01*
X175901315Y-137373320D02*
X175758458Y-137373320D01*
X175758458Y-137373320D02*
X175663220Y-137420939D01*
X175663220Y-137420939D02*
X175615601Y-137468558D01*
X175615601Y-137468558D02*
X175567982Y-137563796D01*
X175567982Y-137563796D02*
X175567982Y-137849510D01*
X175567982Y-137849510D02*
X175615601Y-137944748D01*
X175615601Y-137944748D02*
X175663220Y-137992368D01*
X175663220Y-137992368D02*
X175758458Y-138039987D01*
X175758458Y-138039987D02*
X175901315Y-138039987D01*
X184710839Y-138745169D02*
X184663220Y-138697550D01*
X184663220Y-138697550D02*
X184567982Y-138649931D01*
X184567982Y-138649931D02*
X184329887Y-138649931D01*
X184329887Y-138649931D02*
X184234649Y-138697550D01*
X184234649Y-138697550D02*
X184187030Y-138745169D01*
X184187030Y-138745169D02*
X184139411Y-138840407D01*
X184139411Y-138840407D02*
X184139411Y-138935645D01*
X184139411Y-138935645D02*
X184187030Y-139078502D01*
X184187030Y-139078502D02*
X184758458Y-139649931D01*
X184758458Y-139649931D02*
X184139411Y-139649931D01*
X183663220Y-139649931D02*
X183472744Y-139649931D01*
X183472744Y-139649931D02*
X183377506Y-139602312D01*
X183377506Y-139602312D02*
X183329887Y-139554692D01*
X183329887Y-139554692D02*
X183234649Y-139411835D01*
X183234649Y-139411835D02*
X183187030Y-139221359D01*
X183187030Y-139221359D02*
X183187030Y-138840407D01*
X183187030Y-138840407D02*
X183234649Y-138745169D01*
X183234649Y-138745169D02*
X183282268Y-138697550D01*
X183282268Y-138697550D02*
X183377506Y-138649931D01*
X183377506Y-138649931D02*
X183567982Y-138649931D01*
X183567982Y-138649931D02*
X183663220Y-138697550D01*
X183663220Y-138697550D02*
X183710839Y-138745169D01*
X183710839Y-138745169D02*
X183758458Y-138840407D01*
X183758458Y-138840407D02*
X183758458Y-139078502D01*
X183758458Y-139078502D02*
X183710839Y-139173740D01*
X183710839Y-139173740D02*
X183663220Y-139221359D01*
X183663220Y-139221359D02*
X183567982Y-139268978D01*
X183567982Y-139268978D02*
X183377506Y-139268978D01*
X183377506Y-139268978D02*
X183282268Y-139221359D01*
X183282268Y-139221359D02*
X183234649Y-139173740D01*
X183234649Y-139173740D02*
X183187030Y-139078502D01*
X182758458Y-139268978D02*
X181996554Y-139268978D01*
X181329887Y-138649931D02*
X181234649Y-138649931D01*
X181234649Y-138649931D02*
X181139411Y-138697550D01*
X181139411Y-138697550D02*
X181091792Y-138745169D01*
X181091792Y-138745169D02*
X181044173Y-138840407D01*
X181044173Y-138840407D02*
X180996554Y-139030883D01*
X180996554Y-139030883D02*
X180996554Y-139268978D01*
X180996554Y-139268978D02*
X181044173Y-139459454D01*
X181044173Y-139459454D02*
X181091792Y-139554692D01*
X181091792Y-139554692D02*
X181139411Y-139602312D01*
X181139411Y-139602312D02*
X181234649Y-139649931D01*
X181234649Y-139649931D02*
X181329887Y-139649931D01*
X181329887Y-139649931D02*
X181425125Y-139602312D01*
X181425125Y-139602312D02*
X181472744Y-139554692D01*
X181472744Y-139554692D02*
X181520363Y-139459454D01*
X181520363Y-139459454D02*
X181567982Y-139268978D01*
X181567982Y-139268978D02*
X181567982Y-139030883D01*
X181567982Y-139030883D02*
X181520363Y-138840407D01*
X181520363Y-138840407D02*
X181472744Y-138745169D01*
X181472744Y-138745169D02*
X181425125Y-138697550D01*
X181425125Y-138697550D02*
X181329887Y-138649931D01*
X180139411Y-138649931D02*
X180329887Y-138649931D01*
X180329887Y-138649931D02*
X180425125Y-138697550D01*
X180425125Y-138697550D02*
X180472744Y-138745169D01*
X180472744Y-138745169D02*
X180567982Y-138888026D01*
X180567982Y-138888026D02*
X180615601Y-139078502D01*
X180615601Y-139078502D02*
X180615601Y-139459454D01*
X180615601Y-139459454D02*
X180567982Y-139554692D01*
X180567982Y-139554692D02*
X180520363Y-139602312D01*
X180520363Y-139602312D02*
X180425125Y-139649931D01*
X180425125Y-139649931D02*
X180234649Y-139649931D01*
X180234649Y-139649931D02*
X180139411Y-139602312D01*
X180139411Y-139602312D02*
X180091792Y-139554692D01*
X180091792Y-139554692D02*
X180044173Y-139459454D01*
X180044173Y-139459454D02*
X180044173Y-139221359D01*
X180044173Y-139221359D02*
X180091792Y-139126121D01*
X180091792Y-139126121D02*
X180139411Y-139078502D01*
X180139411Y-139078502D02*
X180234649Y-139030883D01*
X180234649Y-139030883D02*
X180425125Y-139030883D01*
X180425125Y-139030883D02*
X180520363Y-139078502D01*
X180520363Y-139078502D02*
X180567982Y-139126121D01*
X180567982Y-139126121D02*
X180615601Y-139221359D01*
X179615601Y-139268978D02*
X178853697Y-139268978D01*
X178425125Y-138745169D02*
X178377506Y-138697550D01*
X178377506Y-138697550D02*
X178282268Y-138649931D01*
X178282268Y-138649931D02*
X178044173Y-138649931D01*
X178044173Y-138649931D02*
X177948935Y-138697550D01*
X177948935Y-138697550D02*
X177901316Y-138745169D01*
X177901316Y-138745169D02*
X177853697Y-138840407D01*
X177853697Y-138840407D02*
X177853697Y-138935645D01*
X177853697Y-138935645D02*
X177901316Y-139078502D01*
X177901316Y-139078502D02*
X178472744Y-139649931D01*
X178472744Y-139649931D02*
X177853697Y-139649931D01*
X176948935Y-138649931D02*
X177425125Y-138649931D01*
X177425125Y-138649931D02*
X177472744Y-139126121D01*
X177472744Y-139126121D02*
X177425125Y-139078502D01*
X177425125Y-139078502D02*
X177329887Y-139030883D01*
X177329887Y-139030883D02*
X177091792Y-139030883D01*
X177091792Y-139030883D02*
X176996554Y-139078502D01*
X176996554Y-139078502D02*
X176948935Y-139126121D01*
X176948935Y-139126121D02*
X176901316Y-139221359D01*
X176901316Y-139221359D02*
X176901316Y-139459454D01*
X176901316Y-139459454D02*
X176948935Y-139554692D01*
X176948935Y-139554692D02*
X176996554Y-139602312D01*
X176996554Y-139602312D02*
X177091792Y-139649931D01*
X177091792Y-139649931D02*
X177329887Y-139649931D01*
X177329887Y-139649931D02*
X177425125Y-139602312D01*
X177425125Y-139602312D02*
X177472744Y-139554692D01*
X184710839Y-140974160D02*
X184234649Y-140974160D01*
X184806077Y-141259875D02*
X184472744Y-140259875D01*
X184472744Y-140259875D02*
X184139411Y-141259875D01*
X183806077Y-140593208D02*
X183806077Y-141259875D01*
X183806077Y-140688446D02*
X183758458Y-140640827D01*
X183758458Y-140640827D02*
X183663220Y-140593208D01*
X183663220Y-140593208D02*
X183520363Y-140593208D01*
X183520363Y-140593208D02*
X183425125Y-140640827D01*
X183425125Y-140640827D02*
X183377506Y-140736065D01*
X183377506Y-140736065D02*
X183377506Y-141259875D01*
X182901315Y-141259875D02*
X182901315Y-140593208D01*
X182901315Y-140259875D02*
X182948934Y-140307494D01*
X182948934Y-140307494D02*
X182901315Y-140355113D01*
X182901315Y-140355113D02*
X182853696Y-140307494D01*
X182853696Y-140307494D02*
X182901315Y-140259875D01*
X182901315Y-140259875D02*
X182901315Y-140355113D01*
X182425125Y-141259875D02*
X182425125Y-140593208D01*
X182425125Y-140688446D02*
X182377506Y-140640827D01*
X182377506Y-140640827D02*
X182282268Y-140593208D01*
X182282268Y-140593208D02*
X182139411Y-140593208D01*
X182139411Y-140593208D02*
X182044173Y-140640827D01*
X182044173Y-140640827D02*
X181996554Y-140736065D01*
X181996554Y-140736065D02*
X181996554Y-141259875D01*
X181996554Y-140736065D02*
X181948935Y-140640827D01*
X181948935Y-140640827D02*
X181853697Y-140593208D01*
X181853697Y-140593208D02*
X181710840Y-140593208D01*
X181710840Y-140593208D02*
X181615601Y-140640827D01*
X181615601Y-140640827D02*
X181567982Y-140736065D01*
X181567982Y-140736065D02*
X181567982Y-141259875D01*
X181091792Y-141259875D02*
X181091792Y-140593208D01*
X181091792Y-140259875D02*
X181139411Y-140307494D01*
X181139411Y-140307494D02*
X181091792Y-140355113D01*
X181091792Y-140355113D02*
X181044173Y-140307494D01*
X181044173Y-140307494D02*
X181091792Y-140259875D01*
X181091792Y-140259875D02*
X181091792Y-140355113D01*
X180663221Y-141212256D02*
X180567983Y-141259875D01*
X180567983Y-141259875D02*
X180377507Y-141259875D01*
X180377507Y-141259875D02*
X180282269Y-141212256D01*
X180282269Y-141212256D02*
X180234650Y-141117017D01*
X180234650Y-141117017D02*
X180234650Y-141069398D01*
X180234650Y-141069398D02*
X180282269Y-140974160D01*
X180282269Y-140974160D02*
X180377507Y-140926541D01*
X180377507Y-140926541D02*
X180520364Y-140926541D01*
X180520364Y-140926541D02*
X180615602Y-140878922D01*
X180615602Y-140878922D02*
X180663221Y-140783684D01*
X180663221Y-140783684D02*
X180663221Y-140736065D01*
X180663221Y-140736065D02*
X180615602Y-140640827D01*
X180615602Y-140640827D02*
X180520364Y-140593208D01*
X180520364Y-140593208D02*
X180377507Y-140593208D01*
X180377507Y-140593208D02*
X180282269Y-140640827D01*
X179806078Y-141259875D02*
X179806078Y-140259875D01*
X179377507Y-141259875D02*
X179377507Y-140736065D01*
X179377507Y-140736065D02*
X179425126Y-140640827D01*
X179425126Y-140640827D02*
X179520364Y-140593208D01*
X179520364Y-140593208D02*
X179663221Y-140593208D01*
X179663221Y-140593208D02*
X179758459Y-140640827D01*
X179758459Y-140640827D02*
X179806078Y-140688446D01*
X178139411Y-141259875D02*
X178139411Y-140259875D01*
X178139411Y-140259875D02*
X177806078Y-140974160D01*
X177806078Y-140974160D02*
X177472745Y-140259875D01*
X177472745Y-140259875D02*
X177472745Y-141259875D01*
X176567983Y-140593208D02*
X176567983Y-141259875D01*
X176996554Y-140593208D02*
X176996554Y-141117017D01*
X176996554Y-141117017D02*
X176948935Y-141212256D01*
X176948935Y-141212256D02*
X176853697Y-141259875D01*
X176853697Y-141259875D02*
X176710840Y-141259875D01*
X176710840Y-141259875D02*
X176615602Y-141212256D01*
X176615602Y-141212256D02*
X176567983Y-141164636D01*
X176091792Y-141259875D02*
X176091792Y-140593208D01*
X176091792Y-140783684D02*
X176044173Y-140688446D01*
X176044173Y-140688446D02*
X175996554Y-140640827D01*
X175996554Y-140640827D02*
X175901316Y-140593208D01*
X175901316Y-140593208D02*
X175806078Y-140593208D01*
X175615601Y-140593208D02*
X175234649Y-140593208D01*
X175472744Y-140259875D02*
X175472744Y-141117017D01*
X175472744Y-141117017D02*
X175425125Y-141212256D01*
X175425125Y-141212256D02*
X175329887Y-141259875D01*
X175329887Y-141259875D02*
X175234649Y-141259875D01*
X174901315Y-141259875D02*
X174901315Y-140259875D01*
X174472744Y-141259875D02*
X174472744Y-140736065D01*
X174472744Y-140736065D02*
X174520363Y-140640827D01*
X174520363Y-140640827D02*
X174615601Y-140593208D01*
X174615601Y-140593208D02*
X174758458Y-140593208D01*
X174758458Y-140593208D02*
X174853696Y-140640827D01*
X174853696Y-140640827D02*
X174901315Y-140688446D01*
X174091791Y-140593208D02*
X173853696Y-141259875D01*
X173615601Y-140593208D02*
X173853696Y-141259875D01*
X173853696Y-141259875D02*
X173948934Y-141497970D01*
X173948934Y-141497970D02*
X173996553Y-141545589D01*
X173996553Y-141545589D02*
X174091791Y-141593208D01*
X173187029Y-141212256D02*
X173187029Y-141259875D01*
X173187029Y-141259875D02*
X173234648Y-141355113D01*
X173234648Y-141355113D02*
X173282267Y-141402732D01*
X171996553Y-141259875D02*
X171996553Y-140259875D01*
X171425125Y-141259875D02*
X171853696Y-140688446D01*
X171425125Y-140259875D02*
X171996553Y-140831303D01*
X170996553Y-141259875D02*
X170996553Y-140593208D01*
X170996553Y-140783684D02*
X170948934Y-140688446D01*
X170948934Y-140688446D02*
X170901315Y-140640827D01*
X170901315Y-140640827D02*
X170806077Y-140593208D01*
X170806077Y-140593208D02*
X170710839Y-140593208D01*
X170377505Y-141259875D02*
X170377505Y-140593208D01*
X170377505Y-140259875D02*
X170425124Y-140307494D01*
X170425124Y-140307494D02*
X170377505Y-140355113D01*
X170377505Y-140355113D02*
X170329886Y-140307494D01*
X170329886Y-140307494D02*
X170377505Y-140259875D01*
X170377505Y-140259875D02*
X170377505Y-140355113D01*
X169948934Y-141212256D02*
X169853696Y-141259875D01*
X169853696Y-141259875D02*
X169663220Y-141259875D01*
X169663220Y-141259875D02*
X169567982Y-141212256D01*
X169567982Y-141212256D02*
X169520363Y-141117017D01*
X169520363Y-141117017D02*
X169520363Y-141069398D01*
X169520363Y-141069398D02*
X169567982Y-140974160D01*
X169567982Y-140974160D02*
X169663220Y-140926541D01*
X169663220Y-140926541D02*
X169806077Y-140926541D01*
X169806077Y-140926541D02*
X169901315Y-140878922D01*
X169901315Y-140878922D02*
X169948934Y-140783684D01*
X169948934Y-140783684D02*
X169948934Y-140736065D01*
X169948934Y-140736065D02*
X169901315Y-140640827D01*
X169901315Y-140640827D02*
X169806077Y-140593208D01*
X169806077Y-140593208D02*
X169663220Y-140593208D01*
X169663220Y-140593208D02*
X169567982Y-140640827D01*
X169091791Y-141259875D02*
X169091791Y-140259875D01*
X168663220Y-141259875D02*
X168663220Y-140736065D01*
X168663220Y-140736065D02*
X168710839Y-140640827D01*
X168710839Y-140640827D02*
X168806077Y-140593208D01*
X168806077Y-140593208D02*
X168948934Y-140593208D01*
X168948934Y-140593208D02*
X169044172Y-140640827D01*
X169044172Y-140640827D02*
X169091791Y-140688446D01*
X168187029Y-140593208D02*
X168187029Y-141259875D01*
X168187029Y-140688446D02*
X168139410Y-140640827D01*
X168139410Y-140640827D02*
X168044172Y-140593208D01*
X168044172Y-140593208D02*
X167901315Y-140593208D01*
X167901315Y-140593208D02*
X167806077Y-140640827D01*
X167806077Y-140640827D02*
X167758458Y-140736065D01*
X167758458Y-140736065D02*
X167758458Y-141259875D01*
X166853696Y-141259875D02*
X166853696Y-140736065D01*
X166853696Y-140736065D02*
X166901315Y-140640827D01*
X166901315Y-140640827D02*
X166996553Y-140593208D01*
X166996553Y-140593208D02*
X167187029Y-140593208D01*
X167187029Y-140593208D02*
X167282267Y-140640827D01*
X166853696Y-141212256D02*
X166948934Y-141259875D01*
X166948934Y-141259875D02*
X167187029Y-141259875D01*
X167187029Y-141259875D02*
X167282267Y-141212256D01*
X167282267Y-141212256D02*
X167329886Y-141117017D01*
X167329886Y-141117017D02*
X167329886Y-141021779D01*
X167329886Y-141021779D02*
X167282267Y-140926541D01*
X167282267Y-140926541D02*
X167187029Y-140878922D01*
X167187029Y-140878922D02*
X166948934Y-140878922D01*
X166948934Y-140878922D02*
X166853696Y-140831303D01*
X165091791Y-140307494D02*
X165187029Y-140259875D01*
X165187029Y-140259875D02*
X165329886Y-140259875D01*
X165329886Y-140259875D02*
X165472743Y-140307494D01*
X165472743Y-140307494D02*
X165567981Y-140402732D01*
X165567981Y-140402732D02*
X165615600Y-140497970D01*
X165615600Y-140497970D02*
X165663219Y-140688446D01*
X165663219Y-140688446D02*
X165663219Y-140831303D01*
X165663219Y-140831303D02*
X165615600Y-141021779D01*
X165615600Y-141021779D02*
X165567981Y-141117017D01*
X165567981Y-141117017D02*
X165472743Y-141212256D01*
X165472743Y-141212256D02*
X165329886Y-141259875D01*
X165329886Y-141259875D02*
X165234648Y-141259875D01*
X165234648Y-141259875D02*
X165091791Y-141212256D01*
X165091791Y-141212256D02*
X165044172Y-141164636D01*
X165044172Y-141164636D02*
X165044172Y-140831303D01*
X165044172Y-140831303D02*
X165234648Y-140831303D01*
X164187029Y-140593208D02*
X164187029Y-141259875D01*
X164615600Y-140593208D02*
X164615600Y-141117017D01*
X164615600Y-141117017D02*
X164567981Y-141212256D01*
X164567981Y-141212256D02*
X164472743Y-141259875D01*
X164472743Y-141259875D02*
X164329886Y-141259875D01*
X164329886Y-141259875D02*
X164234648Y-141212256D01*
X164234648Y-141212256D02*
X164187029Y-141164636D01*
X163710838Y-140593208D02*
X163710838Y-141593208D01*
X163710838Y-140640827D02*
X163615600Y-140593208D01*
X163615600Y-140593208D02*
X163425124Y-140593208D01*
X163425124Y-140593208D02*
X163329886Y-140640827D01*
X163329886Y-140640827D02*
X163282267Y-140688446D01*
X163282267Y-140688446D02*
X163234648Y-140783684D01*
X163234648Y-140783684D02*
X163234648Y-141069398D01*
X163234648Y-141069398D02*
X163282267Y-141164636D01*
X163282267Y-141164636D02*
X163329886Y-141212256D01*
X163329886Y-141212256D02*
X163425124Y-141259875D01*
X163425124Y-141259875D02*
X163615600Y-141259875D01*
X163615600Y-141259875D02*
X163710838Y-141212256D01*
X162948933Y-140593208D02*
X162567981Y-140593208D01*
X162806076Y-140259875D02*
X162806076Y-141117017D01*
X162806076Y-141117017D02*
X162758457Y-141212256D01*
X162758457Y-141212256D02*
X162663219Y-141259875D01*
X162663219Y-141259875D02*
X162567981Y-141259875D01*
X161806076Y-141259875D02*
X161806076Y-140736065D01*
X161806076Y-140736065D02*
X161853695Y-140640827D01*
X161853695Y-140640827D02*
X161948933Y-140593208D01*
X161948933Y-140593208D02*
X162139409Y-140593208D01*
X162139409Y-140593208D02*
X162234647Y-140640827D01*
X161806076Y-141212256D02*
X161901314Y-141259875D01*
X161901314Y-141259875D02*
X162139409Y-141259875D01*
X162139409Y-141259875D02*
X162234647Y-141212256D01*
X162234647Y-141212256D02*
X162282266Y-141117017D01*
X162282266Y-141117017D02*
X162282266Y-141021779D01*
X162282266Y-141021779D02*
X162234647Y-140926541D01*
X162234647Y-140926541D02*
X162139409Y-140878922D01*
X162139409Y-140878922D02*
X161901314Y-140878922D01*
X161901314Y-140878922D02*
X161806076Y-140831303D01*
X184472744Y-141869819D02*
X184377506Y-141869819D01*
X184377506Y-141869819D02*
X184282268Y-141917438D01*
X184282268Y-141917438D02*
X184234649Y-141965057D01*
X184234649Y-141965057D02*
X184187030Y-142060295D01*
X184187030Y-142060295D02*
X184139411Y-142250771D01*
X184139411Y-142250771D02*
X184139411Y-142488866D01*
X184139411Y-142488866D02*
X184187030Y-142679342D01*
X184187030Y-142679342D02*
X184234649Y-142774580D01*
X184234649Y-142774580D02*
X184282268Y-142822200D01*
X184282268Y-142822200D02*
X184377506Y-142869819D01*
X184377506Y-142869819D02*
X184472744Y-142869819D01*
X184472744Y-142869819D02*
X184567982Y-142822200D01*
X184567982Y-142822200D02*
X184615601Y-142774580D01*
X184615601Y-142774580D02*
X184663220Y-142679342D01*
X184663220Y-142679342D02*
X184710839Y-142488866D01*
X184710839Y-142488866D02*
X184710839Y-142250771D01*
X184710839Y-142250771D02*
X184663220Y-142060295D01*
X184663220Y-142060295D02*
X184615601Y-141965057D01*
X184615601Y-141965057D02*
X184567982Y-141917438D01*
X184567982Y-141917438D02*
X184472744Y-141869819D01*
X183520363Y-141869819D02*
X183425125Y-141869819D01*
X183425125Y-141869819D02*
X183329887Y-141917438D01*
X183329887Y-141917438D02*
X183282268Y-141965057D01*
X183282268Y-141965057D02*
X183234649Y-142060295D01*
X183234649Y-142060295D02*
X183187030Y-142250771D01*
X183187030Y-142250771D02*
X183187030Y-142488866D01*
X183187030Y-142488866D02*
X183234649Y-142679342D01*
X183234649Y-142679342D02*
X183282268Y-142774580D01*
X183282268Y-142774580D02*
X183329887Y-142822200D01*
X183329887Y-142822200D02*
X183425125Y-142869819D01*
X183425125Y-142869819D02*
X183520363Y-142869819D01*
X183520363Y-142869819D02*
X183615601Y-142822200D01*
X183615601Y-142822200D02*
X183663220Y-142774580D01*
X183663220Y-142774580D02*
X183710839Y-142679342D01*
X183710839Y-142679342D02*
X183758458Y-142488866D01*
X183758458Y-142488866D02*
X183758458Y-142250771D01*
X183758458Y-142250771D02*
X183710839Y-142060295D01*
X183710839Y-142060295D02*
X183663220Y-141965057D01*
X183663220Y-141965057D02*
X183615601Y-141917438D01*
X183615601Y-141917438D02*
X183520363Y-141869819D01*
X182853696Y-141869819D02*
X182187030Y-141869819D01*
X182187030Y-141869819D02*
X182615601Y-142869819D01*
X181758458Y-142822200D02*
X181758458Y-142869819D01*
X181758458Y-142869819D02*
X181806077Y-142965057D01*
X181806077Y-142965057D02*
X181853696Y-143012676D01*
X180567982Y-142869819D02*
X180567982Y-141869819D01*
X180567982Y-141869819D02*
X180234649Y-142584104D01*
X180234649Y-142584104D02*
X179901316Y-141869819D01*
X179901316Y-141869819D02*
X179901316Y-142869819D01*
X179425125Y-142869819D02*
X179425125Y-141869819D01*
X178520364Y-141869819D02*
X178710840Y-141869819D01*
X178710840Y-141869819D02*
X178806078Y-141917438D01*
X178806078Y-141917438D02*
X178853697Y-141965057D01*
X178853697Y-141965057D02*
X178948935Y-142107914D01*
X178948935Y-142107914D02*
X178996554Y-142298390D01*
X178996554Y-142298390D02*
X178996554Y-142679342D01*
X178996554Y-142679342D02*
X178948935Y-142774580D01*
X178948935Y-142774580D02*
X178901316Y-142822200D01*
X178901316Y-142822200D02*
X178806078Y-142869819D01*
X178806078Y-142869819D02*
X178615602Y-142869819D01*
X178615602Y-142869819D02*
X178520364Y-142822200D01*
X178520364Y-142822200D02*
X178472745Y-142774580D01*
X178472745Y-142774580D02*
X178425126Y-142679342D01*
X178425126Y-142679342D02*
X178425126Y-142441247D01*
X178425126Y-142441247D02*
X178472745Y-142346009D01*
X178472745Y-142346009D02*
X178520364Y-142298390D01*
X178520364Y-142298390D02*
X178615602Y-142250771D01*
X178615602Y-142250771D02*
X178806078Y-142250771D01*
X178806078Y-142250771D02*
X178901316Y-142298390D01*
X178901316Y-142298390D02*
X178948935Y-142346009D01*
X178948935Y-142346009D02*
X178996554Y-142441247D01*
X123595238Y-83384819D02*
X123928571Y-82908628D01*
X124166666Y-83384819D02*
X124166666Y-82384819D01*
X124166666Y-82384819D02*
X123785714Y-82384819D01*
X123785714Y-82384819D02*
X123690476Y-82432438D01*
X123690476Y-82432438D02*
X123642857Y-82480057D01*
X123642857Y-82480057D02*
X123595238Y-82575295D01*
X123595238Y-82575295D02*
X123595238Y-82718152D01*
X123595238Y-82718152D02*
X123642857Y-82813390D01*
X123642857Y-82813390D02*
X123690476Y-82861009D01*
X123690476Y-82861009D02*
X123785714Y-82908628D01*
X123785714Y-82908628D02*
X124166666Y-82908628D01*
X123309523Y-82384819D02*
X122976190Y-83384819D01*
X122976190Y-83384819D02*
X122642857Y-82384819D01*
X122357142Y-82480057D02*
X122309523Y-82432438D01*
X122309523Y-82432438D02*
X122214285Y-82384819D01*
X122214285Y-82384819D02*
X121976190Y-82384819D01*
X121976190Y-82384819D02*
X121880952Y-82432438D01*
X121880952Y-82432438D02*
X121833333Y-82480057D01*
X121833333Y-82480057D02*
X121785714Y-82575295D01*
X121785714Y-82575295D02*
X121785714Y-82670533D01*
X121785714Y-82670533D02*
X121833333Y-82813390D01*
X121833333Y-82813390D02*
X122404761Y-83384819D01*
X122404761Y-83384819D02*
X121785714Y-83384819D01*
X187738094Y-67954819D02*
X187166666Y-67954819D01*
X187452380Y-68954819D02*
X187452380Y-67954819D01*
X186833332Y-68954819D02*
X186833332Y-67954819D01*
X186833332Y-67954819D02*
X186452380Y-67954819D01*
X186452380Y-67954819D02*
X186357142Y-68002438D01*
X186357142Y-68002438D02*
X186309523Y-68050057D01*
X186309523Y-68050057D02*
X186261904Y-68145295D01*
X186261904Y-68145295D02*
X186261904Y-68288152D01*
X186261904Y-68288152D02*
X186309523Y-68383390D01*
X186309523Y-68383390D02*
X186357142Y-68431009D01*
X186357142Y-68431009D02*
X186452380Y-68478628D01*
X186452380Y-68478628D02*
X186833332Y-68478628D01*
X185309523Y-68954819D02*
X185880951Y-68954819D01*
X185595237Y-68954819D02*
X185595237Y-67954819D01*
X185595237Y-67954819D02*
X185690475Y-68097676D01*
X185690475Y-68097676D02*
X185785713Y-68192914D01*
X185785713Y-68192914D02*
X185880951Y-68240533D01*
X184928570Y-68050057D02*
X184880951Y-68002438D01*
X184880951Y-68002438D02*
X184785713Y-67954819D01*
X184785713Y-67954819D02*
X184547618Y-67954819D01*
X184547618Y-67954819D02*
X184452380Y-68002438D01*
X184452380Y-68002438D02*
X184404761Y-68050057D01*
X184404761Y-68050057D02*
X184357142Y-68145295D01*
X184357142Y-68145295D02*
X184357142Y-68240533D01*
X184357142Y-68240533D02*
X184404761Y-68383390D01*
X184404761Y-68383390D02*
X184976189Y-68954819D01*
X184976189Y-68954819D02*
X184357142Y-68954819D01*
X108916666Y-128959580D02*
X108964285Y-129007200D01*
X108964285Y-129007200D02*
X109107142Y-129054819D01*
X109107142Y-129054819D02*
X109202380Y-129054819D01*
X109202380Y-129054819D02*
X109345237Y-129007200D01*
X109345237Y-129007200D02*
X109440475Y-128911961D01*
X109440475Y-128911961D02*
X109488094Y-128816723D01*
X109488094Y-128816723D02*
X109535713Y-128626247D01*
X109535713Y-128626247D02*
X109535713Y-128483390D01*
X109535713Y-128483390D02*
X109488094Y-128292914D01*
X109488094Y-128292914D02*
X109440475Y-128197676D01*
X109440475Y-128197676D02*
X109345237Y-128102438D01*
X109345237Y-128102438D02*
X109202380Y-128054819D01*
X109202380Y-128054819D02*
X109107142Y-128054819D01*
X109107142Y-128054819D02*
X108964285Y-128102438D01*
X108964285Y-128102438D02*
X108916666Y-128150057D01*
X108059523Y-128054819D02*
X108249999Y-128054819D01*
X108249999Y-128054819D02*
X108345237Y-128102438D01*
X108345237Y-128102438D02*
X108392856Y-128150057D01*
X108392856Y-128150057D02*
X108488094Y-128292914D01*
X108488094Y-128292914D02*
X108535713Y-128483390D01*
X108535713Y-128483390D02*
X108535713Y-128864342D01*
X108535713Y-128864342D02*
X108488094Y-128959580D01*
X108488094Y-128959580D02*
X108440475Y-129007200D01*
X108440475Y-129007200D02*
X108345237Y-129054819D01*
X108345237Y-129054819D02*
X108154761Y-129054819D01*
X108154761Y-129054819D02*
X108059523Y-129007200D01*
X108059523Y-129007200D02*
X108011904Y-128959580D01*
X108011904Y-128959580D02*
X107964285Y-128864342D01*
X107964285Y-128864342D02*
X107964285Y-128626247D01*
X107964285Y-128626247D02*
X108011904Y-128531009D01*
X108011904Y-128531009D02*
X108059523Y-128483390D01*
X108059523Y-128483390D02*
X108154761Y-128435771D01*
X108154761Y-128435771D02*
X108345237Y-128435771D01*
X108345237Y-128435771D02*
X108440475Y-128483390D01*
X108440475Y-128483390D02*
X108488094Y-128531009D01*
X108488094Y-128531009D02*
X108535713Y-128626247D01*
X167261904Y-118214819D02*
X166690476Y-118214819D01*
X166976190Y-119214819D02*
X166976190Y-118214819D01*
X166357142Y-119214819D02*
X166357142Y-118214819D01*
X166357142Y-118214819D02*
X165976190Y-118214819D01*
X165976190Y-118214819D02*
X165880952Y-118262438D01*
X165880952Y-118262438D02*
X165833333Y-118310057D01*
X165833333Y-118310057D02*
X165785714Y-118405295D01*
X165785714Y-118405295D02*
X165785714Y-118548152D01*
X165785714Y-118548152D02*
X165833333Y-118643390D01*
X165833333Y-118643390D02*
X165880952Y-118691009D01*
X165880952Y-118691009D02*
X165976190Y-118738628D01*
X165976190Y-118738628D02*
X166357142Y-118738628D01*
X164928571Y-118548152D02*
X164928571Y-119214819D01*
X165166666Y-118167200D02*
X165404761Y-118881485D01*
X165404761Y-118881485D02*
X164785714Y-118881485D01*
D11*
X172106190Y-104767761D02*
X172106190Y-103148714D01*
X172106190Y-103148714D02*
X172201428Y-102958238D01*
X172201428Y-102958238D02*
X172296666Y-102863000D01*
X172296666Y-102863000D02*
X172487142Y-102767761D01*
X172487142Y-102767761D02*
X172868095Y-102767761D01*
X172868095Y-102767761D02*
X173058571Y-102863000D01*
X173058571Y-102863000D02*
X173153809Y-102958238D01*
X173153809Y-102958238D02*
X173249047Y-103148714D01*
X173249047Y-103148714D02*
X173249047Y-104767761D01*
X174106190Y-104577285D02*
X174201428Y-104672523D01*
X174201428Y-104672523D02*
X174391904Y-104767761D01*
X174391904Y-104767761D02*
X174868095Y-104767761D01*
X174868095Y-104767761D02*
X175058571Y-104672523D01*
X175058571Y-104672523D02*
X175153809Y-104577285D01*
X175153809Y-104577285D02*
X175249047Y-104386809D01*
X175249047Y-104386809D02*
X175249047Y-104196333D01*
X175249047Y-104196333D02*
X175153809Y-103910619D01*
X175153809Y-103910619D02*
X174010952Y-102767761D01*
X174010952Y-102767761D02*
X175249047Y-102767761D01*
D10*
X102166666Y-77049580D02*
X102214285Y-77097200D01*
X102214285Y-77097200D02*
X102357142Y-77144819D01*
X102357142Y-77144819D02*
X102452380Y-77144819D01*
X102452380Y-77144819D02*
X102595237Y-77097200D01*
X102595237Y-77097200D02*
X102690475Y-77001961D01*
X102690475Y-77001961D02*
X102738094Y-76906723D01*
X102738094Y-76906723D02*
X102785713Y-76716247D01*
X102785713Y-76716247D02*
X102785713Y-76573390D01*
X102785713Y-76573390D02*
X102738094Y-76382914D01*
X102738094Y-76382914D02*
X102690475Y-76287676D01*
X102690475Y-76287676D02*
X102595237Y-76192438D01*
X102595237Y-76192438D02*
X102452380Y-76144819D01*
X102452380Y-76144819D02*
X102357142Y-76144819D01*
X102357142Y-76144819D02*
X102214285Y-76192438D01*
X102214285Y-76192438D02*
X102166666Y-76240057D01*
X101833332Y-76144819D02*
X101166666Y-76144819D01*
X101166666Y-76144819D02*
X101595237Y-77144819D01*
X118486904Y-111579819D02*
X118486904Y-112389342D01*
X118486904Y-112389342D02*
X118439285Y-112484580D01*
X118439285Y-112484580D02*
X118391666Y-112532200D01*
X118391666Y-112532200D02*
X118296428Y-112579819D01*
X118296428Y-112579819D02*
X118105952Y-112579819D01*
X118105952Y-112579819D02*
X118010714Y-112532200D01*
X118010714Y-112532200D02*
X117963095Y-112484580D01*
X117963095Y-112484580D02*
X117915476Y-112389342D01*
X117915476Y-112389342D02*
X117915476Y-111579819D01*
X117534523Y-111579819D02*
X116915476Y-111579819D01*
X116915476Y-111579819D02*
X117248809Y-111960771D01*
X117248809Y-111960771D02*
X117105952Y-111960771D01*
X117105952Y-111960771D02*
X117010714Y-112008390D01*
X117010714Y-112008390D02*
X116963095Y-112056009D01*
X116963095Y-112056009D02*
X116915476Y-112151247D01*
X116915476Y-112151247D02*
X116915476Y-112389342D01*
X116915476Y-112389342D02*
X116963095Y-112484580D01*
X116963095Y-112484580D02*
X117010714Y-112532200D01*
X117010714Y-112532200D02*
X117105952Y-112579819D01*
X117105952Y-112579819D02*
X117391666Y-112579819D01*
X117391666Y-112579819D02*
X117486904Y-112532200D01*
X117486904Y-112532200D02*
X117534523Y-112484580D01*
X179261904Y-103214819D02*
X178690476Y-103214819D01*
X178976190Y-104214819D02*
X178976190Y-103214819D01*
X178357142Y-104214819D02*
X178357142Y-103214819D01*
X178357142Y-103214819D02*
X177976190Y-103214819D01*
X177976190Y-103214819D02*
X177880952Y-103262438D01*
X177880952Y-103262438D02*
X177833333Y-103310057D01*
X177833333Y-103310057D02*
X177785714Y-103405295D01*
X177785714Y-103405295D02*
X177785714Y-103548152D01*
X177785714Y-103548152D02*
X177833333Y-103643390D01*
X177833333Y-103643390D02*
X177880952Y-103691009D01*
X177880952Y-103691009D02*
X177976190Y-103738628D01*
X177976190Y-103738628D02*
X178357142Y-103738628D01*
X176880952Y-103214819D02*
X177357142Y-103214819D01*
X177357142Y-103214819D02*
X177404761Y-103691009D01*
X177404761Y-103691009D02*
X177357142Y-103643390D01*
X177357142Y-103643390D02*
X177261904Y-103595771D01*
X177261904Y-103595771D02*
X177023809Y-103595771D01*
X177023809Y-103595771D02*
X176928571Y-103643390D01*
X176928571Y-103643390D02*
X176880952Y-103691009D01*
X176880952Y-103691009D02*
X176833333Y-103786247D01*
X176833333Y-103786247D02*
X176833333Y-104024342D01*
X176833333Y-104024342D02*
X176880952Y-104119580D01*
X176880952Y-104119580D02*
X176928571Y-104167200D01*
X176928571Y-104167200D02*
X177023809Y-104214819D01*
X177023809Y-104214819D02*
X177261904Y-104214819D01*
X177261904Y-104214819D02*
X177357142Y-104167200D01*
X177357142Y-104167200D02*
X177404761Y-104119580D01*
X98916666Y-90959580D02*
X98964285Y-91007200D01*
X98964285Y-91007200D02*
X99107142Y-91054819D01*
X99107142Y-91054819D02*
X99202380Y-91054819D01*
X99202380Y-91054819D02*
X99345237Y-91007200D01*
X99345237Y-91007200D02*
X99440475Y-90911961D01*
X99440475Y-90911961D02*
X99488094Y-90816723D01*
X99488094Y-90816723D02*
X99535713Y-90626247D01*
X99535713Y-90626247D02*
X99535713Y-90483390D01*
X99535713Y-90483390D02*
X99488094Y-90292914D01*
X99488094Y-90292914D02*
X99440475Y-90197676D01*
X99440475Y-90197676D02*
X99345237Y-90102438D01*
X99345237Y-90102438D02*
X99202380Y-90054819D01*
X99202380Y-90054819D02*
X99107142Y-90054819D01*
X99107142Y-90054819D02*
X98964285Y-90102438D01*
X98964285Y-90102438D02*
X98916666Y-90150057D01*
X98583332Y-90054819D02*
X97964285Y-90054819D01*
X97964285Y-90054819D02*
X98297618Y-90435771D01*
X98297618Y-90435771D02*
X98154761Y-90435771D01*
X98154761Y-90435771D02*
X98059523Y-90483390D01*
X98059523Y-90483390D02*
X98011904Y-90531009D01*
X98011904Y-90531009D02*
X97964285Y-90626247D01*
X97964285Y-90626247D02*
X97964285Y-90864342D01*
X97964285Y-90864342D02*
X98011904Y-90959580D01*
X98011904Y-90959580D02*
X98059523Y-91007200D01*
X98059523Y-91007200D02*
X98154761Y-91054819D01*
X98154761Y-91054819D02*
X98440475Y-91054819D01*
X98440475Y-91054819D02*
X98535713Y-91007200D01*
X98535713Y-91007200D02*
X98583332Y-90959580D01*
X189738094Y-112954819D02*
X189166666Y-112954819D01*
X189452380Y-113954819D02*
X189452380Y-112954819D01*
X188833332Y-113954819D02*
X188833332Y-112954819D01*
X188833332Y-112954819D02*
X188452380Y-112954819D01*
X188452380Y-112954819D02*
X188357142Y-113002438D01*
X188357142Y-113002438D02*
X188309523Y-113050057D01*
X188309523Y-113050057D02*
X188261904Y-113145295D01*
X188261904Y-113145295D02*
X188261904Y-113288152D01*
X188261904Y-113288152D02*
X188309523Y-113383390D01*
X188309523Y-113383390D02*
X188357142Y-113431009D01*
X188357142Y-113431009D02*
X188452380Y-113478628D01*
X188452380Y-113478628D02*
X188833332Y-113478628D01*
X187309523Y-113954819D02*
X187880951Y-113954819D01*
X187595237Y-113954819D02*
X187595237Y-112954819D01*
X187595237Y-112954819D02*
X187690475Y-113097676D01*
X187690475Y-113097676D02*
X187785713Y-113192914D01*
X187785713Y-113192914D02*
X187880951Y-113240533D01*
X186976189Y-112954819D02*
X186357142Y-112954819D01*
X186357142Y-112954819D02*
X186690475Y-113335771D01*
X186690475Y-113335771D02*
X186547618Y-113335771D01*
X186547618Y-113335771D02*
X186452380Y-113383390D01*
X186452380Y-113383390D02*
X186404761Y-113431009D01*
X186404761Y-113431009D02*
X186357142Y-113526247D01*
X186357142Y-113526247D02*
X186357142Y-113764342D01*
X186357142Y-113764342D02*
X186404761Y-113859580D01*
X186404761Y-113859580D02*
X186452380Y-113907200D01*
X186452380Y-113907200D02*
X186547618Y-113954819D01*
X186547618Y-113954819D02*
X186833332Y-113954819D01*
X186833332Y-113954819D02*
X186928570Y-113907200D01*
X186928570Y-113907200D02*
X186976189Y-113859580D01*
X119261904Y-87214819D02*
X118690476Y-87214819D01*
X118976190Y-88214819D02*
X118976190Y-87214819D01*
X118357142Y-88214819D02*
X118357142Y-87214819D01*
X118357142Y-87214819D02*
X117976190Y-87214819D01*
X117976190Y-87214819D02*
X117880952Y-87262438D01*
X117880952Y-87262438D02*
X117833333Y-87310057D01*
X117833333Y-87310057D02*
X117785714Y-87405295D01*
X117785714Y-87405295D02*
X117785714Y-87548152D01*
X117785714Y-87548152D02*
X117833333Y-87643390D01*
X117833333Y-87643390D02*
X117880952Y-87691009D01*
X117880952Y-87691009D02*
X117976190Y-87738628D01*
X117976190Y-87738628D02*
X118357142Y-87738628D01*
X116928571Y-87214819D02*
X117119047Y-87214819D01*
X117119047Y-87214819D02*
X117214285Y-87262438D01*
X117214285Y-87262438D02*
X117261904Y-87310057D01*
X117261904Y-87310057D02*
X117357142Y-87452914D01*
X117357142Y-87452914D02*
X117404761Y-87643390D01*
X117404761Y-87643390D02*
X117404761Y-88024342D01*
X117404761Y-88024342D02*
X117357142Y-88119580D01*
X117357142Y-88119580D02*
X117309523Y-88167200D01*
X117309523Y-88167200D02*
X117214285Y-88214819D01*
X117214285Y-88214819D02*
X117023809Y-88214819D01*
X117023809Y-88214819D02*
X116928571Y-88167200D01*
X116928571Y-88167200D02*
X116880952Y-88119580D01*
X116880952Y-88119580D02*
X116833333Y-88024342D01*
X116833333Y-88024342D02*
X116833333Y-87786247D01*
X116833333Y-87786247D02*
X116880952Y-87691009D01*
X116880952Y-87691009D02*
X116928571Y-87643390D01*
X116928571Y-87643390D02*
X117023809Y-87595771D01*
X117023809Y-87595771D02*
X117214285Y-87595771D01*
X117214285Y-87595771D02*
X117309523Y-87643390D01*
X117309523Y-87643390D02*
X117357142Y-87691009D01*
X117357142Y-87691009D02*
X117404761Y-87786247D01*
X106261904Y-96954819D02*
X105690476Y-96954819D01*
X105976190Y-97954819D02*
X105976190Y-96954819D01*
X105357142Y-97954819D02*
X105357142Y-96954819D01*
X105357142Y-96954819D02*
X104976190Y-96954819D01*
X104976190Y-96954819D02*
X104880952Y-97002438D01*
X104880952Y-97002438D02*
X104833333Y-97050057D01*
X104833333Y-97050057D02*
X104785714Y-97145295D01*
X104785714Y-97145295D02*
X104785714Y-97288152D01*
X104785714Y-97288152D02*
X104833333Y-97383390D01*
X104833333Y-97383390D02*
X104880952Y-97431009D01*
X104880952Y-97431009D02*
X104976190Y-97478628D01*
X104976190Y-97478628D02*
X105357142Y-97478628D01*
X104309523Y-97954819D02*
X104119047Y-97954819D01*
X104119047Y-97954819D02*
X104023809Y-97907200D01*
X104023809Y-97907200D02*
X103976190Y-97859580D01*
X103976190Y-97859580D02*
X103880952Y-97716723D01*
X103880952Y-97716723D02*
X103833333Y-97526247D01*
X103833333Y-97526247D02*
X103833333Y-97145295D01*
X103833333Y-97145295D02*
X103880952Y-97050057D01*
X103880952Y-97050057D02*
X103928571Y-97002438D01*
X103928571Y-97002438D02*
X104023809Y-96954819D01*
X104023809Y-96954819D02*
X104214285Y-96954819D01*
X104214285Y-96954819D02*
X104309523Y-97002438D01*
X104309523Y-97002438D02*
X104357142Y-97050057D01*
X104357142Y-97050057D02*
X104404761Y-97145295D01*
X104404761Y-97145295D02*
X104404761Y-97383390D01*
X104404761Y-97383390D02*
X104357142Y-97478628D01*
X104357142Y-97478628D02*
X104309523Y-97526247D01*
X104309523Y-97526247D02*
X104214285Y-97573866D01*
X104214285Y-97573866D02*
X104023809Y-97573866D01*
X104023809Y-97573866D02*
X103928571Y-97526247D01*
X103928571Y-97526247D02*
X103880952Y-97478628D01*
X103880952Y-97478628D02*
X103833333Y-97383390D01*
X113456904Y-64129819D02*
X113456904Y-64939342D01*
X113456904Y-64939342D02*
X113409285Y-65034580D01*
X113409285Y-65034580D02*
X113361666Y-65082200D01*
X113361666Y-65082200D02*
X113266428Y-65129819D01*
X113266428Y-65129819D02*
X113075952Y-65129819D01*
X113075952Y-65129819D02*
X112980714Y-65082200D01*
X112980714Y-65082200D02*
X112933095Y-65034580D01*
X112933095Y-65034580D02*
X112885476Y-64939342D01*
X112885476Y-64939342D02*
X112885476Y-64129819D01*
X111980714Y-64463152D02*
X111980714Y-65129819D01*
X112218809Y-64082200D02*
X112456904Y-64796485D01*
X112456904Y-64796485D02*
X111837857Y-64796485D01*
X127261904Y-115214819D02*
X126690476Y-115214819D01*
X126976190Y-116214819D02*
X126976190Y-115214819D01*
X126357142Y-116214819D02*
X126357142Y-115214819D01*
X126357142Y-115214819D02*
X125976190Y-115214819D01*
X125976190Y-115214819D02*
X125880952Y-115262438D01*
X125880952Y-115262438D02*
X125833333Y-115310057D01*
X125833333Y-115310057D02*
X125785714Y-115405295D01*
X125785714Y-115405295D02*
X125785714Y-115548152D01*
X125785714Y-115548152D02*
X125833333Y-115643390D01*
X125833333Y-115643390D02*
X125880952Y-115691009D01*
X125880952Y-115691009D02*
X125976190Y-115738628D01*
X125976190Y-115738628D02*
X126357142Y-115738628D01*
X125452380Y-115214819D02*
X124785714Y-115214819D01*
X124785714Y-115214819D02*
X125214285Y-116214819D01*
X185738094Y-103214819D02*
X185166666Y-103214819D01*
X185452380Y-104214819D02*
X185452380Y-103214819D01*
X184833332Y-104214819D02*
X184833332Y-103214819D01*
X184833332Y-103214819D02*
X184452380Y-103214819D01*
X184452380Y-103214819D02*
X184357142Y-103262438D01*
X184357142Y-103262438D02*
X184309523Y-103310057D01*
X184309523Y-103310057D02*
X184261904Y-103405295D01*
X184261904Y-103405295D02*
X184261904Y-103548152D01*
X184261904Y-103548152D02*
X184309523Y-103643390D01*
X184309523Y-103643390D02*
X184357142Y-103691009D01*
X184357142Y-103691009D02*
X184452380Y-103738628D01*
X184452380Y-103738628D02*
X184833332Y-103738628D01*
X183309523Y-104214819D02*
X183880951Y-104214819D01*
X183595237Y-104214819D02*
X183595237Y-103214819D01*
X183595237Y-103214819D02*
X183690475Y-103357676D01*
X183690475Y-103357676D02*
X183785713Y-103452914D01*
X183785713Y-103452914D02*
X183880951Y-103500533D01*
X182690475Y-103214819D02*
X182595237Y-103214819D01*
X182595237Y-103214819D02*
X182499999Y-103262438D01*
X182499999Y-103262438D02*
X182452380Y-103310057D01*
X182452380Y-103310057D02*
X182404761Y-103405295D01*
X182404761Y-103405295D02*
X182357142Y-103595771D01*
X182357142Y-103595771D02*
X182357142Y-103833866D01*
X182357142Y-103833866D02*
X182404761Y-104024342D01*
X182404761Y-104024342D02*
X182452380Y-104119580D01*
X182452380Y-104119580D02*
X182499999Y-104167200D01*
X182499999Y-104167200D02*
X182595237Y-104214819D01*
X182595237Y-104214819D02*
X182690475Y-104214819D01*
X182690475Y-104214819D02*
X182785713Y-104167200D01*
X182785713Y-104167200D02*
X182833332Y-104119580D01*
X182833332Y-104119580D02*
X182880951Y-104024342D01*
X182880951Y-104024342D02*
X182928570Y-103833866D01*
X182928570Y-103833866D02*
X182928570Y-103595771D01*
X182928570Y-103595771D02*
X182880951Y-103405295D01*
X182880951Y-103405295D02*
X182833332Y-103310057D01*
X182833332Y-103310057D02*
X182785713Y-103262438D01*
X182785713Y-103262438D02*
X182690475Y-103214819D01*
X118392857Y-77959580D02*
X118440476Y-78007200D01*
X118440476Y-78007200D02*
X118583333Y-78054819D01*
X118583333Y-78054819D02*
X118678571Y-78054819D01*
X118678571Y-78054819D02*
X118821428Y-78007200D01*
X118821428Y-78007200D02*
X118916666Y-77911961D01*
X118916666Y-77911961D02*
X118964285Y-77816723D01*
X118964285Y-77816723D02*
X119011904Y-77626247D01*
X119011904Y-77626247D02*
X119011904Y-77483390D01*
X119011904Y-77483390D02*
X118964285Y-77292914D01*
X118964285Y-77292914D02*
X118916666Y-77197676D01*
X118916666Y-77197676D02*
X118821428Y-77102438D01*
X118821428Y-77102438D02*
X118678571Y-77054819D01*
X118678571Y-77054819D02*
X118583333Y-77054819D01*
X118583333Y-77054819D02*
X118440476Y-77102438D01*
X118440476Y-77102438D02*
X118392857Y-77150057D01*
X117440476Y-78054819D02*
X118011904Y-78054819D01*
X117726190Y-78054819D02*
X117726190Y-77054819D01*
X117726190Y-77054819D02*
X117821428Y-77197676D01*
X117821428Y-77197676D02*
X117916666Y-77292914D01*
X117916666Y-77292914D02*
X118011904Y-77340533D01*
X116583333Y-77054819D02*
X116773809Y-77054819D01*
X116773809Y-77054819D02*
X116869047Y-77102438D01*
X116869047Y-77102438D02*
X116916666Y-77150057D01*
X116916666Y-77150057D02*
X117011904Y-77292914D01*
X117011904Y-77292914D02*
X117059523Y-77483390D01*
X117059523Y-77483390D02*
X117059523Y-77864342D01*
X117059523Y-77864342D02*
X117011904Y-77959580D01*
X117011904Y-77959580D02*
X116964285Y-78007200D01*
X116964285Y-78007200D02*
X116869047Y-78054819D01*
X116869047Y-78054819D02*
X116678571Y-78054819D01*
X116678571Y-78054819D02*
X116583333Y-78007200D01*
X116583333Y-78007200D02*
X116535714Y-77959580D01*
X116535714Y-77959580D02*
X116488095Y-77864342D01*
X116488095Y-77864342D02*
X116488095Y-77626247D01*
X116488095Y-77626247D02*
X116535714Y-77531009D01*
X116535714Y-77531009D02*
X116583333Y-77483390D01*
X116583333Y-77483390D02*
X116678571Y-77435771D01*
X116678571Y-77435771D02*
X116869047Y-77435771D01*
X116869047Y-77435771D02*
X116964285Y-77483390D01*
X116964285Y-77483390D02*
X117011904Y-77531009D01*
X117011904Y-77531009D02*
X117059523Y-77626247D01*
X107084819Y-94173333D02*
X106608628Y-93840000D01*
X107084819Y-93601905D02*
X106084819Y-93601905D01*
X106084819Y-93601905D02*
X106084819Y-93982857D01*
X106084819Y-93982857D02*
X106132438Y-94078095D01*
X106132438Y-94078095D02*
X106180057Y-94125714D01*
X106180057Y-94125714D02*
X106275295Y-94173333D01*
X106275295Y-94173333D02*
X106418152Y-94173333D01*
X106418152Y-94173333D02*
X106513390Y-94125714D01*
X106513390Y-94125714D02*
X106561009Y-94078095D01*
X106561009Y-94078095D02*
X106608628Y-93982857D01*
X106608628Y-93982857D02*
X106608628Y-93601905D01*
X107084819Y-95125714D02*
X107084819Y-94554286D01*
X107084819Y-94840000D02*
X106084819Y-94840000D01*
X106084819Y-94840000D02*
X106227676Y-94744762D01*
X106227676Y-94744762D02*
X106322914Y-94649524D01*
X106322914Y-94649524D02*
X106370533Y-94554286D01*
X190333333Y-85124819D02*
X190333333Y-85839104D01*
X190333333Y-85839104D02*
X190380952Y-85981961D01*
X190380952Y-85981961D02*
X190476190Y-86077200D01*
X190476190Y-86077200D02*
X190619047Y-86124819D01*
X190619047Y-86124819D02*
X190714285Y-86124819D01*
X189333333Y-86124819D02*
X189904761Y-86124819D01*
X189619047Y-86124819D02*
X189619047Y-85124819D01*
X189619047Y-85124819D02*
X189714285Y-85267676D01*
X189714285Y-85267676D02*
X189809523Y-85362914D01*
X189809523Y-85362914D02*
X189904761Y-85410533D01*
X117261904Y-125214819D02*
X116690476Y-125214819D01*
X116976190Y-126214819D02*
X116976190Y-125214819D01*
X116357142Y-126214819D02*
X116357142Y-125214819D01*
X116357142Y-125214819D02*
X115976190Y-125214819D01*
X115976190Y-125214819D02*
X115880952Y-125262438D01*
X115880952Y-125262438D02*
X115833333Y-125310057D01*
X115833333Y-125310057D02*
X115785714Y-125405295D01*
X115785714Y-125405295D02*
X115785714Y-125548152D01*
X115785714Y-125548152D02*
X115833333Y-125643390D01*
X115833333Y-125643390D02*
X115880952Y-125691009D01*
X115880952Y-125691009D02*
X115976190Y-125738628D01*
X115976190Y-125738628D02*
X116357142Y-125738628D01*
X115214285Y-125643390D02*
X115309523Y-125595771D01*
X115309523Y-125595771D02*
X115357142Y-125548152D01*
X115357142Y-125548152D02*
X115404761Y-125452914D01*
X115404761Y-125452914D02*
X115404761Y-125405295D01*
X115404761Y-125405295D02*
X115357142Y-125310057D01*
X115357142Y-125310057D02*
X115309523Y-125262438D01*
X115309523Y-125262438D02*
X115214285Y-125214819D01*
X115214285Y-125214819D02*
X115023809Y-125214819D01*
X115023809Y-125214819D02*
X114928571Y-125262438D01*
X114928571Y-125262438D02*
X114880952Y-125310057D01*
X114880952Y-125310057D02*
X114833333Y-125405295D01*
X114833333Y-125405295D02*
X114833333Y-125452914D01*
X114833333Y-125452914D02*
X114880952Y-125548152D01*
X114880952Y-125548152D02*
X114928571Y-125595771D01*
X114928571Y-125595771D02*
X115023809Y-125643390D01*
X115023809Y-125643390D02*
X115214285Y-125643390D01*
X115214285Y-125643390D02*
X115309523Y-125691009D01*
X115309523Y-125691009D02*
X115357142Y-125738628D01*
X115357142Y-125738628D02*
X115404761Y-125833866D01*
X115404761Y-125833866D02*
X115404761Y-126024342D01*
X115404761Y-126024342D02*
X115357142Y-126119580D01*
X115357142Y-126119580D02*
X115309523Y-126167200D01*
X115309523Y-126167200D02*
X115214285Y-126214819D01*
X115214285Y-126214819D02*
X115023809Y-126214819D01*
X115023809Y-126214819D02*
X114928571Y-126167200D01*
X114928571Y-126167200D02*
X114880952Y-126119580D01*
X114880952Y-126119580D02*
X114833333Y-126024342D01*
X114833333Y-126024342D02*
X114833333Y-125833866D01*
X114833333Y-125833866D02*
X114880952Y-125738628D01*
X114880952Y-125738628D02*
X114928571Y-125691009D01*
X114928571Y-125691009D02*
X115023809Y-125643390D01*
X106714819Y-123857142D02*
X106714819Y-123380952D01*
X106714819Y-123380952D02*
X105714819Y-123380952D01*
X106667200Y-124142857D02*
X106714819Y-124285714D01*
X106714819Y-124285714D02*
X106714819Y-124523809D01*
X106714819Y-124523809D02*
X106667200Y-124619047D01*
X106667200Y-124619047D02*
X106619580Y-124666666D01*
X106619580Y-124666666D02*
X106524342Y-124714285D01*
X106524342Y-124714285D02*
X106429104Y-124714285D01*
X106429104Y-124714285D02*
X106333866Y-124666666D01*
X106333866Y-124666666D02*
X106286247Y-124619047D01*
X106286247Y-124619047D02*
X106238628Y-124523809D01*
X106238628Y-124523809D02*
X106191009Y-124333333D01*
X106191009Y-124333333D02*
X106143390Y-124238095D01*
X106143390Y-124238095D02*
X106095771Y-124190476D01*
X106095771Y-124190476D02*
X106000533Y-124142857D01*
X106000533Y-124142857D02*
X105905295Y-124142857D01*
X105905295Y-124142857D02*
X105810057Y-124190476D01*
X105810057Y-124190476D02*
X105762438Y-124238095D01*
X105762438Y-124238095D02*
X105714819Y-124333333D01*
X105714819Y-124333333D02*
X105714819Y-124571428D01*
X105714819Y-124571428D02*
X105762438Y-124714285D01*
X106714819Y-125666666D02*
X106714819Y-125095238D01*
X106714819Y-125380952D02*
X105714819Y-125380952D01*
X105714819Y-125380952D02*
X105857676Y-125285714D01*
X105857676Y-125285714D02*
X105952914Y-125190476D01*
X105952914Y-125190476D02*
X106000533Y-125095238D01*
X125392857Y-124219580D02*
X125440476Y-124267200D01*
X125440476Y-124267200D02*
X125583333Y-124314819D01*
X125583333Y-124314819D02*
X125678571Y-124314819D01*
X125678571Y-124314819D02*
X125821428Y-124267200D01*
X125821428Y-124267200D02*
X125916666Y-124171961D01*
X125916666Y-124171961D02*
X125964285Y-124076723D01*
X125964285Y-124076723D02*
X126011904Y-123886247D01*
X126011904Y-123886247D02*
X126011904Y-123743390D01*
X126011904Y-123743390D02*
X125964285Y-123552914D01*
X125964285Y-123552914D02*
X125916666Y-123457676D01*
X125916666Y-123457676D02*
X125821428Y-123362438D01*
X125821428Y-123362438D02*
X125678571Y-123314819D01*
X125678571Y-123314819D02*
X125583333Y-123314819D01*
X125583333Y-123314819D02*
X125440476Y-123362438D01*
X125440476Y-123362438D02*
X125392857Y-123410057D01*
X124440476Y-124314819D02*
X125011904Y-124314819D01*
X124726190Y-124314819D02*
X124726190Y-123314819D01*
X124726190Y-123314819D02*
X124821428Y-123457676D01*
X124821428Y-123457676D02*
X124916666Y-123552914D01*
X124916666Y-123552914D02*
X125011904Y-123600533D01*
X123535714Y-123314819D02*
X124011904Y-123314819D01*
X124011904Y-123314819D02*
X124059523Y-123791009D01*
X124059523Y-123791009D02*
X124011904Y-123743390D01*
X124011904Y-123743390D02*
X123916666Y-123695771D01*
X123916666Y-123695771D02*
X123678571Y-123695771D01*
X123678571Y-123695771D02*
X123583333Y-123743390D01*
X123583333Y-123743390D02*
X123535714Y-123791009D01*
X123535714Y-123791009D02*
X123488095Y-123886247D01*
X123488095Y-123886247D02*
X123488095Y-124124342D01*
X123488095Y-124124342D02*
X123535714Y-124219580D01*
X123535714Y-124219580D02*
X123583333Y-124267200D01*
X123583333Y-124267200D02*
X123678571Y-124314819D01*
X123678571Y-124314819D02*
X123916666Y-124314819D01*
X123916666Y-124314819D02*
X124011904Y-124267200D01*
X124011904Y-124267200D02*
X124059523Y-124219580D01*
X132595238Y-116384819D02*
X132928571Y-115908628D01*
X133166666Y-116384819D02*
X133166666Y-115384819D01*
X133166666Y-115384819D02*
X132785714Y-115384819D01*
X132785714Y-115384819D02*
X132690476Y-115432438D01*
X132690476Y-115432438D02*
X132642857Y-115480057D01*
X132642857Y-115480057D02*
X132595238Y-115575295D01*
X132595238Y-115575295D02*
X132595238Y-115718152D01*
X132595238Y-115718152D02*
X132642857Y-115813390D01*
X132642857Y-115813390D02*
X132690476Y-115861009D01*
X132690476Y-115861009D02*
X132785714Y-115908628D01*
X132785714Y-115908628D02*
X133166666Y-115908628D01*
X132309523Y-115384819D02*
X131976190Y-116384819D01*
X131976190Y-116384819D02*
X131642857Y-115384819D01*
X130785714Y-116384819D02*
X131357142Y-116384819D01*
X131071428Y-116384819D02*
X131071428Y-115384819D01*
X131071428Y-115384819D02*
X131166666Y-115527676D01*
X131166666Y-115527676D02*
X131261904Y-115622914D01*
X131261904Y-115622914D02*
X131357142Y-115670533D01*
X176580000Y-118084819D02*
X176913333Y-117608628D01*
X177151428Y-118084819D02*
X177151428Y-117084819D01*
X177151428Y-117084819D02*
X176770476Y-117084819D01*
X176770476Y-117084819D02*
X176675238Y-117132438D01*
X176675238Y-117132438D02*
X176627619Y-117180057D01*
X176627619Y-117180057D02*
X176580000Y-117275295D01*
X176580000Y-117275295D02*
X176580000Y-117418152D01*
X176580000Y-117418152D02*
X176627619Y-117513390D01*
X176627619Y-117513390D02*
X176675238Y-117561009D01*
X176675238Y-117561009D02*
X176770476Y-117608628D01*
X176770476Y-117608628D02*
X177151428Y-117608628D01*
X176151428Y-117418152D02*
X176151428Y-118418152D01*
X176151428Y-117465771D02*
X176056190Y-117418152D01*
X176056190Y-117418152D02*
X175865714Y-117418152D01*
X175865714Y-117418152D02*
X175770476Y-117465771D01*
X175770476Y-117465771D02*
X175722857Y-117513390D01*
X175722857Y-117513390D02*
X175675238Y-117608628D01*
X175675238Y-117608628D02*
X175675238Y-117894342D01*
X175675238Y-117894342D02*
X175722857Y-117989580D01*
X175722857Y-117989580D02*
X175770476Y-118037200D01*
X175770476Y-118037200D02*
X175865714Y-118084819D01*
X175865714Y-118084819D02*
X176056190Y-118084819D01*
X176056190Y-118084819D02*
X176151428Y-118037200D01*
X174818095Y-117418152D02*
X174818095Y-118084819D01*
X175246666Y-117418152D02*
X175246666Y-117941961D01*
X175246666Y-117941961D02*
X175199047Y-118037200D01*
X175199047Y-118037200D02*
X175103809Y-118084819D01*
X175103809Y-118084819D02*
X174960952Y-118084819D01*
X174960952Y-118084819D02*
X174865714Y-118037200D01*
X174865714Y-118037200D02*
X174818095Y-117989580D01*
X174199047Y-118084819D02*
X174294285Y-118037200D01*
X174294285Y-118037200D02*
X174341904Y-117941961D01*
X174341904Y-117941961D02*
X174341904Y-117084819D01*
X173675237Y-118084819D02*
X173770475Y-118037200D01*
X173770475Y-118037200D02*
X173818094Y-117941961D01*
X173818094Y-117941961D02*
X173818094Y-117084819D01*
X172865713Y-117418152D02*
X172865713Y-118084819D01*
X173294284Y-117418152D02*
X173294284Y-117941961D01*
X173294284Y-117941961D02*
X173246665Y-118037200D01*
X173246665Y-118037200D02*
X173151427Y-118084819D01*
X173151427Y-118084819D02*
X173008570Y-118084819D01*
X173008570Y-118084819D02*
X172913332Y-118037200D01*
X172913332Y-118037200D02*
X172865713Y-117989580D01*
X172389522Y-117418152D02*
X172389522Y-118418152D01*
X172389522Y-117465771D02*
X172294284Y-117418152D01*
X172294284Y-117418152D02*
X172103808Y-117418152D01*
X172103808Y-117418152D02*
X172008570Y-117465771D01*
X172008570Y-117465771D02*
X171960951Y-117513390D01*
X171960951Y-117513390D02*
X171913332Y-117608628D01*
X171913332Y-117608628D02*
X171913332Y-117894342D01*
X171913332Y-117894342D02*
X171960951Y-117989580D01*
X171960951Y-117989580D02*
X172008570Y-118037200D01*
X172008570Y-118037200D02*
X172103808Y-118084819D01*
X172103808Y-118084819D02*
X172294284Y-118084819D01*
X172294284Y-118084819D02*
X172389522Y-118037200D01*
X171532379Y-117180057D02*
X171484760Y-117132438D01*
X171484760Y-117132438D02*
X171389522Y-117084819D01*
X171389522Y-117084819D02*
X171151427Y-117084819D01*
X171151427Y-117084819D02*
X171056189Y-117132438D01*
X171056189Y-117132438D02*
X171008570Y-117180057D01*
X171008570Y-117180057D02*
X170960951Y-117275295D01*
X170960951Y-117275295D02*
X170960951Y-117370533D01*
X170960951Y-117370533D02*
X171008570Y-117513390D01*
X171008570Y-117513390D02*
X171579998Y-118084819D01*
X171579998Y-118084819D02*
X170960951Y-118084819D01*
X106714819Y-60857142D02*
X106714819Y-60380952D01*
X106714819Y-60380952D02*
X105714819Y-60380952D01*
X106667200Y-61142857D02*
X106714819Y-61285714D01*
X106714819Y-61285714D02*
X106714819Y-61523809D01*
X106714819Y-61523809D02*
X106667200Y-61619047D01*
X106667200Y-61619047D02*
X106619580Y-61666666D01*
X106619580Y-61666666D02*
X106524342Y-61714285D01*
X106524342Y-61714285D02*
X106429104Y-61714285D01*
X106429104Y-61714285D02*
X106333866Y-61666666D01*
X106333866Y-61666666D02*
X106286247Y-61619047D01*
X106286247Y-61619047D02*
X106238628Y-61523809D01*
X106238628Y-61523809D02*
X106191009Y-61333333D01*
X106191009Y-61333333D02*
X106143390Y-61238095D01*
X106143390Y-61238095D02*
X106095771Y-61190476D01*
X106095771Y-61190476D02*
X106000533Y-61142857D01*
X106000533Y-61142857D02*
X105905295Y-61142857D01*
X105905295Y-61142857D02*
X105810057Y-61190476D01*
X105810057Y-61190476D02*
X105762438Y-61238095D01*
X105762438Y-61238095D02*
X105714819Y-61333333D01*
X105714819Y-61333333D02*
X105714819Y-61571428D01*
X105714819Y-61571428D02*
X105762438Y-61714285D01*
X105810057Y-62095238D02*
X105762438Y-62142857D01*
X105762438Y-62142857D02*
X105714819Y-62238095D01*
X105714819Y-62238095D02*
X105714819Y-62476190D01*
X105714819Y-62476190D02*
X105762438Y-62571428D01*
X105762438Y-62571428D02*
X105810057Y-62619047D01*
X105810057Y-62619047D02*
X105905295Y-62666666D01*
X105905295Y-62666666D02*
X106000533Y-62666666D01*
X106000533Y-62666666D02*
X106143390Y-62619047D01*
X106143390Y-62619047D02*
X106714819Y-62047619D01*
X106714819Y-62047619D02*
X106714819Y-62666666D01*
X187738094Y-80954819D02*
X187166666Y-80954819D01*
X187452380Y-81954819D02*
X187452380Y-80954819D01*
X186833332Y-81954819D02*
X186833332Y-80954819D01*
X186833332Y-80954819D02*
X186452380Y-80954819D01*
X186452380Y-80954819D02*
X186357142Y-81002438D01*
X186357142Y-81002438D02*
X186309523Y-81050057D01*
X186309523Y-81050057D02*
X186261904Y-81145295D01*
X186261904Y-81145295D02*
X186261904Y-81288152D01*
X186261904Y-81288152D02*
X186309523Y-81383390D01*
X186309523Y-81383390D02*
X186357142Y-81431009D01*
X186357142Y-81431009D02*
X186452380Y-81478628D01*
X186452380Y-81478628D02*
X186833332Y-81478628D01*
X185309523Y-81954819D02*
X185880951Y-81954819D01*
X185595237Y-81954819D02*
X185595237Y-80954819D01*
X185595237Y-80954819D02*
X185690475Y-81097676D01*
X185690475Y-81097676D02*
X185785713Y-81192914D01*
X185785713Y-81192914D02*
X185880951Y-81240533D01*
X184357142Y-81954819D02*
X184928570Y-81954819D01*
X184642856Y-81954819D02*
X184642856Y-80954819D01*
X184642856Y-80954819D02*
X184738094Y-81097676D01*
X184738094Y-81097676D02*
X184833332Y-81192914D01*
X184833332Y-81192914D02*
X184928570Y-81240533D01*
X108166666Y-122789580D02*
X108214285Y-122837200D01*
X108214285Y-122837200D02*
X108357142Y-122884819D01*
X108357142Y-122884819D02*
X108452380Y-122884819D01*
X108452380Y-122884819D02*
X108595237Y-122837200D01*
X108595237Y-122837200D02*
X108690475Y-122741961D01*
X108690475Y-122741961D02*
X108738094Y-122646723D01*
X108738094Y-122646723D02*
X108785713Y-122456247D01*
X108785713Y-122456247D02*
X108785713Y-122313390D01*
X108785713Y-122313390D02*
X108738094Y-122122914D01*
X108738094Y-122122914D02*
X108690475Y-122027676D01*
X108690475Y-122027676D02*
X108595237Y-121932438D01*
X108595237Y-121932438D02*
X108452380Y-121884819D01*
X108452380Y-121884819D02*
X108357142Y-121884819D01*
X108357142Y-121884819D02*
X108214285Y-121932438D01*
X108214285Y-121932438D02*
X108166666Y-121980057D01*
X107595237Y-122313390D02*
X107690475Y-122265771D01*
X107690475Y-122265771D02*
X107738094Y-122218152D01*
X107738094Y-122218152D02*
X107785713Y-122122914D01*
X107785713Y-122122914D02*
X107785713Y-122075295D01*
X107785713Y-122075295D02*
X107738094Y-121980057D01*
X107738094Y-121980057D02*
X107690475Y-121932438D01*
X107690475Y-121932438D02*
X107595237Y-121884819D01*
X107595237Y-121884819D02*
X107404761Y-121884819D01*
X107404761Y-121884819D02*
X107309523Y-121932438D01*
X107309523Y-121932438D02*
X107261904Y-121980057D01*
X107261904Y-121980057D02*
X107214285Y-122075295D01*
X107214285Y-122075295D02*
X107214285Y-122122914D01*
X107214285Y-122122914D02*
X107261904Y-122218152D01*
X107261904Y-122218152D02*
X107309523Y-122265771D01*
X107309523Y-122265771D02*
X107404761Y-122313390D01*
X107404761Y-122313390D02*
X107595237Y-122313390D01*
X107595237Y-122313390D02*
X107690475Y-122361009D01*
X107690475Y-122361009D02*
X107738094Y-122408628D01*
X107738094Y-122408628D02*
X107785713Y-122503866D01*
X107785713Y-122503866D02*
X107785713Y-122694342D01*
X107785713Y-122694342D02*
X107738094Y-122789580D01*
X107738094Y-122789580D02*
X107690475Y-122837200D01*
X107690475Y-122837200D02*
X107595237Y-122884819D01*
X107595237Y-122884819D02*
X107404761Y-122884819D01*
X107404761Y-122884819D02*
X107309523Y-122837200D01*
X107309523Y-122837200D02*
X107261904Y-122789580D01*
X107261904Y-122789580D02*
X107214285Y-122694342D01*
X107214285Y-122694342D02*
X107214285Y-122503866D01*
X107214285Y-122503866D02*
X107261904Y-122408628D01*
X107261904Y-122408628D02*
X107309523Y-122361009D01*
X107309523Y-122361009D02*
X107404761Y-122313390D01*
D12*
%TO.C,R2*%
X112040000Y-140260000D02*
X112810000Y-140260000D01*
X112810000Y-138890000D02*
X119350000Y-138890000D01*
X112810000Y-141630000D02*
X112810000Y-138890000D01*
X119350000Y-138890000D02*
X119350000Y-141630000D01*
X119350000Y-141630000D02*
X112810000Y-141630000D01*
X120120000Y-140260000D02*
X119350000Y-140260000D01*
%TO.C,RV2*%
X121670000Y-86530000D02*
X121670000Y-91670000D01*
X124330000Y-83930000D02*
X123000000Y-83930000D01*
X124330000Y-85260000D02*
X124330000Y-83930000D01*
X124330000Y-86530000D02*
X121670000Y-86530000D01*
X124330000Y-86530000D02*
X124330000Y-91670000D01*
X124330000Y-91670000D02*
X121670000Y-91670000D01*
D10*
%TO.C,TP12*%
X187400000Y-71000000D02*
G75*
G02*
X184600000Y-71000000I-1400000J0D01*
G01*
X184600000Y-71000000D02*
G75*
G02*
X187400000Y-71000000I1400000J0D01*
G01*
D12*
%TO.C,C6*%
X105509000Y-132598000D02*
X105509000Y-133402000D01*
X105549000Y-132367000D02*
X105549000Y-133633000D01*
X105589000Y-132198000D02*
X105589000Y-133802000D01*
X105629000Y-132060000D02*
X105629000Y-133940000D01*
X105669000Y-131941000D02*
X105669000Y-134059000D01*
X105709000Y-131835000D02*
X105709000Y-134165000D01*
X105749000Y-131738000D02*
X105749000Y-134262000D01*
X105789000Y-131650000D02*
X105789000Y-134350000D01*
X105829000Y-131568000D02*
X105829000Y-134432000D01*
X105869000Y-131491000D02*
X105869000Y-134509000D01*
X105909000Y-131419000D02*
X105909000Y-134581000D01*
X105949000Y-131350000D02*
X105949000Y-134650000D01*
X105989000Y-131286000D02*
X105989000Y-134714000D01*
X106029000Y-131224000D02*
X106029000Y-134776000D01*
X106069000Y-131166000D02*
X106069000Y-134834000D01*
X106109000Y-131110000D02*
X106109000Y-134890000D01*
X106149000Y-131056000D02*
X106149000Y-134944000D01*
X106189000Y-131005000D02*
X106189000Y-134995000D01*
X106229000Y-130956000D02*
X106229000Y-135044000D01*
X106269000Y-130908000D02*
X106269000Y-135092000D01*
X106309000Y-130863000D02*
X106309000Y-135137000D01*
X106349000Y-130818000D02*
X106349000Y-135182000D01*
X106389000Y-130776000D02*
X106389000Y-135224000D01*
X106429000Y-130735000D02*
X106429000Y-135265000D01*
X106469000Y-130695000D02*
X106469000Y-131960000D01*
X106469000Y-134040000D02*
X106469000Y-135305000D01*
X106509000Y-130657000D02*
X106509000Y-131960000D01*
X106509000Y-134040000D02*
X106509000Y-135343000D01*
X106549000Y-130620000D02*
X106549000Y-131960000D01*
X106549000Y-134040000D02*
X106549000Y-135380000D01*
X106589000Y-130584000D02*
X106589000Y-131960000D01*
X106589000Y-134040000D02*
X106589000Y-135416000D01*
X106629000Y-130550000D02*
X106629000Y-131960000D01*
X106629000Y-134040000D02*
X106629000Y-135450000D01*
X106669000Y-130516000D02*
X106669000Y-131960000D01*
X106669000Y-134040000D02*
X106669000Y-135484000D01*
X106709000Y-130484000D02*
X106709000Y-131960000D01*
X106709000Y-134040000D02*
X106709000Y-135516000D01*
X106749000Y-130452000D02*
X106749000Y-131960000D01*
X106749000Y-134040000D02*
X106749000Y-135548000D01*
X106789000Y-130422000D02*
X106789000Y-131960000D01*
X106789000Y-134040000D02*
X106789000Y-135578000D01*
X106829000Y-130393000D02*
X106829000Y-131960000D01*
X106829000Y-134040000D02*
X106829000Y-135607000D01*
X106869000Y-130364000D02*
X106869000Y-131960000D01*
X106869000Y-134040000D02*
X106869000Y-135636000D01*
X106909000Y-130336000D02*
X106909000Y-131960000D01*
X106909000Y-134040000D02*
X106909000Y-135664000D01*
X106949000Y-130310000D02*
X106949000Y-131960000D01*
X106949000Y-134040000D02*
X106949000Y-135690000D01*
X106989000Y-130284000D02*
X106989000Y-131960000D01*
X106989000Y-134040000D02*
X106989000Y-135716000D01*
X107029000Y-130258000D02*
X107029000Y-131960000D01*
X107029000Y-134040000D02*
X107029000Y-135742000D01*
X107069000Y-130234000D02*
X107069000Y-131960000D01*
X107069000Y-134040000D02*
X107069000Y-135766000D01*
X107109000Y-130210000D02*
X107109000Y-131960000D01*
X107109000Y-134040000D02*
X107109000Y-135790000D01*
X107149000Y-130188000D02*
X107149000Y-131960000D01*
X107149000Y-134040000D02*
X107149000Y-135812000D01*
X107189000Y-130166000D02*
X107189000Y-131960000D01*
X107189000Y-134040000D02*
X107189000Y-135834000D01*
X107229000Y-130144000D02*
X107229000Y-131960000D01*
X107229000Y-134040000D02*
X107229000Y-135856000D01*
X107269000Y-130124000D02*
X107269000Y-131960000D01*
X107269000Y-134040000D02*
X107269000Y-135876000D01*
X107309000Y-130104000D02*
X107309000Y-131960000D01*
X107309000Y-134040000D02*
X107309000Y-135896000D01*
X107349000Y-130084000D02*
X107349000Y-131960000D01*
X107349000Y-134040000D02*
X107349000Y-135916000D01*
X107389000Y-130066000D02*
X107389000Y-131960000D01*
X107389000Y-134040000D02*
X107389000Y-135934000D01*
X107429000Y-130048000D02*
X107429000Y-131960000D01*
X107429000Y-134040000D02*
X107429000Y-135952000D01*
X107469000Y-130030000D02*
X107469000Y-131960000D01*
X107469000Y-134040000D02*
X107469000Y-135970000D01*
X107509000Y-130014000D02*
X107509000Y-131960000D01*
X107509000Y-134040000D02*
X107509000Y-135986000D01*
X107549000Y-129998000D02*
X107549000Y-131960000D01*
X107549000Y-134040000D02*
X107549000Y-136002000D01*
X107589000Y-129982000D02*
X107589000Y-131960000D01*
X107589000Y-134040000D02*
X107589000Y-136018000D01*
X107629000Y-129967000D02*
X107629000Y-131960000D01*
X107629000Y-134040000D02*
X107629000Y-136033000D01*
X107669000Y-129953000D02*
X107669000Y-131960000D01*
X107669000Y-134040000D02*
X107669000Y-136047000D01*
X107709000Y-129939000D02*
X107709000Y-131960000D01*
X107709000Y-134040000D02*
X107709000Y-136061000D01*
X107749000Y-129926000D02*
X107749000Y-131960000D01*
X107749000Y-134040000D02*
X107749000Y-136074000D01*
X107789000Y-129914000D02*
X107789000Y-131960000D01*
X107789000Y-134040000D02*
X107789000Y-136086000D01*
X107829000Y-129902000D02*
X107829000Y-131960000D01*
X107829000Y-134040000D02*
X107829000Y-136098000D01*
X107869000Y-129890000D02*
X107869000Y-131960000D01*
X107869000Y-134040000D02*
X107869000Y-136110000D01*
X107909000Y-129879000D02*
X107909000Y-131960000D01*
X107909000Y-134040000D02*
X107909000Y-136121000D01*
X107949000Y-129869000D02*
X107949000Y-131960000D01*
X107949000Y-134040000D02*
X107949000Y-136131000D01*
X107989000Y-129859000D02*
X107989000Y-131960000D01*
X107989000Y-134040000D02*
X107989000Y-136141000D01*
X108029000Y-129850000D02*
X108029000Y-131960000D01*
X108029000Y-134040000D02*
X108029000Y-136150000D01*
X108070000Y-129841000D02*
X108070000Y-131960000D01*
X108070000Y-134040000D02*
X108070000Y-136159000D01*
X108110000Y-129833000D02*
X108110000Y-131960000D01*
X108110000Y-134040000D02*
X108110000Y-136167000D01*
X108150000Y-129825000D02*
X108150000Y-131960000D01*
X108150000Y-134040000D02*
X108150000Y-136175000D01*
X108190000Y-129818000D02*
X108190000Y-131960000D01*
X108190000Y-134040000D02*
X108190000Y-136182000D01*
X108230000Y-129811000D02*
X108230000Y-131960000D01*
X108230000Y-134040000D02*
X108230000Y-136189000D01*
X108270000Y-129805000D02*
X108270000Y-131960000D01*
X108270000Y-134040000D02*
X108270000Y-136195000D01*
X108310000Y-129799000D02*
X108310000Y-131960000D01*
X108310000Y-134040000D02*
X108310000Y-136201000D01*
X108350000Y-129794000D02*
X108350000Y-131960000D01*
X108350000Y-134040000D02*
X108350000Y-136206000D01*
X108390000Y-129789000D02*
X108390000Y-131960000D01*
X108390000Y-134040000D02*
X108390000Y-136211000D01*
X108430000Y-129785000D02*
X108430000Y-131960000D01*
X108430000Y-134040000D02*
X108430000Y-136215000D01*
X108470000Y-129782000D02*
X108470000Y-131960000D01*
X108470000Y-134040000D02*
X108470000Y-136218000D01*
X108510000Y-129778000D02*
X108510000Y-131960000D01*
X108510000Y-134040000D02*
X108510000Y-136222000D01*
X108550000Y-129776000D02*
X108550000Y-136224000D01*
X108590000Y-129773000D02*
X108590000Y-136227000D01*
X108630000Y-129772000D02*
X108630000Y-136228000D01*
X108670000Y-129770000D02*
X108670000Y-136230000D01*
X108710000Y-129770000D02*
X108710000Y-136230000D01*
X108750000Y-129770000D02*
X108750000Y-136230000D01*
X111935241Y-130846000D02*
X111935241Y-131476000D01*
X112250241Y-131161000D02*
X111620241Y-131161000D01*
X112020000Y-133000000D02*
G75*
G02*
X105480000Y-133000000I-3270000J0D01*
G01*
X105480000Y-133000000D02*
G75*
G02*
X112020000Y-133000000I3270000J0D01*
G01*
D10*
%TO.C,TP4*%
X167400000Y-121260000D02*
G75*
G02*
X164600000Y-121260000I-1400000J0D01*
G01*
X164600000Y-121260000D02*
G75*
G02*
X167400000Y-121260000I1400000J0D01*
G01*
%TO.C,U2*%
X163630000Y-102180000D02*
X182630000Y-102180000D01*
X182630000Y-88180000D01*
X163630000Y-88180000D01*
X163630000Y-102180000D01*
D12*
%TO.C,C7*%
X101859420Y-74750000D02*
X102140580Y-74750000D01*
X101859420Y-75770000D02*
X102140580Y-75770000D01*
D13*
%TO.C,U3*%
X112700000Y-113180000D02*
X112700000Y-113560000D01*
X112700000Y-123340000D02*
X112700000Y-122960000D01*
X119300000Y-113180000D02*
X112700000Y-113180000D01*
X119300000Y-113560000D02*
X119300000Y-113180000D01*
X119300000Y-122960000D02*
X119300000Y-123340000D01*
X119300000Y-123340000D02*
X112700000Y-123340000D01*
D14*
X121400000Y-114360000D02*
G75*
G02*
X121200000Y-114360000I-100000J0D01*
G01*
X121200000Y-114360000D02*
G75*
G02*
X121400000Y-114360000I100000J0D01*
G01*
D10*
%TO.C,TP5*%
X179400000Y-106260000D02*
G75*
G02*
X176600000Y-106260000I-1400000J0D01*
G01*
X176600000Y-106260000D02*
G75*
G02*
X179400000Y-106260000I1400000J0D01*
G01*
D12*
%TO.C,C3*%
X95509000Y-94598000D02*
X95509000Y-95402000D01*
X95549000Y-94367000D02*
X95549000Y-95633000D01*
X95589000Y-94198000D02*
X95589000Y-95802000D01*
X95629000Y-94060000D02*
X95629000Y-95940000D01*
X95669000Y-93941000D02*
X95669000Y-96059000D01*
X95709000Y-93835000D02*
X95709000Y-96165000D01*
X95749000Y-93738000D02*
X95749000Y-96262000D01*
X95789000Y-93650000D02*
X95789000Y-96350000D01*
X95829000Y-93568000D02*
X95829000Y-96432000D01*
X95869000Y-93491000D02*
X95869000Y-96509000D01*
X95909000Y-93419000D02*
X95909000Y-96581000D01*
X95949000Y-93350000D02*
X95949000Y-96650000D01*
X95989000Y-93286000D02*
X95989000Y-96714000D01*
X96029000Y-93224000D02*
X96029000Y-96776000D01*
X96069000Y-93166000D02*
X96069000Y-96834000D01*
X96109000Y-93110000D02*
X96109000Y-96890000D01*
X96149000Y-93056000D02*
X96149000Y-96944000D01*
X96189000Y-93005000D02*
X96189000Y-96995000D01*
X96229000Y-92956000D02*
X96229000Y-97044000D01*
X96269000Y-92908000D02*
X96269000Y-97092000D01*
X96309000Y-92863000D02*
X96309000Y-97137000D01*
X96349000Y-92818000D02*
X96349000Y-97182000D01*
X96389000Y-92776000D02*
X96389000Y-97224000D01*
X96429000Y-92735000D02*
X96429000Y-97265000D01*
X96469000Y-92695000D02*
X96469000Y-93960000D01*
X96469000Y-96040000D02*
X96469000Y-97305000D01*
X96509000Y-92657000D02*
X96509000Y-93960000D01*
X96509000Y-96040000D02*
X96509000Y-97343000D01*
X96549000Y-92620000D02*
X96549000Y-93960000D01*
X96549000Y-96040000D02*
X96549000Y-97380000D01*
X96589000Y-92584000D02*
X96589000Y-93960000D01*
X96589000Y-96040000D02*
X96589000Y-97416000D01*
X96629000Y-92550000D02*
X96629000Y-93960000D01*
X96629000Y-96040000D02*
X96629000Y-97450000D01*
X96669000Y-92516000D02*
X96669000Y-93960000D01*
X96669000Y-96040000D02*
X96669000Y-97484000D01*
X96709000Y-92484000D02*
X96709000Y-93960000D01*
X96709000Y-96040000D02*
X96709000Y-97516000D01*
X96749000Y-92452000D02*
X96749000Y-93960000D01*
X96749000Y-96040000D02*
X96749000Y-97548000D01*
X96789000Y-92422000D02*
X96789000Y-93960000D01*
X96789000Y-96040000D02*
X96789000Y-97578000D01*
X96829000Y-92393000D02*
X96829000Y-93960000D01*
X96829000Y-96040000D02*
X96829000Y-97607000D01*
X96869000Y-92364000D02*
X96869000Y-93960000D01*
X96869000Y-96040000D02*
X96869000Y-97636000D01*
X96909000Y-92336000D02*
X96909000Y-93960000D01*
X96909000Y-96040000D02*
X96909000Y-97664000D01*
X96949000Y-92310000D02*
X96949000Y-93960000D01*
X96949000Y-96040000D02*
X96949000Y-97690000D01*
X96989000Y-92284000D02*
X96989000Y-93960000D01*
X96989000Y-96040000D02*
X96989000Y-97716000D01*
X97029000Y-92258000D02*
X97029000Y-93960000D01*
X97029000Y-96040000D02*
X97029000Y-97742000D01*
X97069000Y-92234000D02*
X97069000Y-93960000D01*
X97069000Y-96040000D02*
X97069000Y-97766000D01*
X97109000Y-92210000D02*
X97109000Y-93960000D01*
X97109000Y-96040000D02*
X97109000Y-97790000D01*
X97149000Y-92188000D02*
X97149000Y-93960000D01*
X97149000Y-96040000D02*
X97149000Y-97812000D01*
X97189000Y-92166000D02*
X97189000Y-93960000D01*
X97189000Y-96040000D02*
X97189000Y-97834000D01*
X97229000Y-92144000D02*
X97229000Y-93960000D01*
X97229000Y-96040000D02*
X97229000Y-97856000D01*
X97269000Y-92124000D02*
X97269000Y-93960000D01*
X97269000Y-96040000D02*
X97269000Y-97876000D01*
X97309000Y-92104000D02*
X97309000Y-93960000D01*
X97309000Y-96040000D02*
X97309000Y-97896000D01*
X97349000Y-92084000D02*
X97349000Y-93960000D01*
X97349000Y-96040000D02*
X97349000Y-97916000D01*
X97389000Y-92066000D02*
X97389000Y-93960000D01*
X97389000Y-96040000D02*
X97389000Y-97934000D01*
X97429000Y-92048000D02*
X97429000Y-93960000D01*
X97429000Y-96040000D02*
X97429000Y-97952000D01*
X97469000Y-92030000D02*
X97469000Y-93960000D01*
X97469000Y-96040000D02*
X97469000Y-97970000D01*
X97509000Y-92014000D02*
X97509000Y-93960000D01*
X97509000Y-96040000D02*
X97509000Y-97986000D01*
X97549000Y-91998000D02*
X97549000Y-93960000D01*
X97549000Y-96040000D02*
X97549000Y-98002000D01*
X97589000Y-91982000D02*
X97589000Y-93960000D01*
X97589000Y-96040000D02*
X97589000Y-98018000D01*
X97629000Y-91967000D02*
X97629000Y-93960000D01*
X97629000Y-96040000D02*
X97629000Y-98033000D01*
X97669000Y-91953000D02*
X97669000Y-93960000D01*
X97669000Y-96040000D02*
X97669000Y-98047000D01*
X97709000Y-91939000D02*
X97709000Y-93960000D01*
X97709000Y-96040000D02*
X97709000Y-98061000D01*
X97749000Y-91926000D02*
X97749000Y-93960000D01*
X97749000Y-96040000D02*
X97749000Y-98074000D01*
X97789000Y-91914000D02*
X97789000Y-93960000D01*
X97789000Y-96040000D02*
X97789000Y-98086000D01*
X97829000Y-91902000D02*
X97829000Y-93960000D01*
X97829000Y-96040000D02*
X97829000Y-98098000D01*
X97869000Y-91890000D02*
X97869000Y-93960000D01*
X97869000Y-96040000D02*
X97869000Y-98110000D01*
X97909000Y-91879000D02*
X97909000Y-93960000D01*
X97909000Y-96040000D02*
X97909000Y-98121000D01*
X97949000Y-91869000D02*
X97949000Y-93960000D01*
X97949000Y-96040000D02*
X97949000Y-98131000D01*
X97989000Y-91859000D02*
X97989000Y-93960000D01*
X97989000Y-96040000D02*
X97989000Y-98141000D01*
X98029000Y-91850000D02*
X98029000Y-93960000D01*
X98029000Y-96040000D02*
X98029000Y-98150000D01*
X98070000Y-91841000D02*
X98070000Y-93960000D01*
X98070000Y-96040000D02*
X98070000Y-98159000D01*
X98110000Y-91833000D02*
X98110000Y-93960000D01*
X98110000Y-96040000D02*
X98110000Y-98167000D01*
X98150000Y-91825000D02*
X98150000Y-93960000D01*
X98150000Y-96040000D02*
X98150000Y-98175000D01*
X98190000Y-91818000D02*
X98190000Y-93960000D01*
X98190000Y-96040000D02*
X98190000Y-98182000D01*
X98230000Y-91811000D02*
X98230000Y-93960000D01*
X98230000Y-96040000D02*
X98230000Y-98189000D01*
X98270000Y-91805000D02*
X98270000Y-93960000D01*
X98270000Y-96040000D02*
X98270000Y-98195000D01*
X98310000Y-91799000D02*
X98310000Y-93960000D01*
X98310000Y-96040000D02*
X98310000Y-98201000D01*
X98350000Y-91794000D02*
X98350000Y-93960000D01*
X98350000Y-96040000D02*
X98350000Y-98206000D01*
X98390000Y-91789000D02*
X98390000Y-93960000D01*
X98390000Y-96040000D02*
X98390000Y-98211000D01*
X98430000Y-91785000D02*
X98430000Y-93960000D01*
X98430000Y-96040000D02*
X98430000Y-98215000D01*
X98470000Y-91782000D02*
X98470000Y-93960000D01*
X98470000Y-96040000D02*
X98470000Y-98218000D01*
X98510000Y-91778000D02*
X98510000Y-93960000D01*
X98510000Y-96040000D02*
X98510000Y-98222000D01*
X98550000Y-91776000D02*
X98550000Y-98224000D01*
X98590000Y-91773000D02*
X98590000Y-98227000D01*
X98630000Y-91772000D02*
X98630000Y-98228000D01*
X98670000Y-91770000D02*
X98670000Y-98230000D01*
X98710000Y-91770000D02*
X98710000Y-98230000D01*
X98750000Y-91770000D02*
X98750000Y-98230000D01*
X101935241Y-92846000D02*
X101935241Y-93476000D01*
X102250241Y-93161000D02*
X101620241Y-93161000D01*
X102020000Y-95000000D02*
G75*
G02*
X95480000Y-95000000I-3270000J0D01*
G01*
X95480000Y-95000000D02*
G75*
G02*
X102020000Y-95000000I3270000J0D01*
G01*
D10*
%TO.C,TP13*%
X189400000Y-116000000D02*
G75*
G02*
X186600000Y-116000000I-1400000J0D01*
G01*
X186600000Y-116000000D02*
G75*
G02*
X189400000Y-116000000I1400000J0D01*
G01*
D12*
%TO.C,C12*%
X101580000Y-80730000D02*
X104420000Y-80730000D01*
X101580000Y-84770000D02*
X101580000Y-80730000D01*
X103000000Y-80040000D02*
X103000000Y-80730000D01*
X103000000Y-85460000D02*
X103000000Y-84770000D01*
X104420000Y-80730000D02*
X104420000Y-84770000D01*
X104420000Y-84770000D02*
X101580000Y-84770000D01*
D10*
%TO.C,TP6*%
X119400000Y-90260000D02*
G75*
G02*
X116600000Y-90260000I-1400000J0D01*
G01*
X116600000Y-90260000D02*
G75*
G02*
X119400000Y-90260000I1400000J0D01*
G01*
%TO.C,TP9*%
X106400000Y-100000000D02*
G75*
G02*
X103600000Y-100000000I-1400000J0D01*
G01*
X103600000Y-100000000D02*
G75*
G02*
X106400000Y-100000000I1400000J0D01*
G01*
D12*
%TO.C,C4*%
X106580000Y-80990000D02*
X109420000Y-80990000D01*
X106580000Y-85030000D02*
X106580000Y-80990000D01*
X108000000Y-80300000D02*
X108000000Y-80990000D01*
X108000000Y-85720000D02*
X108000000Y-85030000D01*
X109420000Y-80990000D02*
X109420000Y-85030000D01*
X109420000Y-85030000D02*
X106580000Y-85030000D01*
D13*
%TO.C,U4*%
X107670000Y-65730000D02*
X107670000Y-66110000D01*
X107670000Y-75890000D02*
X107670000Y-75510000D01*
X114270000Y-65730000D02*
X107670000Y-65730000D01*
X114270000Y-66110000D02*
X114270000Y-65730000D01*
X114270000Y-75510000D02*
X114270000Y-75890000D01*
X114270000Y-75890000D02*
X107670000Y-75890000D01*
D14*
X116370000Y-66910000D02*
G75*
G02*
X116170000Y-66910000I-100000J0D01*
G01*
X116170000Y-66910000D02*
G75*
G02*
X116370000Y-66910000I100000J0D01*
G01*
D10*
%TO.C,TP7*%
X127400000Y-118260000D02*
G75*
G02*
X124600000Y-118260000I-1400000J0D01*
G01*
X124600000Y-118260000D02*
G75*
G02*
X127400000Y-118260000I1400000J0D01*
G01*
D12*
%TO.C,C5*%
X114290000Y-136260000D02*
X114980000Y-136260000D01*
X114980000Y-134840000D02*
X119020000Y-134840000D01*
X114980000Y-137680000D02*
X114980000Y-134840000D01*
X119020000Y-134840000D02*
X119020000Y-137680000D01*
X119020000Y-137680000D02*
X114980000Y-137680000D01*
X119710000Y-136260000D02*
X119020000Y-136260000D01*
D10*
%TO.C,TP10*%
X185400000Y-106260000D02*
G75*
G02*
X182600000Y-106260000I-1400000J0D01*
G01*
X182600000Y-106260000D02*
G75*
G02*
X185400000Y-106260000I1400000J0D01*
G01*
D12*
%TO.C,C16*%
X114509000Y-81598000D02*
X114509000Y-82402000D01*
X114549000Y-81367000D02*
X114549000Y-82633000D01*
X114589000Y-81198000D02*
X114589000Y-82802000D01*
X114629000Y-81060000D02*
X114629000Y-82940000D01*
X114669000Y-80941000D02*
X114669000Y-83059000D01*
X114709000Y-80835000D02*
X114709000Y-83165000D01*
X114749000Y-80738000D02*
X114749000Y-83262000D01*
X114789000Y-80650000D02*
X114789000Y-83350000D01*
X114829000Y-80568000D02*
X114829000Y-83432000D01*
X114869000Y-80491000D02*
X114869000Y-83509000D01*
X114909000Y-80419000D02*
X114909000Y-83581000D01*
X114949000Y-80350000D02*
X114949000Y-83650000D01*
X114989000Y-80286000D02*
X114989000Y-83714000D01*
X115029000Y-80224000D02*
X115029000Y-83776000D01*
X115069000Y-80166000D02*
X115069000Y-83834000D01*
X115109000Y-80110000D02*
X115109000Y-83890000D01*
X115149000Y-80056000D02*
X115149000Y-83944000D01*
X115189000Y-80005000D02*
X115189000Y-83995000D01*
X115229000Y-79956000D02*
X115229000Y-84044000D01*
X115269000Y-79908000D02*
X115269000Y-84092000D01*
X115309000Y-79863000D02*
X115309000Y-84137000D01*
X115349000Y-79818000D02*
X115349000Y-84182000D01*
X115389000Y-79776000D02*
X115389000Y-84224000D01*
X115429000Y-79735000D02*
X115429000Y-84265000D01*
X115469000Y-79695000D02*
X115469000Y-80960000D01*
X115469000Y-83040000D02*
X115469000Y-84305000D01*
X115509000Y-79657000D02*
X115509000Y-80960000D01*
X115509000Y-83040000D02*
X115509000Y-84343000D01*
X115549000Y-79620000D02*
X115549000Y-80960000D01*
X115549000Y-83040000D02*
X115549000Y-84380000D01*
X115589000Y-79584000D02*
X115589000Y-80960000D01*
X115589000Y-83040000D02*
X115589000Y-84416000D01*
X115629000Y-79550000D02*
X115629000Y-80960000D01*
X115629000Y-83040000D02*
X115629000Y-84450000D01*
X115669000Y-79516000D02*
X115669000Y-80960000D01*
X115669000Y-83040000D02*
X115669000Y-84484000D01*
X115709000Y-79484000D02*
X115709000Y-80960000D01*
X115709000Y-83040000D02*
X115709000Y-84516000D01*
X115749000Y-79452000D02*
X115749000Y-80960000D01*
X115749000Y-83040000D02*
X115749000Y-84548000D01*
X115789000Y-79422000D02*
X115789000Y-80960000D01*
X115789000Y-83040000D02*
X115789000Y-84578000D01*
X115829000Y-79393000D02*
X115829000Y-80960000D01*
X115829000Y-83040000D02*
X115829000Y-84607000D01*
X115869000Y-79364000D02*
X115869000Y-80960000D01*
X115869000Y-83040000D02*
X115869000Y-84636000D01*
X115909000Y-79336000D02*
X115909000Y-80960000D01*
X115909000Y-83040000D02*
X115909000Y-84664000D01*
X115949000Y-79310000D02*
X115949000Y-80960000D01*
X115949000Y-83040000D02*
X115949000Y-84690000D01*
X115989000Y-79284000D02*
X115989000Y-80960000D01*
X115989000Y-83040000D02*
X115989000Y-84716000D01*
X116029000Y-79258000D02*
X116029000Y-80960000D01*
X116029000Y-83040000D02*
X116029000Y-84742000D01*
X116069000Y-79234000D02*
X116069000Y-80960000D01*
X116069000Y-83040000D02*
X116069000Y-84766000D01*
X116109000Y-79210000D02*
X116109000Y-80960000D01*
X116109000Y-83040000D02*
X116109000Y-84790000D01*
X116149000Y-79188000D02*
X116149000Y-80960000D01*
X116149000Y-83040000D02*
X116149000Y-84812000D01*
X116189000Y-79166000D02*
X116189000Y-80960000D01*
X116189000Y-83040000D02*
X116189000Y-84834000D01*
X116229000Y-79144000D02*
X116229000Y-80960000D01*
X116229000Y-83040000D02*
X116229000Y-84856000D01*
X116269000Y-79124000D02*
X116269000Y-80960000D01*
X116269000Y-83040000D02*
X116269000Y-84876000D01*
X116309000Y-79104000D02*
X116309000Y-80960000D01*
X116309000Y-83040000D02*
X116309000Y-84896000D01*
X116349000Y-79084000D02*
X116349000Y-80960000D01*
X116349000Y-83040000D02*
X116349000Y-84916000D01*
X116389000Y-79066000D02*
X116389000Y-80960000D01*
X116389000Y-83040000D02*
X116389000Y-84934000D01*
X116429000Y-79048000D02*
X116429000Y-80960000D01*
X116429000Y-83040000D02*
X116429000Y-84952000D01*
X116469000Y-79030000D02*
X116469000Y-80960000D01*
X116469000Y-83040000D02*
X116469000Y-84970000D01*
X116509000Y-79014000D02*
X116509000Y-80960000D01*
X116509000Y-83040000D02*
X116509000Y-84986000D01*
X116549000Y-78998000D02*
X116549000Y-80960000D01*
X116549000Y-83040000D02*
X116549000Y-85002000D01*
X116589000Y-78982000D02*
X116589000Y-80960000D01*
X116589000Y-83040000D02*
X116589000Y-85018000D01*
X116629000Y-78967000D02*
X116629000Y-80960000D01*
X116629000Y-83040000D02*
X116629000Y-85033000D01*
X116669000Y-78953000D02*
X116669000Y-80960000D01*
X116669000Y-83040000D02*
X116669000Y-85047000D01*
X116709000Y-78939000D02*
X116709000Y-80960000D01*
X116709000Y-83040000D02*
X116709000Y-85061000D01*
X116749000Y-78926000D02*
X116749000Y-80960000D01*
X116749000Y-83040000D02*
X116749000Y-85074000D01*
X116789000Y-78914000D02*
X116789000Y-80960000D01*
X116789000Y-83040000D02*
X116789000Y-85086000D01*
X116829000Y-78902000D02*
X116829000Y-80960000D01*
X116829000Y-83040000D02*
X116829000Y-85098000D01*
X116869000Y-78890000D02*
X116869000Y-80960000D01*
X116869000Y-83040000D02*
X116869000Y-85110000D01*
X116909000Y-78879000D02*
X116909000Y-80960000D01*
X116909000Y-83040000D02*
X116909000Y-85121000D01*
X116949000Y-78869000D02*
X116949000Y-80960000D01*
X116949000Y-83040000D02*
X116949000Y-85131000D01*
X116989000Y-78859000D02*
X116989000Y-80960000D01*
X116989000Y-83040000D02*
X116989000Y-85141000D01*
X117029000Y-78850000D02*
X117029000Y-80960000D01*
X117029000Y-83040000D02*
X117029000Y-85150000D01*
X117070000Y-78841000D02*
X117070000Y-80960000D01*
X117070000Y-83040000D02*
X117070000Y-85159000D01*
X117110000Y-78833000D02*
X117110000Y-80960000D01*
X117110000Y-83040000D02*
X117110000Y-85167000D01*
X117150000Y-78825000D02*
X117150000Y-80960000D01*
X117150000Y-83040000D02*
X117150000Y-85175000D01*
X117190000Y-78818000D02*
X117190000Y-80960000D01*
X117190000Y-83040000D02*
X117190000Y-85182000D01*
X117230000Y-78811000D02*
X117230000Y-80960000D01*
X117230000Y-83040000D02*
X117230000Y-85189000D01*
X117270000Y-78805000D02*
X117270000Y-80960000D01*
X117270000Y-83040000D02*
X117270000Y-85195000D01*
X117310000Y-78799000D02*
X117310000Y-80960000D01*
X117310000Y-83040000D02*
X117310000Y-85201000D01*
X117350000Y-78794000D02*
X117350000Y-80960000D01*
X117350000Y-83040000D02*
X117350000Y-85206000D01*
X117390000Y-78789000D02*
X117390000Y-80960000D01*
X117390000Y-83040000D02*
X117390000Y-85211000D01*
X117430000Y-78785000D02*
X117430000Y-80960000D01*
X117430000Y-83040000D02*
X117430000Y-85215000D01*
X117470000Y-78782000D02*
X117470000Y-80960000D01*
X117470000Y-83040000D02*
X117470000Y-85218000D01*
X117510000Y-78778000D02*
X117510000Y-80960000D01*
X117510000Y-83040000D02*
X117510000Y-85222000D01*
X117550000Y-78776000D02*
X117550000Y-85224000D01*
X117590000Y-78773000D02*
X117590000Y-85227000D01*
X117630000Y-78772000D02*
X117630000Y-85228000D01*
X117670000Y-78770000D02*
X117670000Y-85230000D01*
X117710000Y-78770000D02*
X117710000Y-85230000D01*
X117750000Y-78770000D02*
X117750000Y-85230000D01*
X120935241Y-79846000D02*
X120935241Y-80476000D01*
X121250241Y-80161000D02*
X120620241Y-80161000D01*
X121020000Y-82000000D02*
G75*
G02*
X114480000Y-82000000I-3270000J0D01*
G01*
X114480000Y-82000000D02*
G75*
G02*
X121020000Y-82000000I3270000J0D01*
G01*
%TO.C,R1*%
X107630000Y-91070000D02*
X110370000Y-91070000D01*
X107630000Y-97610000D02*
X107630000Y-91070000D01*
X109000000Y-90300000D02*
X109000000Y-91070000D01*
X109000000Y-98380000D02*
X109000000Y-97610000D01*
X110370000Y-91070000D02*
X110370000Y-97610000D01*
X110370000Y-97610000D02*
X107630000Y-97610000D01*
%TO.C,J1*%
X188670000Y-89270000D02*
X188670000Y-99490000D01*
X191330000Y-86670000D02*
X190000000Y-86670000D01*
X191330000Y-88000000D02*
X191330000Y-86670000D01*
X191330000Y-89270000D02*
X188670000Y-89270000D01*
X191330000Y-89270000D02*
X191330000Y-99490000D01*
X191330000Y-99490000D02*
X188670000Y-99490000D01*
D10*
%TO.C,TP8*%
X117400000Y-128260000D02*
G75*
G02*
X114600000Y-128260000I-1400000J0D01*
G01*
X114600000Y-128260000D02*
G75*
G02*
X117400000Y-128260000I1400000J0D01*
G01*
D12*
%TO.C,LS1*%
X95100000Y-129800000D02*
X95100000Y-129300000D01*
X95340000Y-129560000D02*
X95340000Y-119440000D01*
X95840000Y-129800000D02*
X95100000Y-129800000D01*
X95900000Y-129560000D02*
X95900000Y-119440000D01*
X97400000Y-129560000D02*
X97400000Y-119440000D01*
X98761000Y-123034000D02*
X98726000Y-123069000D01*
X98977000Y-123227000D02*
X98931000Y-123274000D01*
X101069000Y-120725000D02*
X101023000Y-120772000D01*
X101275000Y-120930000D02*
X101239000Y-120965000D01*
X102301000Y-129560000D02*
X102301000Y-119440000D01*
X105261000Y-119440000D02*
X95340000Y-119440000D01*
X105261000Y-129560000D02*
X95340000Y-129560000D01*
X105261000Y-129560000D02*
X105261000Y-119440000D01*
X98320000Y-127000000D02*
G75*
G02*
X98465244Y-126316682I1680000J0D01*
G01*
X98465000Y-127684000D02*
G75*
G02*
X98319747Y-126971195I1535001J683999D01*
G01*
X99316000Y-125465000D02*
G75*
G02*
X100683042Y-125464573I684001J-1535004D01*
G01*
X100684000Y-128535000D02*
G75*
G02*
X99316958Y-128535427I-684001J1534993D01*
G01*
X101535000Y-126316000D02*
G75*
G02*
X101535427Y-127683042I-1534993J-684001D01*
G01*
X101680000Y-122000000D02*
G75*
G02*
X98320000Y-122000000I-1680000J0D01*
G01*
X98320000Y-122000000D02*
G75*
G02*
X101680000Y-122000000I1680000J0D01*
G01*
%TO.C,C15*%
X121509000Y-127858000D02*
X121509000Y-128662000D01*
X121549000Y-127627000D02*
X121549000Y-128893000D01*
X121589000Y-127458000D02*
X121589000Y-129062000D01*
X121629000Y-127320000D02*
X121629000Y-129200000D01*
X121669000Y-127201000D02*
X121669000Y-129319000D01*
X121709000Y-127095000D02*
X121709000Y-129425000D01*
X121749000Y-126998000D02*
X121749000Y-129522000D01*
X121789000Y-126910000D02*
X121789000Y-129610000D01*
X121829000Y-126828000D02*
X121829000Y-129692000D01*
X121869000Y-126751000D02*
X121869000Y-129769000D01*
X121909000Y-126679000D02*
X121909000Y-129841000D01*
X121949000Y-126610000D02*
X121949000Y-129910000D01*
X121989000Y-126546000D02*
X121989000Y-129974000D01*
X122029000Y-126484000D02*
X122029000Y-130036000D01*
X122069000Y-126426000D02*
X122069000Y-130094000D01*
X122109000Y-126370000D02*
X122109000Y-130150000D01*
X122149000Y-126316000D02*
X122149000Y-130204000D01*
X122189000Y-126265000D02*
X122189000Y-130255000D01*
X122229000Y-126216000D02*
X122229000Y-130304000D01*
X122269000Y-126168000D02*
X122269000Y-130352000D01*
X122309000Y-126123000D02*
X122309000Y-130397000D01*
X122349000Y-126078000D02*
X122349000Y-130442000D01*
X122389000Y-126036000D02*
X122389000Y-130484000D01*
X122429000Y-125995000D02*
X122429000Y-130525000D01*
X122469000Y-125955000D02*
X122469000Y-127220000D01*
X122469000Y-129300000D02*
X122469000Y-130565000D01*
X122509000Y-125917000D02*
X122509000Y-127220000D01*
X122509000Y-129300000D02*
X122509000Y-130603000D01*
X122549000Y-125880000D02*
X122549000Y-127220000D01*
X122549000Y-129300000D02*
X122549000Y-130640000D01*
X122589000Y-125844000D02*
X122589000Y-127220000D01*
X122589000Y-129300000D02*
X122589000Y-130676000D01*
X122629000Y-125810000D02*
X122629000Y-127220000D01*
X122629000Y-129300000D02*
X122629000Y-130710000D01*
X122669000Y-125776000D02*
X122669000Y-127220000D01*
X122669000Y-129300000D02*
X122669000Y-130744000D01*
X122709000Y-125744000D02*
X122709000Y-127220000D01*
X122709000Y-129300000D02*
X122709000Y-130776000D01*
X122749000Y-125712000D02*
X122749000Y-127220000D01*
X122749000Y-129300000D02*
X122749000Y-130808000D01*
X122789000Y-125682000D02*
X122789000Y-127220000D01*
X122789000Y-129300000D02*
X122789000Y-130838000D01*
X122829000Y-125653000D02*
X122829000Y-127220000D01*
X122829000Y-129300000D02*
X122829000Y-130867000D01*
X122869000Y-125624000D02*
X122869000Y-127220000D01*
X122869000Y-129300000D02*
X122869000Y-130896000D01*
X122909000Y-125596000D02*
X122909000Y-127220000D01*
X122909000Y-129300000D02*
X122909000Y-130924000D01*
X122949000Y-125570000D02*
X122949000Y-127220000D01*
X122949000Y-129300000D02*
X122949000Y-130950000D01*
X122989000Y-125544000D02*
X122989000Y-127220000D01*
X122989000Y-129300000D02*
X122989000Y-130976000D01*
X123029000Y-125518000D02*
X123029000Y-127220000D01*
X123029000Y-129300000D02*
X123029000Y-131002000D01*
X123069000Y-125494000D02*
X123069000Y-127220000D01*
X123069000Y-129300000D02*
X123069000Y-131026000D01*
X123109000Y-125470000D02*
X123109000Y-127220000D01*
X123109000Y-129300000D02*
X123109000Y-131050000D01*
X123149000Y-125448000D02*
X123149000Y-127220000D01*
X123149000Y-129300000D02*
X123149000Y-131072000D01*
X123189000Y-125426000D02*
X123189000Y-127220000D01*
X123189000Y-129300000D02*
X123189000Y-131094000D01*
X123229000Y-125404000D02*
X123229000Y-127220000D01*
X123229000Y-129300000D02*
X123229000Y-131116000D01*
X123269000Y-125384000D02*
X123269000Y-127220000D01*
X123269000Y-129300000D02*
X123269000Y-131136000D01*
X123309000Y-125364000D02*
X123309000Y-127220000D01*
X123309000Y-129300000D02*
X123309000Y-131156000D01*
X123349000Y-125344000D02*
X123349000Y-127220000D01*
X123349000Y-129300000D02*
X123349000Y-131176000D01*
X123389000Y-125326000D02*
X123389000Y-127220000D01*
X123389000Y-129300000D02*
X123389000Y-131194000D01*
X123429000Y-125308000D02*
X123429000Y-127220000D01*
X123429000Y-129300000D02*
X123429000Y-131212000D01*
X123469000Y-125290000D02*
X123469000Y-127220000D01*
X123469000Y-129300000D02*
X123469000Y-131230000D01*
X123509000Y-125274000D02*
X123509000Y-127220000D01*
X123509000Y-129300000D02*
X123509000Y-131246000D01*
X123549000Y-125258000D02*
X123549000Y-127220000D01*
X123549000Y-129300000D02*
X123549000Y-131262000D01*
X123589000Y-125242000D02*
X123589000Y-127220000D01*
X123589000Y-129300000D02*
X123589000Y-131278000D01*
X123629000Y-125227000D02*
X123629000Y-127220000D01*
X123629000Y-129300000D02*
X123629000Y-131293000D01*
X123669000Y-125213000D02*
X123669000Y-127220000D01*
X123669000Y-129300000D02*
X123669000Y-131307000D01*
X123709000Y-125199000D02*
X123709000Y-127220000D01*
X123709000Y-129300000D02*
X123709000Y-131321000D01*
X123749000Y-125186000D02*
X123749000Y-127220000D01*
X123749000Y-129300000D02*
X123749000Y-131334000D01*
X123789000Y-125174000D02*
X123789000Y-127220000D01*
X123789000Y-129300000D02*
X123789000Y-131346000D01*
X123829000Y-125162000D02*
X123829000Y-127220000D01*
X123829000Y-129300000D02*
X123829000Y-131358000D01*
X123869000Y-125150000D02*
X123869000Y-127220000D01*
X123869000Y-129300000D02*
X123869000Y-131370000D01*
X123909000Y-125139000D02*
X123909000Y-127220000D01*
X123909000Y-129300000D02*
X123909000Y-131381000D01*
X123949000Y-125129000D02*
X123949000Y-127220000D01*
X123949000Y-129300000D02*
X123949000Y-131391000D01*
X123989000Y-125119000D02*
X123989000Y-127220000D01*
X123989000Y-129300000D02*
X123989000Y-131401000D01*
X124029000Y-125110000D02*
X124029000Y-127220000D01*
X124029000Y-129300000D02*
X124029000Y-131410000D01*
X124070000Y-125101000D02*
X124070000Y-127220000D01*
X124070000Y-129300000D02*
X124070000Y-131419000D01*
X124110000Y-125093000D02*
X124110000Y-127220000D01*
X124110000Y-129300000D02*
X124110000Y-131427000D01*
X124150000Y-125085000D02*
X124150000Y-127220000D01*
X124150000Y-129300000D02*
X124150000Y-131435000D01*
X124190000Y-125078000D02*
X124190000Y-127220000D01*
X124190000Y-129300000D02*
X124190000Y-131442000D01*
X124230000Y-125071000D02*
X124230000Y-127220000D01*
X124230000Y-129300000D02*
X124230000Y-131449000D01*
X124270000Y-125065000D02*
X124270000Y-127220000D01*
X124270000Y-129300000D02*
X124270000Y-131455000D01*
X124310000Y-125059000D02*
X124310000Y-127220000D01*
X124310000Y-129300000D02*
X124310000Y-131461000D01*
X124350000Y-125054000D02*
X124350000Y-127220000D01*
X124350000Y-129300000D02*
X124350000Y-131466000D01*
X124390000Y-125049000D02*
X124390000Y-127220000D01*
X124390000Y-129300000D02*
X124390000Y-131471000D01*
X124430000Y-125045000D02*
X124430000Y-127220000D01*
X124430000Y-129300000D02*
X124430000Y-131475000D01*
X124470000Y-125042000D02*
X124470000Y-127220000D01*
X124470000Y-129300000D02*
X124470000Y-131478000D01*
X124510000Y-125038000D02*
X124510000Y-127220000D01*
X124510000Y-129300000D02*
X124510000Y-131482000D01*
X124550000Y-125036000D02*
X124550000Y-131484000D01*
X124590000Y-125033000D02*
X124590000Y-131487000D01*
X124630000Y-125032000D02*
X124630000Y-131488000D01*
X124670000Y-125030000D02*
X124670000Y-131490000D01*
X124710000Y-125030000D02*
X124710000Y-131490000D01*
X124750000Y-125030000D02*
X124750000Y-131490000D01*
X127935241Y-126106000D02*
X127935241Y-126736000D01*
X128250241Y-126421000D02*
X127620241Y-126421000D01*
X128020000Y-128260000D02*
G75*
G02*
X121480000Y-128260000I-3270000J0D01*
G01*
X121480000Y-128260000D02*
G75*
G02*
X128020000Y-128260000I3270000J0D01*
G01*
%TO.C,Rpullup1*%
X169880000Y-110000000D02*
X170650000Y-110000000D01*
X170650000Y-108630000D02*
X177190000Y-108630000D01*
X170650000Y-111370000D02*
X170650000Y-108630000D01*
X177190000Y-108630000D02*
X177190000Y-111370000D01*
X177190000Y-111370000D02*
X170650000Y-111370000D01*
X177960000Y-110000000D02*
X177190000Y-110000000D01*
%TO.C,RV1*%
X130670000Y-119530000D02*
X130670000Y-124670000D01*
X133330000Y-116930000D02*
X132000000Y-116930000D01*
X133330000Y-118260000D02*
X133330000Y-116930000D01*
X133330000Y-119530000D02*
X130670000Y-119530000D01*
X133330000Y-119530000D02*
X133330000Y-124670000D01*
X133330000Y-124670000D02*
X130670000Y-124670000D01*
%TO.C,Rpullup2*%
X170040000Y-115260000D02*
X170810000Y-115260000D01*
X170810000Y-113890000D02*
X177350000Y-113890000D01*
X170810000Y-116630000D02*
X170810000Y-113890000D01*
X177350000Y-113890000D02*
X177350000Y-116630000D01*
X177350000Y-116630000D02*
X170810000Y-116630000D01*
X178120000Y-115260000D02*
X177350000Y-115260000D01*
%TO.C,LS2*%
X95100000Y-66800000D02*
X95100000Y-66300000D01*
X95340000Y-66560000D02*
X95340000Y-56440000D01*
X95840000Y-66800000D02*
X95100000Y-66800000D01*
X95900000Y-66560000D02*
X95900000Y-56440000D01*
X97400000Y-66560000D02*
X97400000Y-56440000D01*
X98761000Y-60034000D02*
X98726000Y-60069000D01*
X98977000Y-60227000D02*
X98931000Y-60274000D01*
X101069000Y-57725000D02*
X101023000Y-57772000D01*
X101275000Y-57930000D02*
X101239000Y-57965000D01*
X102301000Y-66560000D02*
X102301000Y-56440000D01*
X105261000Y-56440000D02*
X95340000Y-56440000D01*
X105261000Y-66560000D02*
X95340000Y-66560000D01*
X105261000Y-66560000D02*
X105261000Y-56440000D01*
X98320000Y-64000000D02*
G75*
G02*
X98465244Y-63316682I1680000J0D01*
G01*
X98465000Y-64684000D02*
G75*
G02*
X98319747Y-63971195I1535001J683999D01*
G01*
X99316000Y-62465000D02*
G75*
G02*
X100683042Y-62464573I684001J-1535004D01*
G01*
X100684000Y-65535000D02*
G75*
G02*
X99316958Y-65535427I-684001J1534993D01*
G01*
X101535000Y-63316000D02*
G75*
G02*
X101535427Y-64683042I-1534993J-684001D01*
G01*
X101680000Y-59000000D02*
G75*
G02*
X98320000Y-59000000I-1680000J0D01*
G01*
X98320000Y-59000000D02*
G75*
G02*
X101680000Y-59000000I1680000J0D01*
G01*
D10*
%TO.C,TP11*%
X187400000Y-84000000D02*
G75*
G02*
X184600000Y-84000000I-1400000J0D01*
G01*
X184600000Y-84000000D02*
G75*
G02*
X187400000Y-84000000I1400000J0D01*
G01*
D12*
%TO.C,C8*%
X107859420Y-120490000D02*
X108140580Y-120490000D01*
X107859420Y-121510000D02*
X108140580Y-121510000D01*
%TD*%
M02*
