%TF.GenerationSoftware,KiCad,Pcbnew,9.0.3*%
%TF.CreationDate,2025-07-08T18:12:23-07:00*%
%TF.ProjectId,pcb_schematics,7063625f-7363-4686-956d-61746963732e,rev?*%
%TF.SameCoordinates,Original*%
%TF.FileFunction,Legend,Top*%
%TF.FilePolarity,Positive*%
%FSLAX46Y46*%
G04 Gerber Fmt 4.6, Leading zero omitted, Abs format (unit mm)*
G04 Created by KiCad (PCBNEW 9.0.3) date 2025-07-08 18:12:23*
%MOMM*%
%LPD*%
G01*
G04 APERTURE LIST*
%ADD10C,0.150000*%
%ADD11C,0.120000*%
%ADD12C,0.250000*%
G04 APERTURE END LIST*
D10*
X118939580Y-73892857D02*
X118987200Y-73940476D01*
X118987200Y-73940476D02*
X119034819Y-74083333D01*
X119034819Y-74083333D02*
X119034819Y-74178571D01*
X119034819Y-74178571D02*
X118987200Y-74321428D01*
X118987200Y-74321428D02*
X118891961Y-74416666D01*
X118891961Y-74416666D02*
X118796723Y-74464285D01*
X118796723Y-74464285D02*
X118606247Y-74511904D01*
X118606247Y-74511904D02*
X118463390Y-74511904D01*
X118463390Y-74511904D02*
X118272914Y-74464285D01*
X118272914Y-74464285D02*
X118177676Y-74416666D01*
X118177676Y-74416666D02*
X118082438Y-74321428D01*
X118082438Y-74321428D02*
X118034819Y-74178571D01*
X118034819Y-74178571D02*
X118034819Y-74083333D01*
X118034819Y-74083333D02*
X118082438Y-73940476D01*
X118082438Y-73940476D02*
X118130057Y-73892857D01*
X119034819Y-72940476D02*
X119034819Y-73511904D01*
X119034819Y-73226190D02*
X118034819Y-73226190D01*
X118034819Y-73226190D02*
X118177676Y-73321428D01*
X118177676Y-73321428D02*
X118272914Y-73416666D01*
X118272914Y-73416666D02*
X118320533Y-73511904D01*
X119034819Y-71988095D02*
X119034819Y-72559523D01*
X119034819Y-72273809D02*
X118034819Y-72273809D01*
X118034819Y-72273809D02*
X118177676Y-72369047D01*
X118177676Y-72369047D02*
X118272914Y-72464285D01*
X118272914Y-72464285D02*
X118320533Y-72559523D01*
X171779580Y-68916666D02*
X171827200Y-68964285D01*
X171827200Y-68964285D02*
X171874819Y-69107142D01*
X171874819Y-69107142D02*
X171874819Y-69202380D01*
X171874819Y-69202380D02*
X171827200Y-69345237D01*
X171827200Y-69345237D02*
X171731961Y-69440475D01*
X171731961Y-69440475D02*
X171636723Y-69488094D01*
X171636723Y-69488094D02*
X171446247Y-69535713D01*
X171446247Y-69535713D02*
X171303390Y-69535713D01*
X171303390Y-69535713D02*
X171112914Y-69488094D01*
X171112914Y-69488094D02*
X171017676Y-69440475D01*
X171017676Y-69440475D02*
X170922438Y-69345237D01*
X170922438Y-69345237D02*
X170874819Y-69202380D01*
X170874819Y-69202380D02*
X170874819Y-69107142D01*
X170874819Y-69107142D02*
X170922438Y-68964285D01*
X170922438Y-68964285D02*
X170970057Y-68916666D01*
X171874819Y-67964285D02*
X171874819Y-68535713D01*
X171874819Y-68249999D02*
X170874819Y-68249999D01*
X170874819Y-68249999D02*
X171017676Y-68345237D01*
X171017676Y-68345237D02*
X171112914Y-68440475D01*
X171112914Y-68440475D02*
X171160533Y-68535713D01*
X138084819Y-52346666D02*
X137608628Y-52679999D01*
X138084819Y-52918094D02*
X137084819Y-52918094D01*
X137084819Y-52918094D02*
X137084819Y-52537142D01*
X137084819Y-52537142D02*
X137132438Y-52441904D01*
X137132438Y-52441904D02*
X137180057Y-52394285D01*
X137180057Y-52394285D02*
X137275295Y-52346666D01*
X137275295Y-52346666D02*
X137418152Y-52346666D01*
X137418152Y-52346666D02*
X137513390Y-52394285D01*
X137513390Y-52394285D02*
X137561009Y-52441904D01*
X137561009Y-52441904D02*
X137608628Y-52537142D01*
X137608628Y-52537142D02*
X137608628Y-52918094D01*
X137084819Y-51489523D02*
X137084819Y-51679999D01*
X137084819Y-51679999D02*
X137132438Y-51775237D01*
X137132438Y-51775237D02*
X137180057Y-51822856D01*
X137180057Y-51822856D02*
X137322914Y-51918094D01*
X137322914Y-51918094D02*
X137513390Y-51965713D01*
X137513390Y-51965713D02*
X137894342Y-51965713D01*
X137894342Y-51965713D02*
X137989580Y-51918094D01*
X137989580Y-51918094D02*
X138037200Y-51870475D01*
X138037200Y-51870475D02*
X138084819Y-51775237D01*
X138084819Y-51775237D02*
X138084819Y-51584761D01*
X138084819Y-51584761D02*
X138037200Y-51489523D01*
X138037200Y-51489523D02*
X137989580Y-51441904D01*
X137989580Y-51441904D02*
X137894342Y-51394285D01*
X137894342Y-51394285D02*
X137656247Y-51394285D01*
X137656247Y-51394285D02*
X137561009Y-51441904D01*
X137561009Y-51441904D02*
X137513390Y-51489523D01*
X137513390Y-51489523D02*
X137465771Y-51584761D01*
X137465771Y-51584761D02*
X137465771Y-51775237D01*
X137465771Y-51775237D02*
X137513390Y-51870475D01*
X137513390Y-51870475D02*
X137561009Y-51918094D01*
X137561009Y-51918094D02*
X137656247Y-51965713D01*
X168738095Y-118954819D02*
X169309523Y-118954819D01*
X169023809Y-119954819D02*
X169023809Y-118954819D01*
X169642857Y-119954819D02*
X169642857Y-118954819D01*
X169642857Y-118954819D02*
X170023809Y-118954819D01*
X170023809Y-118954819D02*
X170119047Y-119002438D01*
X170119047Y-119002438D02*
X170166666Y-119050057D01*
X170166666Y-119050057D02*
X170214285Y-119145295D01*
X170214285Y-119145295D02*
X170214285Y-119288152D01*
X170214285Y-119288152D02*
X170166666Y-119383390D01*
X170166666Y-119383390D02*
X170119047Y-119431009D01*
X170119047Y-119431009D02*
X170023809Y-119478628D01*
X170023809Y-119478628D02*
X169642857Y-119478628D01*
X170595238Y-119050057D02*
X170642857Y-119002438D01*
X170642857Y-119002438D02*
X170738095Y-118954819D01*
X170738095Y-118954819D02*
X170976190Y-118954819D01*
X170976190Y-118954819D02*
X171071428Y-119002438D01*
X171071428Y-119002438D02*
X171119047Y-119050057D01*
X171119047Y-119050057D02*
X171166666Y-119145295D01*
X171166666Y-119145295D02*
X171166666Y-119240533D01*
X171166666Y-119240533D02*
X171119047Y-119383390D01*
X171119047Y-119383390D02*
X170547619Y-119954819D01*
X170547619Y-119954819D02*
X171166666Y-119954819D01*
X159261905Y-50954819D02*
X159833333Y-50954819D01*
X159547619Y-51954819D02*
X159547619Y-50954819D01*
X160166667Y-51954819D02*
X160166667Y-50954819D01*
X160166667Y-50954819D02*
X160547619Y-50954819D01*
X160547619Y-50954819D02*
X160642857Y-51002438D01*
X160642857Y-51002438D02*
X160690476Y-51050057D01*
X160690476Y-51050057D02*
X160738095Y-51145295D01*
X160738095Y-51145295D02*
X160738095Y-51288152D01*
X160738095Y-51288152D02*
X160690476Y-51383390D01*
X160690476Y-51383390D02*
X160642857Y-51431009D01*
X160642857Y-51431009D02*
X160547619Y-51478628D01*
X160547619Y-51478628D02*
X160166667Y-51478628D01*
X161690476Y-51954819D02*
X161119048Y-51954819D01*
X161404762Y-51954819D02*
X161404762Y-50954819D01*
X161404762Y-50954819D02*
X161309524Y-51097676D01*
X161309524Y-51097676D02*
X161214286Y-51192914D01*
X161214286Y-51192914D02*
X161119048Y-51240533D01*
X162261905Y-51383390D02*
X162166667Y-51335771D01*
X162166667Y-51335771D02*
X162119048Y-51288152D01*
X162119048Y-51288152D02*
X162071429Y-51192914D01*
X162071429Y-51192914D02*
X162071429Y-51145295D01*
X162071429Y-51145295D02*
X162119048Y-51050057D01*
X162119048Y-51050057D02*
X162166667Y-51002438D01*
X162166667Y-51002438D02*
X162261905Y-50954819D01*
X162261905Y-50954819D02*
X162452381Y-50954819D01*
X162452381Y-50954819D02*
X162547619Y-51002438D01*
X162547619Y-51002438D02*
X162595238Y-51050057D01*
X162595238Y-51050057D02*
X162642857Y-51145295D01*
X162642857Y-51145295D02*
X162642857Y-51192914D01*
X162642857Y-51192914D02*
X162595238Y-51288152D01*
X162595238Y-51288152D02*
X162547619Y-51335771D01*
X162547619Y-51335771D02*
X162452381Y-51383390D01*
X162452381Y-51383390D02*
X162261905Y-51383390D01*
X162261905Y-51383390D02*
X162166667Y-51431009D01*
X162166667Y-51431009D02*
X162119048Y-51478628D01*
X162119048Y-51478628D02*
X162071429Y-51573866D01*
X162071429Y-51573866D02*
X162071429Y-51764342D01*
X162071429Y-51764342D02*
X162119048Y-51859580D01*
X162119048Y-51859580D02*
X162166667Y-51907200D01*
X162166667Y-51907200D02*
X162261905Y-51954819D01*
X162261905Y-51954819D02*
X162452381Y-51954819D01*
X162452381Y-51954819D02*
X162547619Y-51907200D01*
X162547619Y-51907200D02*
X162595238Y-51859580D01*
X162595238Y-51859580D02*
X162642857Y-51764342D01*
X162642857Y-51764342D02*
X162642857Y-51573866D01*
X162642857Y-51573866D02*
X162595238Y-51478628D01*
X162595238Y-51478628D02*
X162547619Y-51431009D01*
X162547619Y-51431009D02*
X162452381Y-51383390D01*
X176939580Y-69892857D02*
X176987200Y-69940476D01*
X176987200Y-69940476D02*
X177034819Y-70083333D01*
X177034819Y-70083333D02*
X177034819Y-70178571D01*
X177034819Y-70178571D02*
X176987200Y-70321428D01*
X176987200Y-70321428D02*
X176891961Y-70416666D01*
X176891961Y-70416666D02*
X176796723Y-70464285D01*
X176796723Y-70464285D02*
X176606247Y-70511904D01*
X176606247Y-70511904D02*
X176463390Y-70511904D01*
X176463390Y-70511904D02*
X176272914Y-70464285D01*
X176272914Y-70464285D02*
X176177676Y-70416666D01*
X176177676Y-70416666D02*
X176082438Y-70321428D01*
X176082438Y-70321428D02*
X176034819Y-70178571D01*
X176034819Y-70178571D02*
X176034819Y-70083333D01*
X176034819Y-70083333D02*
X176082438Y-69940476D01*
X176082438Y-69940476D02*
X176130057Y-69892857D01*
X177034819Y-68940476D02*
X177034819Y-69511904D01*
X177034819Y-69226190D02*
X176034819Y-69226190D01*
X176034819Y-69226190D02*
X176177676Y-69321428D01*
X176177676Y-69321428D02*
X176272914Y-69416666D01*
X176272914Y-69416666D02*
X176320533Y-69511904D01*
X176368152Y-68083333D02*
X177034819Y-68083333D01*
X175987200Y-68321428D02*
X176701485Y-68559523D01*
X176701485Y-68559523D02*
X176701485Y-67940476D01*
X119954819Y-55508572D02*
X119478628Y-55841905D01*
X119954819Y-56080000D02*
X118954819Y-56080000D01*
X118954819Y-56080000D02*
X118954819Y-55699048D01*
X118954819Y-55699048D02*
X119002438Y-55603810D01*
X119002438Y-55603810D02*
X119050057Y-55556191D01*
X119050057Y-55556191D02*
X119145295Y-55508572D01*
X119145295Y-55508572D02*
X119288152Y-55508572D01*
X119288152Y-55508572D02*
X119383390Y-55556191D01*
X119383390Y-55556191D02*
X119431009Y-55603810D01*
X119431009Y-55603810D02*
X119478628Y-55699048D01*
X119478628Y-55699048D02*
X119478628Y-56080000D01*
X120050057Y-55318096D02*
X120050057Y-54556191D01*
X119954819Y-54318095D02*
X118954819Y-54318095D01*
X118954819Y-54318095D02*
X118954819Y-53937143D01*
X118954819Y-53937143D02*
X119002438Y-53841905D01*
X119002438Y-53841905D02*
X119050057Y-53794286D01*
X119050057Y-53794286D02*
X119145295Y-53746667D01*
X119145295Y-53746667D02*
X119288152Y-53746667D01*
X119288152Y-53746667D02*
X119383390Y-53794286D01*
X119383390Y-53794286D02*
X119431009Y-53841905D01*
X119431009Y-53841905D02*
X119478628Y-53937143D01*
X119478628Y-53937143D02*
X119478628Y-54318095D01*
X119288152Y-52889524D02*
X119954819Y-52889524D01*
X119288152Y-53318095D02*
X119811961Y-53318095D01*
X119811961Y-53318095D02*
X119907200Y-53270476D01*
X119907200Y-53270476D02*
X119954819Y-53175238D01*
X119954819Y-53175238D02*
X119954819Y-53032381D01*
X119954819Y-53032381D02*
X119907200Y-52937143D01*
X119907200Y-52937143D02*
X119859580Y-52889524D01*
X119954819Y-52270476D02*
X119907200Y-52365714D01*
X119907200Y-52365714D02*
X119811961Y-52413333D01*
X119811961Y-52413333D02*
X118954819Y-52413333D01*
X119954819Y-51746666D02*
X119907200Y-51841904D01*
X119907200Y-51841904D02*
X119811961Y-51889523D01*
X119811961Y-51889523D02*
X118954819Y-51889523D01*
X119288152Y-50937142D02*
X119954819Y-50937142D01*
X119288152Y-51365713D02*
X119811961Y-51365713D01*
X119811961Y-51365713D02*
X119907200Y-51318094D01*
X119907200Y-51318094D02*
X119954819Y-51222856D01*
X119954819Y-51222856D02*
X119954819Y-51079999D01*
X119954819Y-51079999D02*
X119907200Y-50984761D01*
X119907200Y-50984761D02*
X119859580Y-50937142D01*
X119288152Y-50460951D02*
X120288152Y-50460951D01*
X119335771Y-50460951D02*
X119288152Y-50365713D01*
X119288152Y-50365713D02*
X119288152Y-50175237D01*
X119288152Y-50175237D02*
X119335771Y-50079999D01*
X119335771Y-50079999D02*
X119383390Y-50032380D01*
X119383390Y-50032380D02*
X119478628Y-49984761D01*
X119478628Y-49984761D02*
X119764342Y-49984761D01*
X119764342Y-49984761D02*
X119859580Y-50032380D01*
X119859580Y-50032380D02*
X119907200Y-50079999D01*
X119907200Y-50079999D02*
X119954819Y-50175237D01*
X119954819Y-50175237D02*
X119954819Y-50365713D01*
X119954819Y-50365713D02*
X119907200Y-50460951D01*
X118954819Y-49079999D02*
X118954819Y-49556189D01*
X118954819Y-49556189D02*
X119431009Y-49603808D01*
X119431009Y-49603808D02*
X119383390Y-49556189D01*
X119383390Y-49556189D02*
X119335771Y-49460951D01*
X119335771Y-49460951D02*
X119335771Y-49222856D01*
X119335771Y-49222856D02*
X119383390Y-49127618D01*
X119383390Y-49127618D02*
X119431009Y-49079999D01*
X119431009Y-49079999D02*
X119526247Y-49032380D01*
X119526247Y-49032380D02*
X119764342Y-49032380D01*
X119764342Y-49032380D02*
X119859580Y-49079999D01*
X119859580Y-49079999D02*
X119907200Y-49127618D01*
X119907200Y-49127618D02*
X119954819Y-49222856D01*
X119954819Y-49222856D02*
X119954819Y-49460951D01*
X119954819Y-49460951D02*
X119907200Y-49556189D01*
X119907200Y-49556189D02*
X119859580Y-49603808D01*
X120124819Y-46093333D02*
X120839104Y-46093333D01*
X120839104Y-46093333D02*
X120981961Y-46140952D01*
X120981961Y-46140952D02*
X121077200Y-46236190D01*
X121077200Y-46236190D02*
X121124819Y-46379047D01*
X121124819Y-46379047D02*
X121124819Y-46474285D01*
X120124819Y-45140952D02*
X120124819Y-45617142D01*
X120124819Y-45617142D02*
X120601009Y-45664761D01*
X120601009Y-45664761D02*
X120553390Y-45617142D01*
X120553390Y-45617142D02*
X120505771Y-45521904D01*
X120505771Y-45521904D02*
X120505771Y-45283809D01*
X120505771Y-45283809D02*
X120553390Y-45188571D01*
X120553390Y-45188571D02*
X120601009Y-45140952D01*
X120601009Y-45140952D02*
X120696247Y-45093333D01*
X120696247Y-45093333D02*
X120934342Y-45093333D01*
X120934342Y-45093333D02*
X121029580Y-45140952D01*
X121029580Y-45140952D02*
X121077200Y-45188571D01*
X121077200Y-45188571D02*
X121124819Y-45283809D01*
X121124819Y-45283809D02*
X121124819Y-45521904D01*
X121124819Y-45521904D02*
X121077200Y-45617142D01*
X121077200Y-45617142D02*
X121029580Y-45664761D01*
X119084819Y-60086666D02*
X118608628Y-60419999D01*
X119084819Y-60658094D02*
X118084819Y-60658094D01*
X118084819Y-60658094D02*
X118084819Y-60277142D01*
X118084819Y-60277142D02*
X118132438Y-60181904D01*
X118132438Y-60181904D02*
X118180057Y-60134285D01*
X118180057Y-60134285D02*
X118275295Y-60086666D01*
X118275295Y-60086666D02*
X118418152Y-60086666D01*
X118418152Y-60086666D02*
X118513390Y-60134285D01*
X118513390Y-60134285D02*
X118561009Y-60181904D01*
X118561009Y-60181904D02*
X118608628Y-60277142D01*
X118608628Y-60277142D02*
X118608628Y-60658094D01*
X118513390Y-59515237D02*
X118465771Y-59610475D01*
X118465771Y-59610475D02*
X118418152Y-59658094D01*
X118418152Y-59658094D02*
X118322914Y-59705713D01*
X118322914Y-59705713D02*
X118275295Y-59705713D01*
X118275295Y-59705713D02*
X118180057Y-59658094D01*
X118180057Y-59658094D02*
X118132438Y-59610475D01*
X118132438Y-59610475D02*
X118084819Y-59515237D01*
X118084819Y-59515237D02*
X118084819Y-59324761D01*
X118084819Y-59324761D02*
X118132438Y-59229523D01*
X118132438Y-59229523D02*
X118180057Y-59181904D01*
X118180057Y-59181904D02*
X118275295Y-59134285D01*
X118275295Y-59134285D02*
X118322914Y-59134285D01*
X118322914Y-59134285D02*
X118418152Y-59181904D01*
X118418152Y-59181904D02*
X118465771Y-59229523D01*
X118465771Y-59229523D02*
X118513390Y-59324761D01*
X118513390Y-59324761D02*
X118513390Y-59515237D01*
X118513390Y-59515237D02*
X118561009Y-59610475D01*
X118561009Y-59610475D02*
X118608628Y-59658094D01*
X118608628Y-59658094D02*
X118703866Y-59705713D01*
X118703866Y-59705713D02*
X118894342Y-59705713D01*
X118894342Y-59705713D02*
X118989580Y-59658094D01*
X118989580Y-59658094D02*
X119037200Y-59610475D01*
X119037200Y-59610475D02*
X119084819Y-59515237D01*
X119084819Y-59515237D02*
X119084819Y-59324761D01*
X119084819Y-59324761D02*
X119037200Y-59229523D01*
X119037200Y-59229523D02*
X118989580Y-59181904D01*
X118989580Y-59181904D02*
X118894342Y-59134285D01*
X118894342Y-59134285D02*
X118703866Y-59134285D01*
X118703866Y-59134285D02*
X118608628Y-59181904D01*
X118608628Y-59181904D02*
X118561009Y-59229523D01*
X118561009Y-59229523D02*
X118513390Y-59324761D01*
X189238095Y-134504819D02*
X189238095Y-133504819D01*
X189238095Y-133981009D02*
X189809523Y-133981009D01*
X189809523Y-134504819D02*
X189809523Y-133504819D01*
X190190476Y-133504819D02*
X190809523Y-133504819D01*
X190809523Y-133504819D02*
X190476190Y-133885771D01*
X190476190Y-133885771D02*
X190619047Y-133885771D01*
X190619047Y-133885771D02*
X190714285Y-133933390D01*
X190714285Y-133933390D02*
X190761904Y-133981009D01*
X190761904Y-133981009D02*
X190809523Y-134076247D01*
X190809523Y-134076247D02*
X190809523Y-134314342D01*
X190809523Y-134314342D02*
X190761904Y-134409580D01*
X190761904Y-134409580D02*
X190714285Y-134457200D01*
X190714285Y-134457200D02*
X190619047Y-134504819D01*
X190619047Y-134504819D02*
X190333333Y-134504819D01*
X190333333Y-134504819D02*
X190238095Y-134457200D01*
X190238095Y-134457200D02*
X190190476Y-134409580D01*
X164824819Y-127008572D02*
X164348628Y-127341905D01*
X164824819Y-127580000D02*
X163824819Y-127580000D01*
X163824819Y-127580000D02*
X163824819Y-127199048D01*
X163824819Y-127199048D02*
X163872438Y-127103810D01*
X163872438Y-127103810D02*
X163920057Y-127056191D01*
X163920057Y-127056191D02*
X164015295Y-127008572D01*
X164015295Y-127008572D02*
X164158152Y-127008572D01*
X164158152Y-127008572D02*
X164253390Y-127056191D01*
X164253390Y-127056191D02*
X164301009Y-127103810D01*
X164301009Y-127103810D02*
X164348628Y-127199048D01*
X164348628Y-127199048D02*
X164348628Y-127580000D01*
X164920057Y-126818096D02*
X164920057Y-126056191D01*
X164824819Y-125818095D02*
X163824819Y-125818095D01*
X163824819Y-125818095D02*
X163824819Y-125437143D01*
X163824819Y-125437143D02*
X163872438Y-125341905D01*
X163872438Y-125341905D02*
X163920057Y-125294286D01*
X163920057Y-125294286D02*
X164015295Y-125246667D01*
X164015295Y-125246667D02*
X164158152Y-125246667D01*
X164158152Y-125246667D02*
X164253390Y-125294286D01*
X164253390Y-125294286D02*
X164301009Y-125341905D01*
X164301009Y-125341905D02*
X164348628Y-125437143D01*
X164348628Y-125437143D02*
X164348628Y-125818095D01*
X164158152Y-124389524D02*
X164824819Y-124389524D01*
X164158152Y-124818095D02*
X164681961Y-124818095D01*
X164681961Y-124818095D02*
X164777200Y-124770476D01*
X164777200Y-124770476D02*
X164824819Y-124675238D01*
X164824819Y-124675238D02*
X164824819Y-124532381D01*
X164824819Y-124532381D02*
X164777200Y-124437143D01*
X164777200Y-124437143D02*
X164729580Y-124389524D01*
X164824819Y-123770476D02*
X164777200Y-123865714D01*
X164777200Y-123865714D02*
X164681961Y-123913333D01*
X164681961Y-123913333D02*
X163824819Y-123913333D01*
X164824819Y-123246666D02*
X164777200Y-123341904D01*
X164777200Y-123341904D02*
X164681961Y-123389523D01*
X164681961Y-123389523D02*
X163824819Y-123389523D01*
X164158152Y-122437142D02*
X164824819Y-122437142D01*
X164158152Y-122865713D02*
X164681961Y-122865713D01*
X164681961Y-122865713D02*
X164777200Y-122818094D01*
X164777200Y-122818094D02*
X164824819Y-122722856D01*
X164824819Y-122722856D02*
X164824819Y-122579999D01*
X164824819Y-122579999D02*
X164777200Y-122484761D01*
X164777200Y-122484761D02*
X164729580Y-122437142D01*
X164158152Y-121960951D02*
X165158152Y-121960951D01*
X164205771Y-121960951D02*
X164158152Y-121865713D01*
X164158152Y-121865713D02*
X164158152Y-121675237D01*
X164158152Y-121675237D02*
X164205771Y-121579999D01*
X164205771Y-121579999D02*
X164253390Y-121532380D01*
X164253390Y-121532380D02*
X164348628Y-121484761D01*
X164348628Y-121484761D02*
X164634342Y-121484761D01*
X164634342Y-121484761D02*
X164729580Y-121532380D01*
X164729580Y-121532380D02*
X164777200Y-121579999D01*
X164777200Y-121579999D02*
X164824819Y-121675237D01*
X164824819Y-121675237D02*
X164824819Y-121865713D01*
X164824819Y-121865713D02*
X164777200Y-121960951D01*
X163824819Y-121151427D02*
X163824819Y-120532380D01*
X163824819Y-120532380D02*
X164205771Y-120865713D01*
X164205771Y-120865713D02*
X164205771Y-120722856D01*
X164205771Y-120722856D02*
X164253390Y-120627618D01*
X164253390Y-120627618D02*
X164301009Y-120579999D01*
X164301009Y-120579999D02*
X164396247Y-120532380D01*
X164396247Y-120532380D02*
X164634342Y-120532380D01*
X164634342Y-120532380D02*
X164729580Y-120579999D01*
X164729580Y-120579999D02*
X164777200Y-120627618D01*
X164777200Y-120627618D02*
X164824819Y-120722856D01*
X164824819Y-120722856D02*
X164824819Y-121008570D01*
X164824819Y-121008570D02*
X164777200Y-121103808D01*
X164777200Y-121103808D02*
X164729580Y-121151427D01*
X144261905Y-47954819D02*
X144833333Y-47954819D01*
X144547619Y-48954819D02*
X144547619Y-47954819D01*
X145166667Y-48954819D02*
X145166667Y-47954819D01*
X145166667Y-47954819D02*
X145547619Y-47954819D01*
X145547619Y-47954819D02*
X145642857Y-48002438D01*
X145642857Y-48002438D02*
X145690476Y-48050057D01*
X145690476Y-48050057D02*
X145738095Y-48145295D01*
X145738095Y-48145295D02*
X145738095Y-48288152D01*
X145738095Y-48288152D02*
X145690476Y-48383390D01*
X145690476Y-48383390D02*
X145642857Y-48431009D01*
X145642857Y-48431009D02*
X145547619Y-48478628D01*
X145547619Y-48478628D02*
X145166667Y-48478628D01*
X146690476Y-48954819D02*
X146119048Y-48954819D01*
X146404762Y-48954819D02*
X146404762Y-47954819D01*
X146404762Y-47954819D02*
X146309524Y-48097676D01*
X146309524Y-48097676D02*
X146214286Y-48192914D01*
X146214286Y-48192914D02*
X146119048Y-48240533D01*
X147166667Y-48954819D02*
X147357143Y-48954819D01*
X147357143Y-48954819D02*
X147452381Y-48907200D01*
X147452381Y-48907200D02*
X147500000Y-48859580D01*
X147500000Y-48859580D02*
X147595238Y-48716723D01*
X147595238Y-48716723D02*
X147642857Y-48526247D01*
X147642857Y-48526247D02*
X147642857Y-48145295D01*
X147642857Y-48145295D02*
X147595238Y-48050057D01*
X147595238Y-48050057D02*
X147547619Y-48002438D01*
X147547619Y-48002438D02*
X147452381Y-47954819D01*
X147452381Y-47954819D02*
X147261905Y-47954819D01*
X147261905Y-47954819D02*
X147166667Y-48002438D01*
X147166667Y-48002438D02*
X147119048Y-48050057D01*
X147119048Y-48050057D02*
X147071429Y-48145295D01*
X147071429Y-48145295D02*
X147071429Y-48383390D01*
X147071429Y-48383390D02*
X147119048Y-48478628D01*
X147119048Y-48478628D02*
X147166667Y-48526247D01*
X147166667Y-48526247D02*
X147261905Y-48573866D01*
X147261905Y-48573866D02*
X147452381Y-48573866D01*
X147452381Y-48573866D02*
X147547619Y-48526247D01*
X147547619Y-48526247D02*
X147595238Y-48478628D01*
X147595238Y-48478628D02*
X147642857Y-48383390D01*
X180261905Y-45214819D02*
X180833333Y-45214819D01*
X180547619Y-46214819D02*
X180547619Y-45214819D01*
X181166667Y-46214819D02*
X181166667Y-45214819D01*
X181166667Y-45214819D02*
X181547619Y-45214819D01*
X181547619Y-45214819D02*
X181642857Y-45262438D01*
X181642857Y-45262438D02*
X181690476Y-45310057D01*
X181690476Y-45310057D02*
X181738095Y-45405295D01*
X181738095Y-45405295D02*
X181738095Y-45548152D01*
X181738095Y-45548152D02*
X181690476Y-45643390D01*
X181690476Y-45643390D02*
X181642857Y-45691009D01*
X181642857Y-45691009D02*
X181547619Y-45738628D01*
X181547619Y-45738628D02*
X181166667Y-45738628D01*
X182690476Y-46214819D02*
X182119048Y-46214819D01*
X182404762Y-46214819D02*
X182404762Y-45214819D01*
X182404762Y-45214819D02*
X182309524Y-45357676D01*
X182309524Y-45357676D02*
X182214286Y-45452914D01*
X182214286Y-45452914D02*
X182119048Y-45500533D01*
X183547619Y-45548152D02*
X183547619Y-46214819D01*
X183309524Y-45167200D02*
X183071429Y-45881485D01*
X183071429Y-45881485D02*
X183690476Y-45881485D01*
X127261905Y-47954819D02*
X127833333Y-47954819D01*
X127547619Y-48954819D02*
X127547619Y-47954819D01*
X128166667Y-48954819D02*
X128166667Y-47954819D01*
X128166667Y-47954819D02*
X128547619Y-47954819D01*
X128547619Y-47954819D02*
X128642857Y-48002438D01*
X128642857Y-48002438D02*
X128690476Y-48050057D01*
X128690476Y-48050057D02*
X128738095Y-48145295D01*
X128738095Y-48145295D02*
X128738095Y-48288152D01*
X128738095Y-48288152D02*
X128690476Y-48383390D01*
X128690476Y-48383390D02*
X128642857Y-48431009D01*
X128642857Y-48431009D02*
X128547619Y-48478628D01*
X128547619Y-48478628D02*
X128166667Y-48478628D01*
X129690476Y-48954819D02*
X129119048Y-48954819D01*
X129404762Y-48954819D02*
X129404762Y-47954819D01*
X129404762Y-47954819D02*
X129309524Y-48097676D01*
X129309524Y-48097676D02*
X129214286Y-48192914D01*
X129214286Y-48192914D02*
X129119048Y-48240533D01*
X130547619Y-47954819D02*
X130357143Y-47954819D01*
X130357143Y-47954819D02*
X130261905Y-48002438D01*
X130261905Y-48002438D02*
X130214286Y-48050057D01*
X130214286Y-48050057D02*
X130119048Y-48192914D01*
X130119048Y-48192914D02*
X130071429Y-48383390D01*
X130071429Y-48383390D02*
X130071429Y-48764342D01*
X130071429Y-48764342D02*
X130119048Y-48859580D01*
X130119048Y-48859580D02*
X130166667Y-48907200D01*
X130166667Y-48907200D02*
X130261905Y-48954819D01*
X130261905Y-48954819D02*
X130452381Y-48954819D01*
X130452381Y-48954819D02*
X130547619Y-48907200D01*
X130547619Y-48907200D02*
X130595238Y-48859580D01*
X130595238Y-48859580D02*
X130642857Y-48764342D01*
X130642857Y-48764342D02*
X130642857Y-48526247D01*
X130642857Y-48526247D02*
X130595238Y-48431009D01*
X130595238Y-48431009D02*
X130547619Y-48383390D01*
X130547619Y-48383390D02*
X130452381Y-48335771D01*
X130452381Y-48335771D02*
X130261905Y-48335771D01*
X130261905Y-48335771D02*
X130166667Y-48383390D01*
X130166667Y-48383390D02*
X130119048Y-48431009D01*
X130119048Y-48431009D02*
X130071429Y-48526247D01*
X159350055Y-54246666D02*
X158873864Y-54579999D01*
X159350055Y-54818094D02*
X158350055Y-54818094D01*
X158350055Y-54818094D02*
X158350055Y-54437142D01*
X158350055Y-54437142D02*
X158397674Y-54341904D01*
X158397674Y-54341904D02*
X158445293Y-54294285D01*
X158445293Y-54294285D02*
X158540531Y-54246666D01*
X158540531Y-54246666D02*
X158683388Y-54246666D01*
X158683388Y-54246666D02*
X158778626Y-54294285D01*
X158778626Y-54294285D02*
X158826245Y-54341904D01*
X158826245Y-54341904D02*
X158873864Y-54437142D01*
X158873864Y-54437142D02*
X158873864Y-54818094D01*
X158350055Y-53341904D02*
X158350055Y-53818094D01*
X158350055Y-53818094D02*
X158826245Y-53865713D01*
X158826245Y-53865713D02*
X158778626Y-53818094D01*
X158778626Y-53818094D02*
X158731007Y-53722856D01*
X158731007Y-53722856D02*
X158731007Y-53484761D01*
X158731007Y-53484761D02*
X158778626Y-53389523D01*
X158778626Y-53389523D02*
X158826245Y-53341904D01*
X158826245Y-53341904D02*
X158921483Y-53294285D01*
X158921483Y-53294285D02*
X159159578Y-53294285D01*
X159159578Y-53294285D02*
X159254816Y-53341904D01*
X159254816Y-53341904D02*
X159302436Y-53389523D01*
X159302436Y-53389523D02*
X159350055Y-53484761D01*
X159350055Y-53484761D02*
X159350055Y-53722856D01*
X159350055Y-53722856D02*
X159302436Y-53818094D01*
X159302436Y-53818094D02*
X159254816Y-53865713D01*
X186738095Y-120954819D02*
X187309523Y-120954819D01*
X187023809Y-121954819D02*
X187023809Y-120954819D01*
X187642857Y-121954819D02*
X187642857Y-120954819D01*
X187642857Y-120954819D02*
X188023809Y-120954819D01*
X188023809Y-120954819D02*
X188119047Y-121002438D01*
X188119047Y-121002438D02*
X188166666Y-121050057D01*
X188166666Y-121050057D02*
X188214285Y-121145295D01*
X188214285Y-121145295D02*
X188214285Y-121288152D01*
X188214285Y-121288152D02*
X188166666Y-121383390D01*
X188166666Y-121383390D02*
X188119047Y-121431009D01*
X188119047Y-121431009D02*
X188023809Y-121478628D01*
X188023809Y-121478628D02*
X187642857Y-121478628D01*
X188547619Y-120954819D02*
X189166666Y-120954819D01*
X189166666Y-120954819D02*
X188833333Y-121335771D01*
X188833333Y-121335771D02*
X188976190Y-121335771D01*
X188976190Y-121335771D02*
X189071428Y-121383390D01*
X189071428Y-121383390D02*
X189119047Y-121431009D01*
X189119047Y-121431009D02*
X189166666Y-121526247D01*
X189166666Y-121526247D02*
X189166666Y-121764342D01*
X189166666Y-121764342D02*
X189119047Y-121859580D01*
X189119047Y-121859580D02*
X189071428Y-121907200D01*
X189071428Y-121907200D02*
X188976190Y-121954819D01*
X188976190Y-121954819D02*
X188690476Y-121954819D01*
X188690476Y-121954819D02*
X188595238Y-121907200D01*
X188595238Y-121907200D02*
X188547619Y-121859580D01*
X191084819Y-101086666D02*
X190608628Y-101419999D01*
X191084819Y-101658094D02*
X190084819Y-101658094D01*
X190084819Y-101658094D02*
X190084819Y-101277142D01*
X190084819Y-101277142D02*
X190132438Y-101181904D01*
X190132438Y-101181904D02*
X190180057Y-101134285D01*
X190180057Y-101134285D02*
X190275295Y-101086666D01*
X190275295Y-101086666D02*
X190418152Y-101086666D01*
X190418152Y-101086666D02*
X190513390Y-101134285D01*
X190513390Y-101134285D02*
X190561009Y-101181904D01*
X190561009Y-101181904D02*
X190608628Y-101277142D01*
X190608628Y-101277142D02*
X190608628Y-101658094D01*
X190084819Y-100753332D02*
X190084819Y-100134285D01*
X190084819Y-100134285D02*
X190465771Y-100467618D01*
X190465771Y-100467618D02*
X190465771Y-100324761D01*
X190465771Y-100324761D02*
X190513390Y-100229523D01*
X190513390Y-100229523D02*
X190561009Y-100181904D01*
X190561009Y-100181904D02*
X190656247Y-100134285D01*
X190656247Y-100134285D02*
X190894342Y-100134285D01*
X190894342Y-100134285D02*
X190989580Y-100181904D01*
X190989580Y-100181904D02*
X191037200Y-100229523D01*
X191037200Y-100229523D02*
X191084819Y-100324761D01*
X191084819Y-100324761D02*
X191084819Y-100610475D01*
X191084819Y-100610475D02*
X191037200Y-100705713D01*
X191037200Y-100705713D02*
X190989580Y-100753332D01*
X181666666Y-84964819D02*
X181666666Y-85679104D01*
X181666666Y-85679104D02*
X181619047Y-85821961D01*
X181619047Y-85821961D02*
X181523809Y-85917200D01*
X181523809Y-85917200D02*
X181380952Y-85964819D01*
X181380952Y-85964819D02*
X181285714Y-85964819D01*
X182095238Y-85060057D02*
X182142857Y-85012438D01*
X182142857Y-85012438D02*
X182238095Y-84964819D01*
X182238095Y-84964819D02*
X182476190Y-84964819D01*
X182476190Y-84964819D02*
X182571428Y-85012438D01*
X182571428Y-85012438D02*
X182619047Y-85060057D01*
X182619047Y-85060057D02*
X182666666Y-85155295D01*
X182666666Y-85155295D02*
X182666666Y-85250533D01*
X182666666Y-85250533D02*
X182619047Y-85393390D01*
X182619047Y-85393390D02*
X182047619Y-85964819D01*
X182047619Y-85964819D02*
X182666666Y-85964819D01*
X178284819Y-45593333D02*
X178999104Y-45593333D01*
X178999104Y-45593333D02*
X179141961Y-45640952D01*
X179141961Y-45640952D02*
X179237200Y-45736190D01*
X179237200Y-45736190D02*
X179284819Y-45879047D01*
X179284819Y-45879047D02*
X179284819Y-45974285D01*
X178284819Y-45212380D02*
X178284819Y-44593333D01*
X178284819Y-44593333D02*
X178665771Y-44926666D01*
X178665771Y-44926666D02*
X178665771Y-44783809D01*
X178665771Y-44783809D02*
X178713390Y-44688571D01*
X178713390Y-44688571D02*
X178761009Y-44640952D01*
X178761009Y-44640952D02*
X178856247Y-44593333D01*
X178856247Y-44593333D02*
X179094342Y-44593333D01*
X179094342Y-44593333D02*
X179189580Y-44640952D01*
X179189580Y-44640952D02*
X179237200Y-44688571D01*
X179237200Y-44688571D02*
X179284819Y-44783809D01*
X179284819Y-44783809D02*
X179284819Y-45069523D01*
X179284819Y-45069523D02*
X179237200Y-45164761D01*
X179237200Y-45164761D02*
X179189580Y-45212380D01*
X108357142Y-105939580D02*
X108309523Y-105987200D01*
X108309523Y-105987200D02*
X108166666Y-106034819D01*
X108166666Y-106034819D02*
X108071428Y-106034819D01*
X108071428Y-106034819D02*
X107928571Y-105987200D01*
X107928571Y-105987200D02*
X107833333Y-105891961D01*
X107833333Y-105891961D02*
X107785714Y-105796723D01*
X107785714Y-105796723D02*
X107738095Y-105606247D01*
X107738095Y-105606247D02*
X107738095Y-105463390D01*
X107738095Y-105463390D02*
X107785714Y-105272914D01*
X107785714Y-105272914D02*
X107833333Y-105177676D01*
X107833333Y-105177676D02*
X107928571Y-105082438D01*
X107928571Y-105082438D02*
X108071428Y-105034819D01*
X108071428Y-105034819D02*
X108166666Y-105034819D01*
X108166666Y-105034819D02*
X108309523Y-105082438D01*
X108309523Y-105082438D02*
X108357142Y-105130057D01*
X109309523Y-106034819D02*
X108738095Y-106034819D01*
X109023809Y-106034819D02*
X109023809Y-105034819D01*
X109023809Y-105034819D02*
X108928571Y-105177676D01*
X108928571Y-105177676D02*
X108833333Y-105272914D01*
X108833333Y-105272914D02*
X108738095Y-105320533D01*
X109642857Y-105034819D02*
X110261904Y-105034819D01*
X110261904Y-105034819D02*
X109928571Y-105415771D01*
X109928571Y-105415771D02*
X110071428Y-105415771D01*
X110071428Y-105415771D02*
X110166666Y-105463390D01*
X110166666Y-105463390D02*
X110214285Y-105511009D01*
X110214285Y-105511009D02*
X110261904Y-105606247D01*
X110261904Y-105606247D02*
X110261904Y-105844342D01*
X110261904Y-105844342D02*
X110214285Y-105939580D01*
X110214285Y-105939580D02*
X110166666Y-105987200D01*
X110166666Y-105987200D02*
X110071428Y-106034819D01*
X110071428Y-106034819D02*
X109785714Y-106034819D01*
X109785714Y-106034819D02*
X109690476Y-105987200D01*
X109690476Y-105987200D02*
X109642857Y-105939580D01*
X160194279Y-141769819D02*
X160194279Y-142579342D01*
X160194279Y-142579342D02*
X160241898Y-142674580D01*
X160241898Y-142674580D02*
X160289517Y-142722200D01*
X160289517Y-142722200D02*
X160384755Y-142769819D01*
X160384755Y-142769819D02*
X160575231Y-142769819D01*
X160575231Y-142769819D02*
X160670469Y-142722200D01*
X160670469Y-142722200D02*
X160718088Y-142674580D01*
X160718088Y-142674580D02*
X160765707Y-142579342D01*
X160765707Y-142579342D02*
X160765707Y-141769819D01*
X161765707Y-142769819D02*
X161194279Y-142769819D01*
X161479993Y-142769819D02*
X161479993Y-141769819D01*
X161479993Y-141769819D02*
X161384755Y-141912676D01*
X161384755Y-141912676D02*
X161289517Y-142007914D01*
X161289517Y-142007914D02*
X161194279Y-142055533D01*
X184824819Y-61008572D02*
X184348628Y-61341905D01*
X184824819Y-61580000D02*
X183824819Y-61580000D01*
X183824819Y-61580000D02*
X183824819Y-61199048D01*
X183824819Y-61199048D02*
X183872438Y-61103810D01*
X183872438Y-61103810D02*
X183920057Y-61056191D01*
X183920057Y-61056191D02*
X184015295Y-61008572D01*
X184015295Y-61008572D02*
X184158152Y-61008572D01*
X184158152Y-61008572D02*
X184253390Y-61056191D01*
X184253390Y-61056191D02*
X184301009Y-61103810D01*
X184301009Y-61103810D02*
X184348628Y-61199048D01*
X184348628Y-61199048D02*
X184348628Y-61580000D01*
X184920057Y-60818096D02*
X184920057Y-60056191D01*
X184824819Y-59818095D02*
X183824819Y-59818095D01*
X183824819Y-59818095D02*
X183824819Y-59437143D01*
X183824819Y-59437143D02*
X183872438Y-59341905D01*
X183872438Y-59341905D02*
X183920057Y-59294286D01*
X183920057Y-59294286D02*
X184015295Y-59246667D01*
X184015295Y-59246667D02*
X184158152Y-59246667D01*
X184158152Y-59246667D02*
X184253390Y-59294286D01*
X184253390Y-59294286D02*
X184301009Y-59341905D01*
X184301009Y-59341905D02*
X184348628Y-59437143D01*
X184348628Y-59437143D02*
X184348628Y-59818095D01*
X184158152Y-58389524D02*
X184824819Y-58389524D01*
X184158152Y-58818095D02*
X184681961Y-58818095D01*
X184681961Y-58818095D02*
X184777200Y-58770476D01*
X184777200Y-58770476D02*
X184824819Y-58675238D01*
X184824819Y-58675238D02*
X184824819Y-58532381D01*
X184824819Y-58532381D02*
X184777200Y-58437143D01*
X184777200Y-58437143D02*
X184729580Y-58389524D01*
X184824819Y-57770476D02*
X184777200Y-57865714D01*
X184777200Y-57865714D02*
X184681961Y-57913333D01*
X184681961Y-57913333D02*
X183824819Y-57913333D01*
X184824819Y-57246666D02*
X184777200Y-57341904D01*
X184777200Y-57341904D02*
X184681961Y-57389523D01*
X184681961Y-57389523D02*
X183824819Y-57389523D01*
X184158152Y-56437142D02*
X184824819Y-56437142D01*
X184158152Y-56865713D02*
X184681961Y-56865713D01*
X184681961Y-56865713D02*
X184777200Y-56818094D01*
X184777200Y-56818094D02*
X184824819Y-56722856D01*
X184824819Y-56722856D02*
X184824819Y-56579999D01*
X184824819Y-56579999D02*
X184777200Y-56484761D01*
X184777200Y-56484761D02*
X184729580Y-56437142D01*
X184158152Y-55960951D02*
X185158152Y-55960951D01*
X184205771Y-55960951D02*
X184158152Y-55865713D01*
X184158152Y-55865713D02*
X184158152Y-55675237D01*
X184158152Y-55675237D02*
X184205771Y-55579999D01*
X184205771Y-55579999D02*
X184253390Y-55532380D01*
X184253390Y-55532380D02*
X184348628Y-55484761D01*
X184348628Y-55484761D02*
X184634342Y-55484761D01*
X184634342Y-55484761D02*
X184729580Y-55532380D01*
X184729580Y-55532380D02*
X184777200Y-55579999D01*
X184777200Y-55579999D02*
X184824819Y-55675237D01*
X184824819Y-55675237D02*
X184824819Y-55865713D01*
X184824819Y-55865713D02*
X184777200Y-55960951D01*
X183824819Y-54627618D02*
X183824819Y-54818094D01*
X183824819Y-54818094D02*
X183872438Y-54913332D01*
X183872438Y-54913332D02*
X183920057Y-54960951D01*
X183920057Y-54960951D02*
X184062914Y-55056189D01*
X184062914Y-55056189D02*
X184253390Y-55103808D01*
X184253390Y-55103808D02*
X184634342Y-55103808D01*
X184634342Y-55103808D02*
X184729580Y-55056189D01*
X184729580Y-55056189D02*
X184777200Y-55008570D01*
X184777200Y-55008570D02*
X184824819Y-54913332D01*
X184824819Y-54913332D02*
X184824819Y-54722856D01*
X184824819Y-54722856D02*
X184777200Y-54627618D01*
X184777200Y-54627618D02*
X184729580Y-54579999D01*
X184729580Y-54579999D02*
X184634342Y-54532380D01*
X184634342Y-54532380D02*
X184396247Y-54532380D01*
X184396247Y-54532380D02*
X184301009Y-54579999D01*
X184301009Y-54579999D02*
X184253390Y-54627618D01*
X184253390Y-54627618D02*
X184205771Y-54722856D01*
X184205771Y-54722856D02*
X184205771Y-54913332D01*
X184205771Y-54913332D02*
X184253390Y-55008570D01*
X184253390Y-55008570D02*
X184301009Y-55056189D01*
X184301009Y-55056189D02*
X184396247Y-55103808D01*
X99238095Y-44504819D02*
X99238095Y-43504819D01*
X99238095Y-43981009D02*
X99809523Y-43981009D01*
X99809523Y-44504819D02*
X99809523Y-43504819D01*
X100809523Y-44504819D02*
X100238095Y-44504819D01*
X100523809Y-44504819D02*
X100523809Y-43504819D01*
X100523809Y-43504819D02*
X100428571Y-43647676D01*
X100428571Y-43647676D02*
X100333333Y-43742914D01*
X100333333Y-43742914D02*
X100238095Y-43790533D01*
X162779580Y-60916666D02*
X162827200Y-60964285D01*
X162827200Y-60964285D02*
X162874819Y-61107142D01*
X162874819Y-61107142D02*
X162874819Y-61202380D01*
X162874819Y-61202380D02*
X162827200Y-61345237D01*
X162827200Y-61345237D02*
X162731961Y-61440475D01*
X162731961Y-61440475D02*
X162636723Y-61488094D01*
X162636723Y-61488094D02*
X162446247Y-61535713D01*
X162446247Y-61535713D02*
X162303390Y-61535713D01*
X162303390Y-61535713D02*
X162112914Y-61488094D01*
X162112914Y-61488094D02*
X162017676Y-61440475D01*
X162017676Y-61440475D02*
X161922438Y-61345237D01*
X161922438Y-61345237D02*
X161874819Y-61202380D01*
X161874819Y-61202380D02*
X161874819Y-61107142D01*
X161874819Y-61107142D02*
X161922438Y-60964285D01*
X161922438Y-60964285D02*
X161970057Y-60916666D01*
X162874819Y-60440475D02*
X162874819Y-60249999D01*
X162874819Y-60249999D02*
X162827200Y-60154761D01*
X162827200Y-60154761D02*
X162779580Y-60107142D01*
X162779580Y-60107142D02*
X162636723Y-60011904D01*
X162636723Y-60011904D02*
X162446247Y-59964285D01*
X162446247Y-59964285D02*
X162065295Y-59964285D01*
X162065295Y-59964285D02*
X161970057Y-60011904D01*
X161970057Y-60011904D02*
X161922438Y-60059523D01*
X161922438Y-60059523D02*
X161874819Y-60154761D01*
X161874819Y-60154761D02*
X161874819Y-60345237D01*
X161874819Y-60345237D02*
X161922438Y-60440475D01*
X161922438Y-60440475D02*
X161970057Y-60488094D01*
X161970057Y-60488094D02*
X162065295Y-60535713D01*
X162065295Y-60535713D02*
X162303390Y-60535713D01*
X162303390Y-60535713D02*
X162398628Y-60488094D01*
X162398628Y-60488094D02*
X162446247Y-60440475D01*
X162446247Y-60440475D02*
X162493866Y-60345237D01*
X162493866Y-60345237D02*
X162493866Y-60154761D01*
X162493866Y-60154761D02*
X162446247Y-60059523D01*
X162446247Y-60059523D02*
X162398628Y-60011904D01*
X162398628Y-60011904D02*
X162303390Y-59964285D01*
X146124819Y-45593333D02*
X146839104Y-45593333D01*
X146839104Y-45593333D02*
X146981961Y-45640952D01*
X146981961Y-45640952D02*
X147077200Y-45736190D01*
X147077200Y-45736190D02*
X147124819Y-45879047D01*
X147124819Y-45879047D02*
X147124819Y-45974285D01*
X146458152Y-44688571D02*
X147124819Y-44688571D01*
X146077200Y-44926666D02*
X146791485Y-45164761D01*
X146791485Y-45164761D02*
X146791485Y-44545714D01*
X161261905Y-45954819D02*
X161833333Y-45954819D01*
X161547619Y-46954819D02*
X161547619Y-45954819D01*
X162166667Y-46954819D02*
X162166667Y-45954819D01*
X162166667Y-45954819D02*
X162547619Y-45954819D01*
X162547619Y-45954819D02*
X162642857Y-46002438D01*
X162642857Y-46002438D02*
X162690476Y-46050057D01*
X162690476Y-46050057D02*
X162738095Y-46145295D01*
X162738095Y-46145295D02*
X162738095Y-46288152D01*
X162738095Y-46288152D02*
X162690476Y-46383390D01*
X162690476Y-46383390D02*
X162642857Y-46431009D01*
X162642857Y-46431009D02*
X162547619Y-46478628D01*
X162547619Y-46478628D02*
X162166667Y-46478628D01*
X163690476Y-46954819D02*
X163119048Y-46954819D01*
X163404762Y-46954819D02*
X163404762Y-45954819D01*
X163404762Y-45954819D02*
X163309524Y-46097676D01*
X163309524Y-46097676D02*
X163214286Y-46192914D01*
X163214286Y-46192914D02*
X163119048Y-46240533D01*
X164595238Y-45954819D02*
X164119048Y-45954819D01*
X164119048Y-45954819D02*
X164071429Y-46431009D01*
X164071429Y-46431009D02*
X164119048Y-46383390D01*
X164119048Y-46383390D02*
X164214286Y-46335771D01*
X164214286Y-46335771D02*
X164452381Y-46335771D01*
X164452381Y-46335771D02*
X164547619Y-46383390D01*
X164547619Y-46383390D02*
X164595238Y-46431009D01*
X164595238Y-46431009D02*
X164642857Y-46526247D01*
X164642857Y-46526247D02*
X164642857Y-46764342D01*
X164642857Y-46764342D02*
X164595238Y-46859580D01*
X164595238Y-46859580D02*
X164547619Y-46907200D01*
X164547619Y-46907200D02*
X164452381Y-46954819D01*
X164452381Y-46954819D02*
X164214286Y-46954819D01*
X164214286Y-46954819D02*
X164119048Y-46907200D01*
X164119048Y-46907200D02*
X164071429Y-46859580D01*
X111261905Y-43954819D02*
X111833333Y-43954819D01*
X111547619Y-44954819D02*
X111547619Y-43954819D01*
X112166667Y-44954819D02*
X112166667Y-43954819D01*
X112166667Y-43954819D02*
X112547619Y-43954819D01*
X112547619Y-43954819D02*
X112642857Y-44002438D01*
X112642857Y-44002438D02*
X112690476Y-44050057D01*
X112690476Y-44050057D02*
X112738095Y-44145295D01*
X112738095Y-44145295D02*
X112738095Y-44288152D01*
X112738095Y-44288152D02*
X112690476Y-44383390D01*
X112690476Y-44383390D02*
X112642857Y-44431009D01*
X112642857Y-44431009D02*
X112547619Y-44478628D01*
X112547619Y-44478628D02*
X112166667Y-44478628D01*
X113690476Y-44954819D02*
X113119048Y-44954819D01*
X113404762Y-44954819D02*
X113404762Y-43954819D01*
X113404762Y-43954819D02*
X113309524Y-44097676D01*
X113309524Y-44097676D02*
X113214286Y-44192914D01*
X113214286Y-44192914D02*
X113119048Y-44240533D01*
X114023810Y-43954819D02*
X114690476Y-43954819D01*
X114690476Y-43954819D02*
X114261905Y-44954819D01*
X182077200Y-111333332D02*
X182124819Y-111190475D01*
X182124819Y-111190475D02*
X182124819Y-110952380D01*
X182124819Y-110952380D02*
X182077200Y-110857142D01*
X182077200Y-110857142D02*
X182029580Y-110809523D01*
X182029580Y-110809523D02*
X181934342Y-110761904D01*
X181934342Y-110761904D02*
X181839104Y-110761904D01*
X181839104Y-110761904D02*
X181743866Y-110809523D01*
X181743866Y-110809523D02*
X181696247Y-110857142D01*
X181696247Y-110857142D02*
X181648628Y-110952380D01*
X181648628Y-110952380D02*
X181601009Y-111142856D01*
X181601009Y-111142856D02*
X181553390Y-111238094D01*
X181553390Y-111238094D02*
X181505771Y-111285713D01*
X181505771Y-111285713D02*
X181410533Y-111333332D01*
X181410533Y-111333332D02*
X181315295Y-111333332D01*
X181315295Y-111333332D02*
X181220057Y-111285713D01*
X181220057Y-111285713D02*
X181172438Y-111238094D01*
X181172438Y-111238094D02*
X181124819Y-111142856D01*
X181124819Y-111142856D02*
X181124819Y-110904761D01*
X181124819Y-110904761D02*
X181172438Y-110761904D01*
X181124819Y-110428570D02*
X182124819Y-110190475D01*
X182124819Y-110190475D02*
X181410533Y-109999999D01*
X181410533Y-109999999D02*
X182124819Y-109809523D01*
X182124819Y-109809523D02*
X181124819Y-109571428D01*
X182124819Y-108666666D02*
X182124819Y-109238094D01*
X182124819Y-108952380D02*
X181124819Y-108952380D01*
X181124819Y-108952380D02*
X181267676Y-109047618D01*
X181267676Y-109047618D02*
X181362914Y-109142856D01*
X181362914Y-109142856D02*
X181410533Y-109238094D01*
X189238095Y-44504819D02*
X189238095Y-43504819D01*
X189238095Y-43981009D02*
X189809523Y-43981009D01*
X189809523Y-44504819D02*
X189809523Y-43504819D01*
X190238095Y-43600057D02*
X190285714Y-43552438D01*
X190285714Y-43552438D02*
X190380952Y-43504819D01*
X190380952Y-43504819D02*
X190619047Y-43504819D01*
X190619047Y-43504819D02*
X190714285Y-43552438D01*
X190714285Y-43552438D02*
X190761904Y-43600057D01*
X190761904Y-43600057D02*
X190809523Y-43695295D01*
X190809523Y-43695295D02*
X190809523Y-43790533D01*
X190809523Y-43790533D02*
X190761904Y-43933390D01*
X190761904Y-43933390D02*
X190190476Y-44504819D01*
X190190476Y-44504819D02*
X190809523Y-44504819D01*
X171824819Y-54246666D02*
X171348628Y-54579999D01*
X171824819Y-54818094D02*
X170824819Y-54818094D01*
X170824819Y-54818094D02*
X170824819Y-54437142D01*
X170824819Y-54437142D02*
X170872438Y-54341904D01*
X170872438Y-54341904D02*
X170920057Y-54294285D01*
X170920057Y-54294285D02*
X171015295Y-54246666D01*
X171015295Y-54246666D02*
X171158152Y-54246666D01*
X171158152Y-54246666D02*
X171253390Y-54294285D01*
X171253390Y-54294285D02*
X171301009Y-54341904D01*
X171301009Y-54341904D02*
X171348628Y-54437142D01*
X171348628Y-54437142D02*
X171348628Y-54818094D01*
X171824819Y-53770475D02*
X171824819Y-53579999D01*
X171824819Y-53579999D02*
X171777200Y-53484761D01*
X171777200Y-53484761D02*
X171729580Y-53437142D01*
X171729580Y-53437142D02*
X171586723Y-53341904D01*
X171586723Y-53341904D02*
X171396247Y-53294285D01*
X171396247Y-53294285D02*
X171015295Y-53294285D01*
X171015295Y-53294285D02*
X170920057Y-53341904D01*
X170920057Y-53341904D02*
X170872438Y-53389523D01*
X170872438Y-53389523D02*
X170824819Y-53484761D01*
X170824819Y-53484761D02*
X170824819Y-53675237D01*
X170824819Y-53675237D02*
X170872438Y-53770475D01*
X170872438Y-53770475D02*
X170920057Y-53818094D01*
X170920057Y-53818094D02*
X171015295Y-53865713D01*
X171015295Y-53865713D02*
X171253390Y-53865713D01*
X171253390Y-53865713D02*
X171348628Y-53818094D01*
X171348628Y-53818094D02*
X171396247Y-53770475D01*
X171396247Y-53770475D02*
X171443866Y-53675237D01*
X171443866Y-53675237D02*
X171443866Y-53484761D01*
X171443866Y-53484761D02*
X171396247Y-53389523D01*
X171396247Y-53389523D02*
X171348628Y-53341904D01*
X171348628Y-53341904D02*
X171253390Y-53294285D01*
X131779580Y-72916666D02*
X131827200Y-72964285D01*
X131827200Y-72964285D02*
X131874819Y-73107142D01*
X131874819Y-73107142D02*
X131874819Y-73202380D01*
X131874819Y-73202380D02*
X131827200Y-73345237D01*
X131827200Y-73345237D02*
X131731961Y-73440475D01*
X131731961Y-73440475D02*
X131636723Y-73488094D01*
X131636723Y-73488094D02*
X131446247Y-73535713D01*
X131446247Y-73535713D02*
X131303390Y-73535713D01*
X131303390Y-73535713D02*
X131112914Y-73488094D01*
X131112914Y-73488094D02*
X131017676Y-73440475D01*
X131017676Y-73440475D02*
X130922438Y-73345237D01*
X130922438Y-73345237D02*
X130874819Y-73202380D01*
X130874819Y-73202380D02*
X130874819Y-73107142D01*
X130874819Y-73107142D02*
X130922438Y-72964285D01*
X130922438Y-72964285D02*
X130970057Y-72916666D01*
X130970057Y-72535713D02*
X130922438Y-72488094D01*
X130922438Y-72488094D02*
X130874819Y-72392856D01*
X130874819Y-72392856D02*
X130874819Y-72154761D01*
X130874819Y-72154761D02*
X130922438Y-72059523D01*
X130922438Y-72059523D02*
X130970057Y-72011904D01*
X130970057Y-72011904D02*
X131065295Y-71964285D01*
X131065295Y-71964285D02*
X131160533Y-71964285D01*
X131160533Y-71964285D02*
X131303390Y-72011904D01*
X131303390Y-72011904D02*
X131874819Y-72583332D01*
X131874819Y-72583332D02*
X131874819Y-71964285D01*
X99238095Y-134504819D02*
X99238095Y-133504819D01*
X99238095Y-133981009D02*
X99809523Y-133981009D01*
X99809523Y-134504819D02*
X99809523Y-133504819D01*
X100714285Y-133838152D02*
X100714285Y-134504819D01*
X100476190Y-133457200D02*
X100238095Y-134171485D01*
X100238095Y-134171485D02*
X100857142Y-134171485D01*
X175084819Y-55562857D02*
X174608628Y-55896190D01*
X175084819Y-56134285D02*
X174084819Y-56134285D01*
X174084819Y-56134285D02*
X174084819Y-55753333D01*
X174084819Y-55753333D02*
X174132438Y-55658095D01*
X174132438Y-55658095D02*
X174180057Y-55610476D01*
X174180057Y-55610476D02*
X174275295Y-55562857D01*
X174275295Y-55562857D02*
X174418152Y-55562857D01*
X174418152Y-55562857D02*
X174513390Y-55610476D01*
X174513390Y-55610476D02*
X174561009Y-55658095D01*
X174561009Y-55658095D02*
X174608628Y-55753333D01*
X174608628Y-55753333D02*
X174608628Y-56134285D01*
X175084819Y-54610476D02*
X175084819Y-55181904D01*
X175084819Y-54896190D02*
X174084819Y-54896190D01*
X174084819Y-54896190D02*
X174227676Y-54991428D01*
X174227676Y-54991428D02*
X174322914Y-55086666D01*
X174322914Y-55086666D02*
X174370533Y-55181904D01*
X174084819Y-53991428D02*
X174084819Y-53896190D01*
X174084819Y-53896190D02*
X174132438Y-53800952D01*
X174132438Y-53800952D02*
X174180057Y-53753333D01*
X174180057Y-53753333D02*
X174275295Y-53705714D01*
X174275295Y-53705714D02*
X174465771Y-53658095D01*
X174465771Y-53658095D02*
X174703866Y-53658095D01*
X174703866Y-53658095D02*
X174894342Y-53705714D01*
X174894342Y-53705714D02*
X174989580Y-53753333D01*
X174989580Y-53753333D02*
X175037200Y-53800952D01*
X175037200Y-53800952D02*
X175084819Y-53896190D01*
X175084819Y-53896190D02*
X175084819Y-53991428D01*
X175084819Y-53991428D02*
X175037200Y-54086666D01*
X175037200Y-54086666D02*
X174989580Y-54134285D01*
X174989580Y-54134285D02*
X174894342Y-54181904D01*
X174894342Y-54181904D02*
X174703866Y-54229523D01*
X174703866Y-54229523D02*
X174465771Y-54229523D01*
X174465771Y-54229523D02*
X174275295Y-54181904D01*
X174275295Y-54181904D02*
X174180057Y-54134285D01*
X174180057Y-54134285D02*
X174132438Y-54086666D01*
X174132438Y-54086666D02*
X174084819Y-53991428D01*
X169738095Y-133954819D02*
X170309523Y-133954819D01*
X170023809Y-134954819D02*
X170023809Y-133954819D01*
X170642857Y-134954819D02*
X170642857Y-133954819D01*
X170642857Y-133954819D02*
X171023809Y-133954819D01*
X171023809Y-133954819D02*
X171119047Y-134002438D01*
X171119047Y-134002438D02*
X171166666Y-134050057D01*
X171166666Y-134050057D02*
X171214285Y-134145295D01*
X171214285Y-134145295D02*
X171214285Y-134288152D01*
X171214285Y-134288152D02*
X171166666Y-134383390D01*
X171166666Y-134383390D02*
X171119047Y-134431009D01*
X171119047Y-134431009D02*
X171023809Y-134478628D01*
X171023809Y-134478628D02*
X170642857Y-134478628D01*
X172166666Y-134954819D02*
X171595238Y-134954819D01*
X171880952Y-134954819D02*
X171880952Y-133954819D01*
X171880952Y-133954819D02*
X171785714Y-134097676D01*
X171785714Y-134097676D02*
X171690476Y-134192914D01*
X171690476Y-134192914D02*
X171595238Y-134240533D01*
X190084819Y-78166666D02*
X189608628Y-78499999D01*
X190084819Y-78738094D02*
X189084819Y-78738094D01*
X189084819Y-78738094D02*
X189084819Y-78357142D01*
X189084819Y-78357142D02*
X189132438Y-78261904D01*
X189132438Y-78261904D02*
X189180057Y-78214285D01*
X189180057Y-78214285D02*
X189275295Y-78166666D01*
X189275295Y-78166666D02*
X189418152Y-78166666D01*
X189418152Y-78166666D02*
X189513390Y-78214285D01*
X189513390Y-78214285D02*
X189561009Y-78261904D01*
X189561009Y-78261904D02*
X189608628Y-78357142D01*
X189608628Y-78357142D02*
X189608628Y-78738094D01*
X189418152Y-77309523D02*
X190084819Y-77309523D01*
X189037200Y-77547618D02*
X189751485Y-77785713D01*
X189751485Y-77785713D02*
X189751485Y-77166666D01*
X131824819Y-60246666D02*
X131348628Y-60579999D01*
X131824819Y-60818094D02*
X130824819Y-60818094D01*
X130824819Y-60818094D02*
X130824819Y-60437142D01*
X130824819Y-60437142D02*
X130872438Y-60341904D01*
X130872438Y-60341904D02*
X130920057Y-60294285D01*
X130920057Y-60294285D02*
X131015295Y-60246666D01*
X131015295Y-60246666D02*
X131158152Y-60246666D01*
X131158152Y-60246666D02*
X131253390Y-60294285D01*
X131253390Y-60294285D02*
X131301009Y-60341904D01*
X131301009Y-60341904D02*
X131348628Y-60437142D01*
X131348628Y-60437142D02*
X131348628Y-60818094D01*
X130824819Y-59913332D02*
X130824819Y-59246666D01*
X130824819Y-59246666D02*
X131824819Y-59675237D01*
D11*
%TO.C,C11*%
X119580000Y-71230000D02*
X119580000Y-75270000D01*
X119580000Y-75270000D02*
X122420000Y-75270000D01*
X121000000Y-70540000D02*
X121000000Y-71230000D01*
X121000000Y-75960000D02*
X121000000Y-75270000D01*
X122420000Y-71230000D02*
X119580000Y-71230000D01*
X122420000Y-75270000D02*
X122420000Y-71230000D01*
%TO.C,C10*%
X142580000Y-59230000D02*
X142580000Y-63270000D01*
X142580000Y-63270000D02*
X145420000Y-63270000D01*
X144000000Y-58540000D02*
X144000000Y-59230000D01*
X144000000Y-63960000D02*
X144000000Y-63270000D01*
X145420000Y-59230000D02*
X142580000Y-59230000D01*
X145420000Y-63270000D02*
X145420000Y-59230000D01*
%TO.C,C1*%
X167580000Y-66730000D02*
X167580000Y-70770000D01*
X167580000Y-70770000D02*
X170420000Y-70770000D01*
X169000000Y-66040000D02*
X169000000Y-66730000D01*
X169000000Y-71460000D02*
X169000000Y-70770000D01*
X170420000Y-66730000D02*
X167580000Y-66730000D01*
X170420000Y-70770000D02*
X170420000Y-66730000D01*
%TO.C,R_Pullup7*%
X164630000Y-52810000D02*
X164630000Y-59350000D01*
X164630000Y-59350000D02*
X167370000Y-59350000D01*
X166000000Y-52040000D02*
X166000000Y-52810000D01*
X166000000Y-60120000D02*
X166000000Y-59350000D01*
X167370000Y-52810000D02*
X164630000Y-52810000D01*
X167370000Y-59350000D02*
X167370000Y-52810000D01*
%TO.C,R6*%
X138630000Y-48910000D02*
X138630000Y-55450000D01*
X138630000Y-55450000D02*
X141370000Y-55450000D01*
X140000000Y-48140000D02*
X140000000Y-48910000D01*
X140000000Y-56220000D02*
X140000000Y-55450000D01*
X141370000Y-48910000D02*
X138630000Y-48910000D01*
X141370000Y-55450000D02*
X141370000Y-48910000D01*
D10*
%TO.C,TP2*%
X171400000Y-122000000D02*
G75*
G02*
X168600000Y-122000000I-1400000J0D01*
G01*
X168600000Y-122000000D02*
G75*
G02*
X171400000Y-122000000I1400000J0D01*
G01*
%TO.C,TP18*%
X162400000Y-54000000D02*
G75*
G02*
X159600000Y-54000000I-1400000J0D01*
G01*
X159600000Y-54000000D02*
G75*
G02*
X162400000Y-54000000I1400000J0D01*
G01*
D11*
%TO.C,C14*%
X177580000Y-67230000D02*
X177580000Y-71270000D01*
X177580000Y-71270000D02*
X180420000Y-71270000D01*
X179000000Y-66540000D02*
X179000000Y-67230000D01*
X179000000Y-71960000D02*
X179000000Y-71270000D01*
X180420000Y-67230000D02*
X177580000Y-67230000D01*
X180420000Y-71270000D02*
X180420000Y-67230000D01*
%TO.C,R_Pullup5*%
X115630000Y-51810000D02*
X115630000Y-58350000D01*
X115630000Y-58350000D02*
X118370000Y-58350000D01*
X117000000Y-51040000D02*
X117000000Y-51810000D01*
X117000000Y-59120000D02*
X117000000Y-58350000D01*
X118370000Y-51810000D02*
X115630000Y-51810000D01*
X118370000Y-58350000D02*
X118370000Y-51810000D01*
%TO.C,J5*%
X121670000Y-47090000D02*
X121670000Y-45760000D01*
X123000000Y-47090000D02*
X121670000Y-47090000D01*
X124270000Y-44430000D02*
X134490000Y-44430000D01*
X124270000Y-47090000D02*
X124270000Y-44430000D01*
X124270000Y-47090000D02*
X134490000Y-47090000D01*
X134490000Y-47090000D02*
X134490000Y-44430000D01*
%TO.C,R8*%
X119630000Y-56650000D02*
X119630000Y-63190000D01*
X119630000Y-63190000D02*
X122370000Y-63190000D01*
X121000000Y-55880000D02*
X121000000Y-56650000D01*
X121000000Y-63960000D02*
X121000000Y-63190000D01*
X122370000Y-56650000D02*
X119630000Y-56650000D01*
X122370000Y-63190000D02*
X122370000Y-56650000D01*
%TO.C,R_Pullup3*%
X160630000Y-120810000D02*
X160630000Y-127350000D01*
X160630000Y-127350000D02*
X163370000Y-127350000D01*
X162000000Y-120040000D02*
X162000000Y-120810000D01*
X162000000Y-128120000D02*
X162000000Y-127350000D01*
X163370000Y-120810000D02*
X160630000Y-120810000D01*
X163370000Y-127350000D02*
X163370000Y-120810000D01*
D10*
%TO.C,TP19*%
X147400000Y-51000000D02*
G75*
G02*
X144600000Y-51000000I-1400000J0D01*
G01*
X144600000Y-51000000D02*
G75*
G02*
X147400000Y-51000000I1400000J0D01*
G01*
%TO.C,TP14*%
X183400000Y-48260000D02*
G75*
G02*
X180600000Y-48260000I-1400000J0D01*
G01*
X180600000Y-48260000D02*
G75*
G02*
X183400000Y-48260000I1400000J0D01*
G01*
%TO.C,TP16*%
X130400000Y-51000000D02*
G75*
G02*
X127600000Y-51000000I-1400000J0D01*
G01*
X127600000Y-51000000D02*
G75*
G02*
X130400000Y-51000000I1400000J0D01*
G01*
D11*
%TO.C,R5*%
X155155236Y-50810000D02*
X155155236Y-57350000D01*
X155155236Y-57350000D02*
X157895236Y-57350000D01*
X156525236Y-50040000D02*
X156525236Y-50810000D01*
X156525236Y-58120000D02*
X156525236Y-57350000D01*
X157895236Y-50810000D02*
X155155236Y-50810000D01*
X157895236Y-57350000D02*
X157895236Y-50810000D01*
D10*
%TO.C,TP3*%
X189400000Y-124000000D02*
G75*
G02*
X186600000Y-124000000I-1400000J0D01*
G01*
X186600000Y-124000000D02*
G75*
G02*
X189400000Y-124000000I1400000J0D01*
G01*
D11*
%TO.C,R3*%
X191630000Y-97650000D02*
X191630000Y-104190000D01*
X191630000Y-104190000D02*
X194370000Y-104190000D01*
X193000000Y-96880000D02*
X193000000Y-97650000D01*
X193000000Y-104960000D02*
X193000000Y-104190000D01*
X194370000Y-97650000D02*
X191630000Y-97650000D01*
X194370000Y-104190000D02*
X194370000Y-97650000D01*
%TO.C,J2*%
X183500833Y-83260000D02*
G75*
G02*
X180499167Y-83260000I-1500833J0D01*
G01*
X180499167Y-83260000D02*
G75*
G02*
X183500833Y-83260000I1500833J0D01*
G01*
%TO.C,J3*%
X165010000Y-43930000D02*
X165010000Y-46590000D01*
X175230000Y-43930000D02*
X165010000Y-43930000D01*
X175230000Y-43930000D02*
X175230000Y-46590000D01*
X175230000Y-46590000D02*
X165010000Y-46590000D01*
X176500000Y-43930000D02*
X177830000Y-43930000D01*
X177830000Y-43930000D02*
X177830000Y-45260000D01*
%TO.C,C13*%
X106290000Y-108000000D02*
X106980000Y-108000000D01*
X106980000Y-106580000D02*
X106980000Y-109420000D01*
X106980000Y-109420000D02*
X111020000Y-109420000D01*
X111020000Y-106580000D02*
X106980000Y-106580000D01*
X111020000Y-109420000D02*
X111020000Y-106580000D01*
X111710000Y-108000000D02*
X111020000Y-108000000D01*
%TO.C,U1*%
X137180000Y-94220000D02*
X137180000Y-92620000D01*
X137500000Y-92550000D02*
X137500000Y-142550000D01*
X137840000Y-92003000D02*
X137840000Y-143097000D01*
X138110000Y-91940000D02*
X140600000Y-91940000D01*
X138110000Y-143160000D02*
X141947939Y-143160000D01*
X140600000Y-91940000D02*
X140600000Y-92853520D01*
X140600000Y-91940000D02*
X141947940Y-91940000D01*
X140600000Y-95246480D02*
X140600000Y-139853520D01*
X140600000Y-142246480D02*
X140600000Y-143160000D01*
X142872061Y-91940000D02*
X143875000Y-91940000D01*
X143875000Y-91940000D02*
X152345000Y-91940000D01*
X144000000Y-90640000D02*
X144000000Y-91460000D01*
X144000000Y-90640000D02*
X152220000Y-90640000D01*
X144000000Y-91460000D02*
X144210000Y-91460000D01*
X144210000Y-91460000D02*
X144210000Y-92856000D01*
X144210000Y-95244000D02*
X144210000Y-96460000D01*
X144510000Y-143160000D02*
X142872061Y-143160000D01*
X151710000Y-143160000D02*
X144510000Y-143160000D01*
X152010000Y-91460000D02*
X152010000Y-92856000D01*
X152010000Y-95244000D02*
X152010000Y-96460000D01*
X152010000Y-96460000D02*
X144210000Y-96460000D01*
X152220000Y-90640000D02*
X152220000Y-91460000D01*
X152220000Y-91460000D02*
X152010000Y-91460000D01*
X152345000Y-91940000D02*
X153347939Y-91940000D01*
X153347939Y-143160000D02*
X151710000Y-143160000D01*
X154272061Y-91940000D02*
X155620000Y-91940000D01*
X154272061Y-143160000D02*
X158110000Y-143160000D01*
X155620000Y-91940000D02*
X155620000Y-92853520D01*
X155620000Y-95246480D02*
X155620000Y-139853520D01*
X155620000Y-142246480D02*
X155620000Y-143160000D01*
X158110000Y-91940000D02*
X155620000Y-91940000D01*
X158380000Y-143097000D02*
X158380000Y-92003000D01*
X158720000Y-92550000D02*
X158720000Y-142550000D01*
X137500000Y-92550000D02*
G75*
G02*
X138110000Y-91940000I610000J0D01*
G01*
X138110000Y-143160000D02*
G75*
G02*
X137500000Y-142550000I-99J609901D01*
G01*
X158110000Y-91940000D02*
G75*
G02*
X158720000Y-92550000I0J-610000D01*
G01*
X158720000Y-142550000D02*
G75*
G02*
X158110000Y-143160000I-610000J0D01*
G01*
%TO.C,R_Pullup6*%
X180630000Y-54810000D02*
X180630000Y-61350000D01*
X180630000Y-61350000D02*
X183370000Y-61350000D01*
X182000000Y-54040000D02*
X182000000Y-54810000D01*
X182000000Y-62120000D02*
X182000000Y-61350000D01*
X183370000Y-54810000D02*
X180630000Y-54810000D01*
X183370000Y-61350000D02*
X183370000Y-54810000D01*
D12*
%TO.C,DISP1*%
X191500000Y-115490000D02*
X191500000Y-133740000D01*
X191500000Y-115490000D02*
X194500000Y-115490000D01*
X191500000Y-133740000D02*
X194500000Y-133740000D01*
X194500000Y-115490000D02*
X194500000Y-133740000D01*
D11*
%TO.C,C9*%
X158580000Y-58730000D02*
X158580000Y-62770000D01*
X158580000Y-62770000D02*
X161420000Y-62770000D01*
X160000000Y-58040000D02*
X160000000Y-58730000D01*
X160000000Y-63460000D02*
X160000000Y-62770000D01*
X161420000Y-58730000D02*
X158580000Y-58730000D01*
X161420000Y-62770000D02*
X161420000Y-58730000D01*
%TO.C,J4*%
X147670000Y-46590000D02*
X147670000Y-45260000D01*
X149000000Y-46590000D02*
X147670000Y-46590000D01*
X150270000Y-43930000D02*
X160490000Y-43930000D01*
X150270000Y-46590000D02*
X150270000Y-43930000D01*
X150270000Y-46590000D02*
X160490000Y-46590000D01*
X160490000Y-46590000D02*
X160490000Y-43930000D01*
D10*
%TO.C,TP15*%
X164400000Y-49000000D02*
G75*
G02*
X161600000Y-49000000I-1400000J0D01*
G01*
X161600000Y-49000000D02*
G75*
G02*
X164400000Y-49000000I1400000J0D01*
G01*
%TO.C,TP17*%
X114400000Y-47000000D02*
G75*
G02*
X111600000Y-47000000I-1400000J0D01*
G01*
X111600000Y-47000000D02*
G75*
G02*
X114400000Y-47000000I1400000J0D01*
G01*
D11*
%TO.C,R_Pullup4*%
X123630000Y-51810000D02*
X123630000Y-58350000D01*
X123630000Y-58350000D02*
X126370000Y-58350000D01*
X125000000Y-51040000D02*
X125000000Y-51810000D01*
X125000000Y-59120000D02*
X125000000Y-58350000D01*
X126370000Y-51810000D02*
X123630000Y-51810000D01*
X126370000Y-58350000D02*
X126370000Y-51810000D01*
%TO.C,SW1*%
X182670000Y-111330000D02*
X182670000Y-110000000D01*
X184000000Y-111330000D02*
X182670000Y-111330000D01*
X185270000Y-108670000D02*
X187870000Y-108670000D01*
X185270000Y-111330000D02*
X185270000Y-108670000D01*
X185270000Y-111330000D02*
X187870000Y-111330000D01*
X187870000Y-111330000D02*
X187870000Y-108670000D01*
%TO.C,R9*%
X167630000Y-50810000D02*
X167630000Y-57350000D01*
X167630000Y-57350000D02*
X170370000Y-57350000D01*
X169000000Y-50040000D02*
X169000000Y-50810000D01*
X169000000Y-58120000D02*
X169000000Y-57350000D01*
X170370000Y-50810000D02*
X167630000Y-50810000D01*
X170370000Y-57350000D02*
X170370000Y-50810000D01*
%TO.C,C2*%
X127580000Y-70730000D02*
X127580000Y-74770000D01*
X127580000Y-74770000D02*
X130420000Y-74770000D01*
X129000000Y-70040000D02*
X129000000Y-70730000D01*
X129000000Y-75460000D02*
X129000000Y-74770000D01*
X130420000Y-70730000D02*
X127580000Y-70730000D01*
X130420000Y-74770000D02*
X130420000Y-70730000D01*
%TO.C,R_Pullup1*%
X151630000Y-52810000D02*
X151630000Y-59350000D01*
X151630000Y-59350000D02*
X154370000Y-59350000D01*
X153000000Y-52040000D02*
X153000000Y-52810000D01*
X153000000Y-60120000D02*
X153000000Y-59350000D01*
X154370000Y-52810000D02*
X151630000Y-52810000D01*
X154370000Y-59350000D02*
X154370000Y-52810000D01*
%TO.C,R10*%
X175630000Y-51650000D02*
X175630000Y-58190000D01*
X175630000Y-58190000D02*
X178370000Y-58190000D01*
X177000000Y-50880000D02*
X177000000Y-51650000D01*
X177000000Y-58960000D02*
X177000000Y-58190000D01*
X178370000Y-51650000D02*
X175630000Y-51650000D01*
X178370000Y-58190000D02*
X178370000Y-51650000D01*
%TO.C,R_Pullup2*%
X135630000Y-56810000D02*
X135630000Y-63350000D01*
X135630000Y-63350000D02*
X138370000Y-63350000D01*
X137000000Y-56040000D02*
X137000000Y-56810000D01*
X137000000Y-64120000D02*
X137000000Y-63350000D01*
X138370000Y-56810000D02*
X135630000Y-56810000D01*
X138370000Y-63350000D02*
X138370000Y-56810000D01*
D10*
%TO.C,TP1*%
X172400000Y-137000000D02*
G75*
G02*
X169600000Y-137000000I-1400000J0D01*
G01*
X169600000Y-137000000D02*
G75*
G02*
X172400000Y-137000000I1400000J0D01*
G01*
D11*
%TO.C,R4*%
X190630000Y-74730000D02*
X190630000Y-81270000D01*
X190630000Y-81270000D02*
X193370000Y-81270000D01*
X192000000Y-73960000D02*
X192000000Y-74730000D01*
X192000000Y-82040000D02*
X192000000Y-81270000D01*
X193370000Y-74730000D02*
X190630000Y-74730000D01*
X193370000Y-81270000D02*
X193370000Y-74730000D01*
%TO.C,R7*%
X127630000Y-56810000D02*
X127630000Y-63350000D01*
X127630000Y-63350000D02*
X130370000Y-63350000D01*
X129000000Y-56040000D02*
X129000000Y-56810000D01*
X129000000Y-64120000D02*
X129000000Y-63350000D01*
X130370000Y-56810000D02*
X127630000Y-56810000D01*
X130370000Y-63350000D02*
X130370000Y-56810000D01*
%TD*%
M02*
