%TF.GenerationSoftware,KiCad,Pcbnew,9.0.3*%
%TF.CreationDate,2025-07-08T18:12:23-07:00*%
%TF.ProjectId,pcb_schematics,7063625f-7363-4686-956d-61746963732e,rev?*%
%TF.SameCoordinates,Original*%
%TF.FileFunction,Soldermask,Bot*%
%TF.FilePolarity,Negative*%
%FSLAX46Y46*%
G04 Gerber Fmt 4.6, Leading zero omitted, Abs format (unit mm)*
G04 Created by KiCad (PCBNEW 9.0.3) date 2025-07-08 18:12:23*
%MOMM*%
%LPD*%
G01*
G04 APERTURE LIST*
G04 Aperture macros list*
%AMRoundRect*
0 Rectangle with rounded corners*
0 $1 Rounding radius*
0 $2 $3 $4 $5 $6 $7 $8 $9 X,Y pos of 4 corners*
0 Add a 4 corners polygon primitive as box body*
4,1,4,$2,$3,$4,$5,$6,$7,$8,$9,$2,$3,0*
0 Add four circle primitives for the rounded corners*
1,1,$1+$1,$2,$3*
1,1,$1+$1,$4,$5*
1,1,$1+$1,$6,$7*
1,1,$1+$1,$8,$9*
0 Add four rect primitives between the rounded corners*
20,1,$1+$1,$2,$3,$4,$5,0*
20,1,$1+$1,$4,$5,$6,$7,0*
20,1,$1+$1,$6,$7,$8,$9,0*
20,1,$1+$1,$8,$9,$2,$3,0*%
%AMFreePoly0*
4,1,37,0.603843,0.796157,0.639018,0.796157,0.711114,0.766294,0.766294,0.711114,0.796157,0.639018,0.796157,0.603843,0.800000,0.600000,0.800000,-0.600000,0.796157,-0.603843,0.796157,-0.639018,0.766294,-0.711114,0.711114,-0.766294,0.639018,-0.796157,0.603843,-0.796157,0.600000,-0.800000,0.000000,-0.800000,0.000000,-0.796148,-0.078414,-0.796148,-0.232228,-0.765552,-0.377117,-0.705537,
-0.507515,-0.618408,-0.618408,-0.507515,-0.705537,-0.377117,-0.765552,-0.232228,-0.796148,-0.078414,-0.796148,0.078414,-0.765552,0.232228,-0.705537,0.377117,-0.618408,0.507515,-0.507515,0.618408,-0.377117,0.705537,-0.232228,0.765552,-0.078414,0.796148,0.000000,0.796148,0.000000,0.800000,0.600000,0.800000,0.603843,0.796157,0.603843,0.796157,$1*%
%AMFreePoly1*
4,1,37,0.000000,0.796148,0.078414,0.796148,0.232228,0.765552,0.377117,0.705537,0.507515,0.618408,0.618408,0.507515,0.705537,0.377117,0.765552,0.232228,0.796148,0.078414,0.796148,-0.078414,0.765552,-0.232228,0.705537,-0.377117,0.618408,-0.507515,0.507515,-0.618408,0.377117,-0.705537,0.232228,-0.765552,0.078414,-0.796148,0.000000,-0.796148,0.000000,-0.800000,-0.600000,-0.800000,
-0.603843,-0.796157,-0.639018,-0.796157,-0.711114,-0.766294,-0.766294,-0.711114,-0.796157,-0.639018,-0.796157,-0.603843,-0.800000,-0.600000,-0.800000,0.600000,-0.796157,0.603843,-0.796157,0.639018,-0.766294,0.711114,-0.711114,0.766294,-0.639018,0.796157,-0.603843,0.796157,-0.600000,0.800000,0.000000,0.800000,0.000000,0.796148,0.000000,0.796148,$1*%
G04 Aperture macros list end*
%ADD10C,1.600000*%
%ADD11O,1.600000X1.600000*%
%ADD12C,2.000000*%
%ADD13R,1.700000X1.700000*%
%ADD14O,1.700000X1.700000*%
%ADD15C,3.200000*%
%ADD16C,2.400000*%
%ADD17RoundRect,0.200000X-0.600000X-0.600000X0.600000X-0.600000X0.600000X0.600000X-0.600000X0.600000X0*%
%ADD18FreePoly0,0.000000*%
%ADD19FreePoly1,0.000000*%
%ADD20C,1.700000*%
%ADD21R,1.600000X1.600000*%
%ADD22RoundRect,0.225000X-0.225000X-0.250000X0.225000X-0.250000X0.225000X0.250000X-0.225000X0.250000X0*%
%ADD23RoundRect,0.102000X0.570000X0.570000X-0.570000X0.570000X-0.570000X-0.570000X0.570000X-0.570000X0*%
%ADD24C,1.344000*%
%ADD25R,2.600000X2.600000*%
%ADD26C,2.600000*%
G04 APERTURE END LIST*
D10*
%TO.C,C11*%
X121000000Y-77000000D03*
X121000000Y-69500000D03*
%TD*%
%TO.C,C10*%
X144000000Y-65000000D03*
X144000000Y-57500000D03*
%TD*%
%TO.C,C1*%
X169000000Y-65000000D03*
X169000000Y-72500000D03*
%TD*%
%TO.C,R_Pullup7*%
X166000000Y-51000000D03*
D11*
X166000000Y-61160000D03*
%TD*%
D10*
%TO.C,R6*%
X140000000Y-57260000D03*
D11*
X140000000Y-47100000D03*
%TD*%
D12*
%TO.C,TP2*%
X170000000Y-122000000D03*
%TD*%
%TO.C,TP18*%
X161000000Y-54000000D03*
%TD*%
D10*
%TO.C,C14*%
X179000000Y-73000000D03*
X179000000Y-65500000D03*
%TD*%
%TO.C,R_Pullup5*%
X117000000Y-50000000D03*
D11*
X117000000Y-60160000D03*
%TD*%
D13*
%TO.C,J5*%
X123000000Y-45760000D03*
D14*
X125540000Y-45760000D03*
X128080000Y-45760000D03*
X130620000Y-45760000D03*
X133160000Y-45760000D03*
%TD*%
D10*
%TO.C,R8*%
X121000000Y-65000000D03*
D11*
X121000000Y-54840000D03*
%TD*%
D15*
%TO.C,H3*%
X190000000Y-138250000D03*
%TD*%
D10*
%TO.C,R_Pullup3*%
X162000000Y-119000000D03*
D11*
X162000000Y-129160000D03*
%TD*%
D12*
%TO.C,TP19*%
X146000000Y-51000000D03*
%TD*%
%TO.C,TP14*%
X182000000Y-48260000D03*
%TD*%
%TO.C,TP16*%
X129000000Y-51000000D03*
%TD*%
D10*
%TO.C,R5*%
X156525236Y-49000000D03*
D11*
X156525236Y-59160000D03*
%TD*%
D12*
%TO.C,TP3*%
X188000000Y-124000000D03*
%TD*%
D10*
%TO.C,R3*%
X193000000Y-106000000D03*
D11*
X193000000Y-95840000D03*
%TD*%
D16*
%TO.C,J2*%
X182000000Y-83260000D03*
%TD*%
D13*
%TO.C,J3*%
X176500000Y-45260000D03*
D14*
X173960000Y-45260000D03*
X171420000Y-45260000D03*
X168880000Y-45260000D03*
X166340000Y-45260000D03*
%TD*%
D10*
%TO.C,C13*%
X105250000Y-108000000D03*
X112750000Y-108000000D03*
%TD*%
D17*
%TO.C,U1*%
X139220000Y-93420000D03*
D10*
X139220000Y-95960000D03*
D18*
X139220000Y-98500000D03*
D10*
X139220000Y-101040000D03*
X139220000Y-103580000D03*
X139220000Y-106120000D03*
X139220000Y-108660000D03*
D18*
X139220000Y-111200000D03*
D10*
X139220000Y-113740000D03*
X139220000Y-116280000D03*
X139220000Y-118820000D03*
X139220000Y-121360000D03*
D18*
X139220000Y-123900000D03*
D10*
X139220000Y-126440000D03*
X139220000Y-128980000D03*
X139220000Y-131520000D03*
X139220000Y-134060000D03*
D18*
X139220000Y-136600000D03*
D10*
X139220000Y-139140000D03*
X139220000Y-141680000D03*
X157000000Y-141680000D03*
X157000000Y-139140000D03*
D19*
X157000000Y-136600000D03*
D10*
X157000000Y-134060000D03*
X157000000Y-131520000D03*
X157000000Y-128980000D03*
X157000000Y-126440000D03*
D19*
X157000000Y-123900000D03*
D10*
X157000000Y-121360000D03*
X157000000Y-118820000D03*
X157000000Y-116280000D03*
X157000000Y-113740000D03*
D19*
X157000000Y-111200000D03*
D10*
X157000000Y-108660000D03*
X157000000Y-106120000D03*
X157000000Y-103580000D03*
X157000000Y-101040000D03*
D19*
X157000000Y-98500000D03*
D10*
X157000000Y-95960000D03*
X157000000Y-93420000D03*
%TD*%
%TO.C,R_Pullup6*%
X182000000Y-53000000D03*
D11*
X182000000Y-63160000D03*
%TD*%
D13*
%TO.C,DISP1*%
X193000000Y-132240000D03*
D20*
X193000000Y-129700000D03*
X193000000Y-127160000D03*
X193000000Y-124620000D03*
X193000000Y-122080000D03*
X193000000Y-119540000D03*
X193000000Y-117000000D03*
%TD*%
D15*
%TO.C,H1*%
X100000000Y-48250000D03*
%TD*%
D10*
%TO.C,C9*%
X160000000Y-57000000D03*
X160000000Y-64500000D03*
%TD*%
D13*
%TO.C,J4*%
X149000000Y-45260000D03*
D14*
X151540000Y-45260000D03*
X154080000Y-45260000D03*
X156620000Y-45260000D03*
X159160000Y-45260000D03*
%TD*%
D12*
%TO.C,TP15*%
X163000000Y-49000000D03*
%TD*%
%TO.C,TP17*%
X113000000Y-47000000D03*
%TD*%
D10*
%TO.C,R_Pullup4*%
X125000000Y-50000000D03*
D11*
X125000000Y-60160000D03*
%TD*%
D13*
%TO.C,SW1*%
X184000000Y-110000000D03*
D14*
X186540000Y-110000000D03*
%TD*%
D15*
%TO.C,H2*%
X190000000Y-48250000D03*
%TD*%
D10*
%TO.C,R9*%
X169000000Y-49000000D03*
D11*
X169000000Y-59160000D03*
%TD*%
D10*
%TO.C,C2*%
X129000000Y-69000000D03*
X129000000Y-76500000D03*
%TD*%
D15*
%TO.C,H4*%
X100000000Y-138250000D03*
%TD*%
D10*
%TO.C,R_Pullup1*%
X153000000Y-51000000D03*
D11*
X153000000Y-61160000D03*
%TD*%
D10*
%TO.C,R10*%
X177000000Y-60000000D03*
D11*
X177000000Y-49840000D03*
%TD*%
D10*
%TO.C,R_Pullup2*%
X137000000Y-55000000D03*
D11*
X137000000Y-65160000D03*
%TD*%
D12*
%TO.C,TP1*%
X171000000Y-137000000D03*
%TD*%
D10*
%TO.C,R4*%
X192000000Y-83080000D03*
D11*
X192000000Y-72920000D03*
%TD*%
D10*
%TO.C,R7*%
X129000000Y-55000000D03*
D11*
X129000000Y-65160000D03*
%TD*%
D10*
%TO.C,R2*%
X121160000Y-140260000D03*
D11*
X111000000Y-140260000D03*
%TD*%
D13*
%TO.C,RV2*%
X123000000Y-85260000D03*
D14*
X123000000Y-87800000D03*
X123000000Y-90340000D03*
%TD*%
D12*
%TO.C,TP12*%
X186000000Y-71000000D03*
%TD*%
D21*
%TO.C,C6*%
X110000000Y-133000000D03*
D10*
X107500000Y-133000000D03*
%TD*%
D12*
%TO.C,TP4*%
X166000000Y-121260000D03*
%TD*%
D13*
%TO.C,U2*%
X165510000Y-100260000D03*
D20*
X165510000Y-97720000D03*
X165510000Y-95180000D03*
X165510000Y-92640000D03*
X165510000Y-90100000D03*
X180750000Y-90100000D03*
X180750000Y-92640000D03*
X180750000Y-95180000D03*
X180750000Y-97720000D03*
X180750000Y-100260000D03*
%TD*%
D22*
%TO.C,C7*%
X101225000Y-75260000D03*
X102775000Y-75260000D03*
%TD*%
D23*
%TO.C,U3*%
X119970000Y-114450000D03*
D24*
X119970000Y-116990000D03*
X119970000Y-119530000D03*
X119970000Y-122070000D03*
X112030000Y-122070000D03*
X112030000Y-119530000D03*
X112030000Y-116990000D03*
X112030000Y-114450000D03*
%TD*%
D12*
%TO.C,TP5*%
X178000000Y-106260000D03*
%TD*%
D21*
%TO.C,C3*%
X100000000Y-95000000D03*
D10*
X97500000Y-95000000D03*
%TD*%
D12*
%TO.C,TP13*%
X188000000Y-116000000D03*
%TD*%
D10*
%TO.C,C12*%
X103000000Y-86500000D03*
X103000000Y-79000000D03*
%TD*%
D12*
%TO.C,TP6*%
X118000000Y-90260000D03*
%TD*%
%TO.C,TP9*%
X105000000Y-100000000D03*
%TD*%
D10*
%TO.C,C4*%
X108000000Y-79260000D03*
X108000000Y-86760000D03*
%TD*%
D23*
%TO.C,U4*%
X114940000Y-67000000D03*
D24*
X114940000Y-69540000D03*
X114940000Y-72080000D03*
X114940000Y-74620000D03*
X107000000Y-74620000D03*
X107000000Y-72080000D03*
X107000000Y-69540000D03*
X107000000Y-67000000D03*
%TD*%
D12*
%TO.C,TP7*%
X126000000Y-118260000D03*
%TD*%
D10*
%TO.C,C5*%
X113250000Y-136260000D03*
X120750000Y-136260000D03*
%TD*%
D12*
%TO.C,TP10*%
X184000000Y-106260000D03*
%TD*%
D21*
%TO.C,C16*%
X119000000Y-82000000D03*
D10*
X116500000Y-82000000D03*
%TD*%
%TO.C,R1*%
X109000000Y-89260000D03*
D11*
X109000000Y-99420000D03*
%TD*%
D13*
%TO.C,J1*%
X190000000Y-88000000D03*
D14*
X190000000Y-90540000D03*
X190000000Y-93080000D03*
X190000000Y-95620000D03*
X190000000Y-98160000D03*
%TD*%
D12*
%TO.C,TP8*%
X116000000Y-128260000D03*
%TD*%
D25*
%TO.C,LS1*%
X100000000Y-127000000D03*
D26*
X100000000Y-122000000D03*
%TD*%
D21*
%TO.C,C15*%
X126000000Y-128260000D03*
D10*
X123500000Y-128260000D03*
%TD*%
%TO.C,Rpullup1*%
X179000000Y-110000000D03*
D11*
X168840000Y-110000000D03*
%TD*%
D13*
%TO.C,RV1*%
X132000000Y-118260000D03*
D14*
X132000000Y-120800000D03*
X132000000Y-123340000D03*
%TD*%
D10*
%TO.C,Rpullup2*%
X169000000Y-115260000D03*
D11*
X179160000Y-115260000D03*
%TD*%
D25*
%TO.C,LS2*%
X100000000Y-64000000D03*
D26*
X100000000Y-59000000D03*
%TD*%
D12*
%TO.C,TP11*%
X186000000Y-84000000D03*
%TD*%
D22*
%TO.C,C8*%
X107225000Y-121000000D03*
X108775000Y-121000000D03*
%TD*%
M02*
